<ttFont>
          <CharString index="0">
            329 callgsubr
            -37 hvcurveto
            return
          </CharString>
          <CharString index="1">
            -37 -10 -9 -15 -15 10 -9 37 hvcurveto
            return
          </CharString>
          <CharString index="2">
            -21 -105 callgsubr
            return
          </CharString>
          <CharString index="3">
            rmoveto
            -106 callsubr
            return
          </CharString>
          <CharString index="4">
            -93 callsubr
            33 31 7 11 29 hvcurveto
            return
          </CharString>
          <CharString index="5">
            rmoveto
            -6 -34 -8 -35 -7 -37 rrcurveto
            -129 -38 -210 -137 -141 hhcurveto
            102 63 97 106 114 vvcurveto
            37 -9 31 -19 21 vhcurveto
            return
          </CharString>
          <CharString index="6">
            -106 callsubr
            80 -103 callsubr
            return
          </CharString>
          <CharString index="7">
            hlineto
            -16 -83 -20 -90 -20 -96 rrcurveto
            -106 callgsubr
            return
          </CharString>
          <CharString index="8">
            -12 -10 -8 -10 -7 vvcurveto
            -12 14 -14 13 vhcurveto
            20 11 33 44 hhcurveto
            36 18 -25 -45 return
          </CharString>
          <CharString index="9">
            -1 callgsubr
            vhcurveto
            -74 callgsubr
            117 -107 callgsubr
          </CharString>
          <CharString index="10">
            rlineto
            -106 callgsubr
            return
          </CharString>
          <CharString index="11">
            4 hlineto
            -16 -50 -14 -51 -15 -42 rrcurveto
            30 -37 -36 23 -38 hhcurveto
            -44 -19 -31 -36 -58 69 -64 45 24 26 24 48 26 hvcurveto
            37 -32 39 -36 42 -23 rrcurveto
            -15 28 25 -5 34 hhcurveto
            23 24 10 17 10 -19 0 -28 -68 -61 57 52 -58 hvcurveto
            12 28 12 33 12 38 8 25 7 26 8 25 rrcurveto
            88 11 76 39 66 vvcurveto
            50 -39 18 -34 -56 -37 -60 -76 -28 vhcurveto
            -7 -7 0 -7 hhcurveto
            -97 callgsubr
            168 -107 callgsubr
          </CharString>
          <CharString index="12">
            -51 -37 72 44 41 36 17 57 34 30 -5 -4 22 hvcurveto
            -90 -14 -27 -75 -50 hhcurveto
            -80 471 rmoveto
            -77 callsubr
            return
          </CharString>
          <CharString index="13">
            rmoveto
            38 93 47 110 54 118 20 -82 14 -92 11 -102 -57 -12 -67 -17 -60 -16 rrcurveto
            -69 -21 rmoveto
            -58 -18 -40 -17 -11 vvcurveto
            -21 20 -4 20 6 10 2 3 14 vhcurveto
            -40 -93 -31 -74 -5 vvcurveto
            -26 16 -22 16 13 36 93 146 59 vhcurveto
            29 7 36 11 46 12 106 28 rcurveline
            6 -68 5 -73 4 -77 rrcurveto
            -53 3 9 -26 21 hhcurveto
            17 7 43 63 40 -4 79 -9 88 hvcurveto
            55 16 35 12 11 vvcurveto
            16 -13 5 -16 -12 -23 -3 -6 -31 vhcurveto
            165 -18 -32 176 -41 hhcurveto
            -35 -12 -23 -37 -18 hvcurveto
            -20 -40 -54 -122 -50 -120 rrcurveto
            endchar
          </CharString>
          <CharString index="14">
            -66 callsubr
            -29 212 -282 34 -86 callgsubr
            return
          </CharString>
          <CharString index="15">
            -18 -11 -18 -46 hhcurveto
            -60 -31 68 90 114 83 86 88 51 21 -40 -50 hvcurveto
            -61 -25 -31 -27 vvcurveto
            -11 6 -9 11 vhcurveto
            156 callgsubr
            25 83 64 70 78 hvcurveto
            32 28 31 30 26 26 -19 -89 164 callsubr
            122 -107 callsubr
            endchar
          </CharString>
          <CharString index="16">
            vvcurveto
            -9 20 -16 8 return
          </CharString>
          <CharString index="17">
            -19 -119 -16 -100 -19 -54 callgsubr
            31 18 156 140 25 vhcurveto
            53 86 71 47 41 hhcurveto
            23 6 -26 -31 -130 -35 -79 -69 -8 -8 -2 -7 -11 21 -27 19 76 54 133 124 69 -22 36 -62 -41 -72 -45 -43 -68 hvcurveto
            16 87 18 105 3 27 52 callsubr
          </CharString>
          <CharString index="18">
            78 12 88 12 73 20 -11 -51 -84 callsubr
          </CharString>
          <CharString index="19">
            rmoveto
            -88 callgsubr
            return
          </CharString>
          <CharString index="20">
            hlineto
            -1 -9 0 -12 -13 vvcurveto
            -50 -2 -65 -6 -62 vhcurveto
            6 -32 -29 2 -38 hhcurveto
            -77 -58 -29 -62 -77 61 -96 77 107 46 171 193 56 -1 31 -2 16 hvcurveto
            return
          </CharString>
          <CharString index="21">
            35 -141 26 152 vvcurveto
            66 70 27 100 68 47 -8 -18 60 vhcurveto
            -26 -127 -33 -126 -105 callsubr
            120 -107 callgsubr
          </CharString>
          <CharString index="22">
            rmoveto
            -69 callgsubr
            -95 -110 -167 -76 -42 42 -34 39 return
          </CharString>
          <CharString index="23">
            rcurveline
            -27 -130 -34 -131 -21 -17 callgsubr
          </CharString>
          <CharString index="24">
            114 -34 callsubr
            15 -55 callgsubr
            return
          </CharString>
          <CharString index="25">
            hhcurveto
            -56 -46 -49 -37 -34 hvcurveto
            -52 -58 -71 -79 -19 vvcurveto
            -8 6 -6 11 21 68 82 55 50 vhcurveto
            36 32 38 35 35 hhcurveto
            33 36 return
          </CharString>
          <CharString index="26">
            -74 callsubr
            187 -107 callgsubr
          </CharString>
          <CharString index="27">
            329 callsubr
            80 76 9 -3 9 -4 10 vhcurveto
            -73 callsubr
          </CharString>
          <CharString index="28">
            hhcurveto
            -134 -152 -20 -84 -76 112 -124 74 72 33 82 80 32 -1 37 -7 25 hvcurveto
            25 hlineto
            return
          </CharString>
          <CharString index="29">
            -43 279 callsubr
            71 rrcurveto
            29 26 28 19 25 hhcurveto
            21 16 -24 -23 13 hvcurveto
            -23 13 11 -23 11 hhcurveto
            12 3 13 16 40 -44 75 -46 -122 -113 -193 -132 -65 26 -51 64 return
          </CharString>
          <CharString index="30">
            -106 callsubr
            186 -87 callsubr
            return
          </CharString>
          <CharString index="31">
            -42 -77 callgsubr
            return
          </CharString>
          <CharString index="32">
            39 callsubr
            39 60 callgsubr
            20 86 30 134 4 40 rrcurveto
            return
          </CharString>
          <CharString index="33">
            -15 -27 -70 -172 hhcurveto
            -78 -100 15 40 60 157 162 72 40 19 -45 -9 23 hvcurveto
            -1 2 2 0 2 hhcurveto
            1 0 118 callgsubr
            15 18 14 -2 16 13 vvcurveto
            90 29 40 11 19 vhcurveto
            return
          </CharString>
          <CharString index="34">
            10 10 -1 11 hhcurveto
            54 50 16 24 38 hvcurveto
            -4 -21 -66 callgsubr
          </CharString>
          <CharString index="35">
            5 26 6 27 8 26 rrcurveto
            92 9 82 39 69 vvcurveto
            43 -22 29 -49 -63 -47 -65 -75 -30 vhcurveto
            -4 hlineto
            -97 callgsubr
            return
          </CharString>
          <CharString index="36">
            -1 -4 -19 -89 -21 -90 -12 -53 rlinecurve
            33 -22 -38 35 -76 callsubr
            1 -1 1 -2 2 -1 rrcurveto
            -8 6 10 -7 -52 callgsubr
            91 -107 callgsubr
          </CharString>
          <CharString index="37">
            56 -45 184 -7 -61 vvcurveto
            -43 -47 -36 -77 -86 -38 38 41 119 callsubr
            -14 -6 213 callsubr
            138 -107 callgsubr
          </CharString>
          <CharString index="38">
            rmoveto
            -34 -11 24 42 94 78 158 76 44 47 -86 -104 13 hvcurveto
            -73 -53 -83 -55 -77 hhcurveto
            return
          </CharString>
          <CharString index="39">
            -80 callgsubr
            4 -7 -7 3 -6 hhcurveto
            return
          </CharString>
          <CharString index="40">
            480 rmoveto
            -82 -50 -85 -78 -51 23 -46 42 -20 hvcurveto
            -70 -102 -147 -47 -103 hhcurveto
            -10 -5 4 9 67 104 97 63 43 hvcurveto
            14 10 12 9 12 vvcurveto
            7 -6 3 -11 vhcurveto
            263 callgsubr
            -26 -30 -10 -41 hhcurveto
            -43 -21 12 21 55 135 142 240 callsubr
            181 hlineto
            -9 -22 -6 -31 -23 vvcurveto
            -11 0 -11 2 -10 vhcurveto
            -31 -250 rmoveto
            -25 5 -31 18 63 vvcurveto
            59 32 58 54 35 12 -30 -35 -50 -30 -47 -47 -41 vhcurveto
            return
          </CharString>
          <CharString index="41">
            -68 callsubr
            -12 -9 -6 -12 return
          </CharString>
          <CharString index="42">
            rmoveto
            -14 1 -8 -22 -5 hvcurveto
            -118 -26 -126 -283 -108 hhcurveto
            -27 -23 23 31 hvcurveto
            147 111 164 28 vvcurveto
            21 -14 17 -14 -41 -103 -240 -132 -53 45 -60 63 62 75 63 107 56 vhcurveto
            -19 -60 -14 -54 -23 vvcurveto
            -21 10 -12 12 8 12 15 27 8 vhcurveto
            64 223 45 147 16 vvcurveto
            28 -22 29 -16 vhcurveto
            return
          </CharString>
          <CharString index="43">
            hlineto
            -97 callgsubr
            158 -107 callgsubr
          </CharString>
          <CharString index="44">
            rlineto
            -27 -130 -34 -131 -21 -73 callgsubr
          </CharString>
          <CharString index="45">
            308 callsubr
            15 15 14 39 50 vhcurveto
            52 41 22 13 21 vvcurveto
            18 -14 25 -17 return
          </CharString>
          <CharString index="46">
            -6 -6 -3 -7 -5 vvcurveto
            -11 19 -18 11 vhcurveto
            13 18 37 62 hhcurveto
            51 24 -30 -54 return
          </CharString>
          <CharString index="47">
            -95 callgsubr
            188 -100 callgsubr
            endchar
          </CharString>
          <CharString index="48">
            22 -28 -28 14 -49 hhcurveto
            -104 -198 -70 -86 -57 66 -43 60 67 30 45 59 27 -5 32 -14 28 hvcurveto
            10 38 37 7 25 hhcurveto
            39 26 -8 -33 39 hvcurveto
            -7 7 8 -5 0 callgsubr
            return
          </CharString>
          <CharString index="49">
            636 -104 callsubr
            return
          </CharString>
          <CharString index="50">
            -84 hvcurveto
            47 46 34 53 66 vvcurveto
            84 -59 60 -70 -103 -55 -87 -76 -79 51 -51 68 -32 vhcurveto
            -105 -81 -137 -71 -99 vvcurveto
            -88 101 -31 102 -1 vhcurveto
            -107 8 58 -122 36 hhcurveto
            9 8 5 9 19 -69 73 -6 125 hvcurveto
            109 10 95 52 82 vvcurveto
            58 -46 33 -49 -94 -53 -85 -107 -6 vhcurveto
            -86 2 -70 23 50 vvcurveto
            83 138 63 105 86 vhcurveto
            -22 70 78 -8 61 hhcurveto
            return
          </CharString>
          <CharString index="51">
            -5 -29 -7 -31 -6 -31 -31 -31 -56 -62 -43 -38 -36 -32 -43 -34 -34 -28 rrcurveto
            4 17 2 19 17 vvcurveto
            68 -33 77 -87 return
          </CharString>
          <CharString index="52">
            vvcurveto
            -127 97 -92 132 42 28 11 17 11 -13 5 -36 -116 -81 56 119 84 51 56 94 82 26 -38 -71 -20 3 -19 13 25 5 39 28 68 -40 66 -116 vhcurveto
            -12 callgsubr
            126 callsubr
          </CharString>
          <CharString index="53">
            rmoveto
            35 -31 33 -15 -12 -2 -5 -24 vhcurveto
            -144 -86 -195 -143 vvcurveto
            -97 58 -86 85 156 160 233 365 71 -39 25 -17 -11 -3 -3 -13 vhcurveto
            -30 7 -40 -60 vvcurveto
            -272 -151 -220 -95 -54 -37 53 88 vhcurveto
            101 87 234 94 vvcurveto
            return
          </CharString>
          <CharString index="54">
            rmoveto
            -18 -53 -28 -78 -79 hvcurveto
            66 -86 -12 74 -32 hhcurveto
            -12 -11 -11 -16 -55 131 -113 19 20 28 35 29 39 hvcurveto
            43 32 48 15 30 vvcurveto
            12 -9 8 -16 vhcurveto
            return
          </CharString>
          <CharString index="55">
            3 -22 8 -33 -51 vvcurveto
            -134 -85 -135 -94 -38 -16 44 67 131 44 88 16 45 vhcurveto
            -163 -23 callsubr
            107 -13 callsubr
            return
          </CharString>
          <CharString index="56">
            -90 -20 -96 rrcurveto
            -25 callsubr
            return
          </CharString>
          <CharString index="57">
            rmoveto
            -79 64 -108 88 178 188 264 186 120 -77 119 -105 -141 -195 -254 -248 vhcurveto
            338 442 rmoveto
            52 63 -67 -124 -151 -181 -231 -111 -49 -52 52 88 204 190 229 88 hvcurveto
            return
          </CharString>
          <CharString index="58">
            122 -69 callsubr
            return
          </CharString>
          <CharString index="59">
            hhcurveto
            -13 -5 4 9 45 75 78 57 39 hvcurveto
            21 14 24 18 13 vvcurveto
            11 -6 6 -13 vhcurveto
            -1 hlineto
            -2 callsubr
            108 113 89 86 45 -26 22 -45 return
          </CharString>
          <CharString index="60">
            rrcurveto
            -161 -225 rmoveto
            -32 -44 58 39 37 66 18 88 15 hvcurveto
            -92 -14 -24 -75 -40 hhcurveto
            return
          </CharString>
          <CharString index="61">
            rmoveto
            -42 57 -54 91 -34 71 rrcurveto
            25 24 25 16 23 hhcurveto
            59 32 -104 -108 22 hvcurveto
            -16 -17 -19 -16 -20 -15 rrcurveto
            -231 -15 rmoveto
            54 29 77 38 58 vhcurveto
            33 -67 53 -78 46 -52 rrcurveto
            -34 -53 -57 -24 -43 hhcurveto
            -34 -12 24 42 hvcurveto
            return
          </CharString>
          <CharString index="62">
            hhcurveto
            -12 -8 -10 -12 hvcurveto
            0 vlineto
            -89 callgsubr
            return
          </CharString>
          <CharString index="63">
            -24 callsubr
            -28 9 -16 hhcurveto
            return
          </CharString>
          <CharString index="64">
            hlineto
            -11 -10 -6 -11 -6 vvcurveto
            -12 21 -14 12 10 8 9 11 10 vhcurveto
            12 11 20 9 27 hhcurveto
            51 22 -29 -62 -106 -79 -89 -117 hvcurveto
            -43 -3 41 -28 hhcurveto
            -7 -5 -8 -9 -2 hvcurveto
            -1 -2 0 -1 -2 vvcurveto
            0 vlineto
            -1 vlineto
            -4 1 -5 3 -6 vhcurveto
            13 -40 52 -85 33 -44 rrcurveto
            -66 49 69 -82 23 hhcurveto
            11 5 6 11 18 -64 65 -55 76 hvcurveto
            -18 24 -19 35 -19 31 rrcurveto
            7 hlineto
            return
          </CharString>
          <CharString index="65">
            hlineto
            -106 callsubr
            return
          </CharString>
          <CharString index="66">
            142 callgsubr
            4 -7 -7 3 -6 287 callgsubr
            -14 53 -78 57 -74 hvcurveto
            -74 58 61 -71 43 callgsubr
            return
          </CharString>
          <CharString index="67">
            rrcurveto
            -59 callsubr
            return
          </CharString>
          <CharString index="68">
            rmoveto
            31 -26 -9 15 -26 hhcurveto
            -19 -42 -29 -27 -47 hvcurveto
            -49 -28 -19 -18 -26 vvcurveto
            -16 14 -7 11 32 52 63 36 70 vhcurveto
            -45 35 34 -64 33 hhcurveto
            14 9 6 11 18 -32 38 -35 42 hvcurveto
            return
          </CharString>
          <CharString index="69">
            -20 callsubr
            -98 451 -104 callsubr
            203 -14 hlineto
            -50 -2 -65 -6 -62 vhcurveto
            6 -32 -29 2 -38 hhcurveto
            -77 -58 -29 -62 -77 61 -96 77 107 46 171 193 38 0 27 -1 18 hvcurveto
            return
          </CharString>
          <CharString index="70">
            rmoveto
            31 20 -31 -18 -47 -91 -23 -96 -2 hvcurveto
            57 36 53 64 47 hhcurveto
            -326 143 callsubr
            353 hlineto
            -16 -33 -8 -61 -51 vvcurveto
            15 -20 -22 12 -17 hhcurveto
            -93 -229 -197 -104 -38 41 -39 57 -18 hvcurveto
            return
          </CharString>
          <CharString index="71">
            hlineto
            -42 callgsubr
            return
          </CharString>
          <CharString index="72">
            rmoveto
            61 callsubr
            -19 callsubr
            return
          </CharString>
          <CharString index="73">
            636 rmoveto
            -49 -33 0 -21 -22 51 -5 85 hvcurveto
            return
          </CharString>
          <CharString index="74">
            rmoveto
            24 -25 32 -16 -16 -7 -28 -27 -52 -5 -270 -96 -243 vhcurveto
            -74 159 -144 355 -12 49 rrcurveto
            32 -8 -27 25 -10 hhcurveto
            -12 -2 -5 -24 hvcurveto
            -116 -138 -427 -72 vvcurveto
            -22 22 -23 10 12 7 51 476 126 vhcurveto
            30 -86 148 -352 25 -49 rrcurveto
            -24 12 19 -16 15 hhcurveto
            83 83 455 178 hvcurveto
            return
          </CharString>
          <CharString index="75">
            -3 callsubr
            -68 -28 -122 -90 206 callgsubr
            return
          </CharString>
          <CharString index="76">
            -103 callgsubr
            122 -107 callgsubr
          </CharString>
          <CharString index="77">
            rmoveto
            -33 -62 -69 -16 -67 hhcurveto
            -88 -48 48 45 -39 hvcurveto
            123 20 96 82 110 vvcurveto
            37 -10 33 -21 24 vhcurveto
            345 hlineto
            -11 -59 -13 -62 -14 -65 rrcurveto
            35 -30 -50 30 -64 hhcurveto
            -86 -48 -49 -60 -65 65 -55 85 hvcurveto
            112 89 rmoveto
            -1 vlineto
            -20 -5 -46 -27 -50 hhcurveto
            -71 -48 31 51 45 37 18 55 84 44 -56 -38 hvcurveto
            return
          </CharString>
          <CharString index="78">
            -23 vvcurveto
            -7 0 -7 1 -7 vhcurveto
            6 -16 -19 4 -16 hhcurveto
            -74 -137 -53 -48 -15 8 -20 15 -12 hvcurveto
            58 -44 155 0 -65 vvcurveto
            -30 -43 -30 -73 -80 -39 39 42 -19 vhcurveto
            14 -6 -6 8 -17 hhcurveto
            -10 -7 -7 -14 return
          </CharString>
          <CharString index="79">
            -12 hvcurveto
            0 vlineto
            -39 callgsubr
            return
          </CharString>
          <CharString index="80">
            rmoveto
            48 9 57 14 53 vhcurveto
            47 -84 81 -110 46 -55 rrcurveto
            -23 -39 -48 -21 -53 hhcurveto
            -41 -16 69 66 hvcurveto
            -91 277 -6 callsubr
            return
          </CharString>
          <CharString index="81">
            21 92 30 136 4 32 rrcurveto
            return
          </CharString>
          <CharString index="82">
            -27 -130 -34 16 callgsubr
            return
          </CharString>
          <CharString index="83">
            15 callgsubr
            -8 vlineto
            12 -23 return
          </CharString>
          <CharString index="84">
            48 -104 callsubr
            return
          </CharString>
          <CharString index="85">
            79 8 75 5 47 7 rrcurveto
            -27 -128 -33 -127 -105 callsubr
            78 callgsubr
          </CharString>
          <CharString index="86">
            hlineto
            -1 -9 -1 -12 -13 vvcurveto
            -1 return
          </CharString>
          <CharString index="87">
            rmoveto
            -51 -37 72 44 41 36 17 57 34 30 -5 -4 22 hvcurveto
            -90 -14 -27 -75 -50 hhcurveto
            return
          </CharString>
          <CharString index="88">
            43 8 -65 -67 -11 0 -12 -1 -11 hvcurveto
            -6 -21 -21 -4 -30 hhcurveto
            return
          </CharString>
          <CharString index="89">
            280 36 8 -64 callgsubr
            return
          </CharString>
          <CharString index="90">
            hhcurveto
            -101 -50 -60 -67 -65 58 -68 107 28 29 4 7 29 hvcurveto
            19 callgsubr
            -3 33 callsubr
            return
          </CharString>
          <CharString index="91">
            -253 -83 callsubr
            17 return
          </CharString>
          <CharString index="92">
            -13 40 48 -6 46 hhcurveto
            128 124 51 60 46 -52 62 -49 -61 -81 -71 -96 -54 hvcurveto
            -70 7 -58 24 35 vvcurveto
            77 202 166 54 44 19 -39 -12 20 vhcurveto
            1 -1 1 0 -1 vvcurveto
            -1 4 3 -1 3 hhcurveto
            return
          </CharString>
          <CharString index="93">
            -72 -52 -112 -119 -25 250 callsubr
            17 76 86 35 35 vhcurveto
            48 48 55 52 53 54 rrcurveto
            -17 -67 -21 -84 -25 -54 callgsubr
            23 35 120 130 25 vhcurveto
            62 79 71 53 42 hhcurveto
            27 9 -15 -25 hvcurveto
            -103 -123 -77 -25 vvcurveto
            -10 14 -8 11 return
          </CharString>
          <CharString index="94">
            hlineto
            -24 -55 -30 -93 -107 vvcurveto
            -96 29 -72 71 146 96 183 186 20 -7 19 -10 15 vhcurveto
            return
          </CharString>
          <CharString index="95">
            rmoveto
            -12 -66 -16 -70 -16 -75 -86 -35 -97 -22 -100 -7 rrcurveto
            54 46 35 66 65 -11 callgsubr
            return
          </CharString>
          <CharString index="96">
            -30 callsubr
            -608 306 4 callsubr
            42 -1 hvcurveto
            -64 49 74 -75 111 hhcurveto
            92 102 27 73 92 hvcurveto
            -15 -65 -14 -60 -8 -38 13 callgsubr
            118 -107 callsubr
            endchar
          </CharString>
          <CharString index="97">
            28 -30 61 -19 -17 -18 -22 -19 -24 41 -41 27 return
          </CharString>
          <CharString index="98">
            37 callgsubr
            39 143 callgsubr
            294 230 callgsubr
            -22 -1 -52 -1 -44 348 callgsubr
            21 -53 -40 callgsubr
            vvcurveto
            return
          </CharString>
          <CharString index="99">
            rmoveto
            -33 -16 -28 -39 -29 -43 20 30 30 51 30 59 22 vhcurveto
            13 -22 4 -28 -21 vvcurveto
            return
          </CharString>
          <CharString index="100">
            112 -242 154 46 vvcurveto
            29 37 33 74 30 vhcurveto
            90 37 74 -4 18 vvcurveto
            17 -24 21 -35 -66 -135 -55 -52 -43 vhcurveto
            -13 -16 -15 -37 -23 -91 233 -128 -94 vvcurveto
            -68 -79 -58 -117 vhcurveto
            -102 -49 95 -22 hhcurveto
            -9 -3 -6 -11 return
          </CharString>
          <CharString index="101">
            38 callsubr
            -91 27 -94 80 return
          </CharString>
          <CharString index="102">
            64 callgsubr
            -123 -103 -102 -148 21 callgsubr
            return
          </CharString>
          <CharString index="103">
            348 callsubr
            -23 -5 -23 -5 -23 rrcurveto
            -142 -37 -113 -133 -91 hhcurveto
            -25 -20 41 74 84 14 77 25 68 hvcurveto
            return
          </CharString>
          <CharString index="104">
            -57 callgsubr
            -22 return
          </CharString>
          <CharString index="105">
            -2 hlineto
            -16 -65 -47 -75 hhcurveto
            -25 -8 6 22 17 5 21 10 21 hvcurveto
            -4 14 16 -2 16 hhcurveto
            return
          </CharString>
          <CharString index="106">
            rmoveto
            17 9 -8 -17 -62 -86 -65 -79 -11 -11 2 2 -10 hvcurveto
            75 46 79 73 46 hhcurveto
            return
          </CharString>
          <CharString index="107">
            149 -21 callsubr
            return
          </CharString>
          <CharString index="108">
            -90 callgsubr
            113 136 48 94 84 hvcurveto
            return
          </CharString>
          <CharString index="109">
            34 14 callgsubr
            -67 83 -39 53 hvcurveto
            return
          </CharString>
          <CharString index="110">
            rmoveto
            -87 -63 -114 -76 -37 hvcurveto
            11 64 0 36 28 vvcurveto
            34 -25 32 -17 -15 0 -19 -24 vhcurveto
            -17 2 -21 -16 vvcurveto
            -71 -8 -60 -10 -49 vhcurveto
            -18 -89 -25 -54 -24 vvcurveto
            -22 12 -23 15 32 -1 86 137 63 vhcurveto
            52 113 38 72 86 33 rrcurveto
            22 9 9 9 8 vvcurveto
            10 -15 8 -21 vhcurveto
            return
          </CharString>
          <CharString index="111">
            -57 callgsubr
            -61 callsubr
            -102 -91 -55 -113 -14 hvcurveto
            24 -22 -22 18 -29 hhcurveto
            -23 -12 -12 -20 -29 41 -25 return
          </CharString>
          <CharString index="112">
            -7 -32 -97 callsubr
            return
          </CharString>
          <CharString index="113">
            20 190 callsubr
            379 476 rmoveto
            -23 21 -66 22 74 vvcurveto
            64 49 32 68 vhcurveto
            56 callgsubr
            -99 -65 -62 -82 -48 28 -44 36 -25 hvcurveto
            -254 -42 callsubr
            289 hlineto
            -1 -7 347 callsubr
            -31 -4 -49 -1 -38 348 callgsubr
            22 -54 -40 callgsubr
            131 -248 48 90 141 callsubr
            3 0 hlineto
            0 vlineto
            28 1 13 89 76 vvcurveto
            13 -1 13 -3 11 vhcurveto
            284 callgsubr
            return
          </CharString>
          <CharString index="114">
            hlineto
            -14 -75 -18 -80 -18 -86 rrcurveto
            43 -67 -205 84 -56 hhcurveto
            -13 -4 -6 -9 -20 74 -14 109 -43 hvcurveto
            61 -24 60 -32 27 -12 -43 -21 -75 -50 -63 -38 106 callsubr
            11 92 53 57 93 vhcurveto
            56 35 57 36 38 27 rrcurveto
            332 callgsubr
            -100 -18 -73 callgsubr
          </CharString>
          <CharString index="115">
            rmoveto
            30 callsubr
            return
          </CharString>
          <CharString index="116">
            453 -104 callsubr
            return
          </CharString>
          <CharString index="117">
            23 17 41 52 hhcurveto
            47 33 -33 -62 -99 -72 -66 -111 hvcurveto
            -43 -24 50 -28 hhcurveto
            -8 -7 -12 -11 -6 3 -8 6 -8 hvcurveto
            22 -33 60 -59 28 -39 rrcurveto
            -78 56 38 -59 303 callgsubr
            18 -36 55 -55 80 hvcurveto
            -11 16 -12 16 -13 16 rrcurveto
            129 3 94 78 130 vvcurveto
            return
          </CharString>
          <CharString index="118">
            636 rmoveto
            -4 24 -11 41 -16 44 rrcurveto
            220 callgsubr
            54 -8 46 -25 -14 -10 -7 -16 hvcurveto
            21 callsubr
            return
          </CharString>
          <CharString index="119">
            rmoveto
            136 26 20 4 16 vvcurveto
            13 -20 8 -32 -19 -38 -4 -6 -42 vhcurveto
            11 53 7 40 17 vvcurveto
            27 -32 24 -13 -12 -3 -10 -20 -43 -7 -48 -10 -49 vhcurveto
            -62 -12 -55 -15 -14 vvcurveto
            -12 20 -19 15 14 20 4 6 33 vhcurveto
            -35 -135 -51 -132 -54 vvcurveto
            -41 36 -34 58 68 92 59 31 8 -3 4 -11 vhcurveto
            -22 -49 -41 -81 hhcurveto
            -16 -11 8 17 14 5 31 37 121 hvcurveto
            17 55 14 53 12 48 rrcurveto
            return
          </CharString>
          <CharString index="120">
            91 callsubr
            -76 -9 rrcurveto
            16 63 8 68 59 218 callsubr
            return
          </CharString>
          <CharString index="121">
            161 callsubr
            -11 -61 -14 -65 -15 -68 rrcurveto
            -101 -69 -151 -90 -116 hhcurveto
            -13 -5 4 9 37 85 72 300 callsubr
            -2 -4 -1 -2 -4 hvcurveto
            -5 -1 -6 -3 -6 -3 rrcurveto
            -14 -30 -47 -23 -52 hhcurveto
            -25 -8 15 22 10 2 12 4 12 hvcurveto
            -4 14 16 -2 15 297 callgsubr
            return
          </CharString>
          <CharString index="122">
            hhcurveto
            -25 -25 -1 -1 -26 hvcurveto
            12 85 2 88 59 vvcurveto
            return
          </CharString>
          <CharString index="123">
            -167 -76 -42 42 -34 39 return
          </CharString>
          <CharString index="124">
            rmoveto
            19 callsubr
            -66 -38 -55 81 callsubr
            return
          </CharString>
          <CharString index="125">
            -114 -95 -40 -95 22 callgsubr
            hvcurveto
            35 -141 26 152 vvcurveto
            66 70 27 100 return
          </CharString>
          <CharString index="126">
            -17 -87 -13 -78 -14 -93 rrcurveto
            -51 -84 return
          </CharString>
          <CharString index="127">
            31 callsubr
            -377 353 rmoveto
            -37 -10 -9 -15 -15 10 -9 37 hvcurveto
            314 203 callsubr
            rrcurveto
            -139 -3 -191 -186 -104 vvcurveto
            return
          </CharString>
          <CharString index="128">
            -25 callgsubr
            57 -77 24 -98 20 -48 rrcurveto
            return
          </CharString>
          <CharString index="129">
            rmoveto
            -16 -83 -13 -74 -13 -86 rrcurveto
            -50 -84 -65 -34 -58 69 callgsubr
            120 30 71 hvcurveto
            -165 48 -3 callsubr
            -64 -28 -106 -90 206 callgsubr
            67 70 32 41 70 vhcurveto
            -12 -78 -12 -72 -6 -48 rrcurveto
            35 -22 -37 37 53 callgsubr
            2 -3 3 -2 3 -2 rrcurveto
            -2 2 3 -1 3 hhcurveto
            33 17 167 143 27 hvcurveto
            50 85 63 28 45 hhcurveto
            36 13 -33 307 callsubr
            51 -62 -50 -66 -30 -38 -67 vhcurveto
            16 85 16 96 3 26 rrcurveto
            327 -107 callgsubr
          </CharString>
          <CharString index="130">
            hlineto
            -11 -26 -7 -27 90 callsubr
            22 vhcurveto
            -5 return
          </CharString>
          <CharString index="131">
            rmoveto
            18 -19 22 -14 -17 -7 -26 -168 -39 vhcurveto
            -19 -81 -50 -156 -22 vvcurveto
            -18 11 -14 13 10 15 14 42 14 vhcurveto
            72 227 30 132 30 vvcurveto
            return
          </CharString>
          <CharString index="132">
            343 211 rmoveto
            61 callgsubr
            78 36 80 28 24 50 callgsubr
            return
          </CharString>
          <CharString index="133">
            vvcurveto
            -38 callgsubr
          </CharString>
          <CharString index="134">
            103 callsubr
            hvcurveto
            10 399 5 callgsubr
            return
          </CharString>
          <CharString index="135">
            rmoveto
            113 callgsubr
            203 callgsubr
            -231 48 29 callsubr
            112 146 58 105 92 vhcurveto
            -3 -14 260 callgsubr
            rlinecurve
            -79 callgsubr
            119 -107 callgsubr
          </CharString>
          <CharString index="136">
            37 callsubr
            -159 -204 -80 -29 vvcurveto
            -27 38 -33 23 return
          </CharString>
          <CharString index="137">
            -106 callsubr
            354 -36 callsubr
            return
          </CharString>
          <CharString index="138">
            rmoveto
            -64 -166 -82 -114 -51 -41 11 33 79 169 154 108 47 48 -83 -48 vhcurveto
            return
          </CharString>
          <CharString index="139">
            15 15 1 1 14 hvcurveto
            -78 33 33 -104 30 hhcurveto
            10 6 5 13 17 -36 85 -27 68 hvcurveto
            76 16 54 36 65 vvcurveto
            31 -13 26 -21 23 vhcurveto
            71 10 96 30 74 32 rrcurveto
            -26 -125 -32 -123 138 callsubr
          </CharString>
          <CharString index="140">
            vlineto
            0 vlineto
            -1 vlineto
            -3 1 -3 1 -4 vhcurveto
            11 -39 60 -90 37 -51 rrcurveto
            -54 39 57 -77 23 hhcurveto
            14 callgsubr
            -59 75 -39 53 hvcurveto
            -14 19 -19 31 -20 31 rrcurveto
            -4 14 15 -2 15 hhcurveto
            161 112 129 123 return
          </CharString>
          <CharString index="141">
            -65 callsubr
            endchar
          </CharString>
          <CharString index="142">
            hlineto
            3 -19 6 -27 1 -61 rrcurveto
            4 -20 -25 3 -28 hhcurveto
            return
          </CharString>
          <CharString index="143">
            162 callsubr
            159 callgsubr
            -61 rrcurveto
            -119 -83 -156 -73 -146 hhcurveto
            142 81 94 138 114 vvcurveto
            85 -62 46 -62 return
          </CharString>
          <CharString index="144">
            94 callgsubr
            hvcurveto
            return
          </CharString>
          <CharString index="145">
            -104 callsubr
            81 117 callsubr
            return
          </CharString>
          <CharString index="146">
            -54 callgsubr
            28 return
          </CharString>
          <CharString index="147">
            -13 hlineto
            -158 245 callgsubr
            -34 22 33 31 0 1 30 hvcurveto
            -22 -20 -12 -27 -35 vvcurveto
            -119 114 -106 271 callgsubr
            35 -141 24 141 vvcurveto
            66 67 23 103 return
          </CharString>
          <CharString index="148">
            24 11 51 24 49 hvcurveto
            -52 37 31 -27 36 hhcurveto
            54 39 54 38 15 -6 9 -11 -29 -5 -61 -2 -40 hvcurveto
            2 -37 -5 74 -61 hhcurveto
            return
          </CharString>
          <CharString index="149">
            -80 callgsubr
            -4 2 -3 2 -4 1 rrcurveto
            16 -37 -59 8 -57 hhcurveto
            return
          </CharString>
          <CharString index="150">
            70 callsubr
            -65 -18 -87 -75 vvcurveto
            -91 return
          </CharString>
          <CharString index="151">
            49 callsubr
            -10 486 -104 callsubr
            561 hlineto
            -23 -43 -23 -78 -3 -42 rrcurveto
            -7 hlineto
            73 callsubr
            44 -16 29 -28 15 hvcurveto
            8 21 7 30 9 24 11 31 19 44 6 22 rrcurveto
            105 -107 callgsubr
          </CharString>
          <CharString index="152">
            rmoveto
            61 226 39 207 151 vvcurveto
            31 -34 31 -11 -12 -1 -6 -19 vhcurveto
            -280 -120 -378 -41 vvcurveto
            -16 19 -25 13 11 15 45 74 20 vhcurveto
            endchar
          </CharString>
          <CharString index="153">
            65 -32 42 -65 -82 -50 -85 -78 -50 21 -44 40 -21 vhcurveto
            -62 -98 -137 -39 -100 hhcurveto
            -10 -5 4 9 67 104 97 63 43 hvcurveto
            14 10 12 9 12 vvcurveto
            7 -6 3 -11 vhcurveto
            -29 -30 -10 -41 hhcurveto
            -43 -21 12 21 55 135 142 73 hvcurveto
            33 5 -39 17 hhcurveto
            7 7 8 8 14 -8 19 -14 14 hvcurveto
            return
          </CharString>
          <CharString index="154">
            267 callsubr
            -321 220 callsubr
            96 hlineto
            -1 2 2 0 3 hhcurveto
            4 4 0 1 3 hvcurveto
            202 67 callgsubr
            -131 hlineto
            3 38 2 38 40 vvcurveto
            2 vlineto
            51 7 49 29 62 56 callgsubr
            -49 -41 -15 -25 -29 hvcurveto
            56 -8 -19 45 -44 hhcurveto
            -94 -99 -221 -86 -22 hvcurveto
            return
          </CharString>
          <CharString index="155">
            385 259 callgsubr
            273 hlineto
            -13 -68 -16 -73 -16 -77 -90 -47 -142 -46 -72 -2 rrcurveto
            -72 52 -93 40 55 222 callgsubr
            return
          </CharString>
          <CharString index="156">
            rmoveto
            -55 -42 47 53 -28 hvcurveto
            81 85 79 84 50 hhcurveto
            24 14 -14 -27 -92 -51 -132 -76 hvcurveto
            -407 40 rmoveto
            65 72 143 67 43 36 -71 -41 26 vhcurveto
            -71 -75 -72 -66 -55 hhcurveto
            -30 -12 16 25 hvcurveto
            return
          </CharString>
          <CharString index="157">
            -38 rrcurveto
            3 14 2 15 16 -101 callgsubr
            1 hlineto
            61 callgsubr
            return
          </CharString>
          <CharString index="158">
            20 callsubr
            -49 40 -31 69 -8 vhcurveto
            -46 -58 -61 -96 -20 176 callgsubr
            117 hvcurveto
            127 21 151 88 81 vvcurveto
            12 callgsubr
          </CharString>
          <CharString index="159">
            rrcurveto
            307 -107 callgsubr
          </CharString>
          <CharString index="160">
            rmoveto
            -317 -6 0 -16 -16 23 -30 16 40 93 7 2 66 hvcurveto
            -12 -148 -119 -369 -68 vvcurveto
            -22 22 -21 13 17 28 145 123 34 vhcurveto
            47 171 29 132 37 vvcurveto
            7 -1 6 -2 7 vhcurveto
            -1 109 25 -9 71 hhcurveto
            20 8 2 8 23 -98 30 -106 hvcurveto
            endchar
          </CharString>
          <CharString index="161">
            rmoveto
            -89 callgsubr
            11 -4 13 -7 13 vhcurveto
            -1 10 11 0 11 hhcurveto
            50 43 7 16 44 hvcurveto
            -79 -219 -220 -98 -28 vvcurveto
            -9 5 -4 10 92 250 241 162 16 -5 8 -7 vhcurveto
            -31 -46 -39 -118 -37 99 callsubr
            -199 186 callgsubr
            571 -107 callgsubr
          </CharString>
          <CharString index="162">
            -14 -73 -17 -78 -18 -83 rrcurveto
            20 -58 -60 11 -81 hhcurveto
            return
          </CharString>
          <CharString index="163">
            88 245 636 -54 callsubr
            return
          </CharString>
          <CharString index="164">
            rmoveto
            -66 -19 -55 -36 -50 -81 93 59 32 81 21 95 18 vhcurveto
            3 -20 7 -27 -55 vvcurveto
            -202 371 -104 callsubr
            473 hlineto
            -6 -40 -7 -41 -7 -42 -43 -7 -76 -19 -84 -17 rrcurveto
            -133 -27 -155 -18 -76 vvcurveto
            -76 112 -130 74 76 29 87 81 33 -2 49 -11 30 vhcurveto
            75 13 78 12 51 15 -6 -31 -5 -32 -6 -33 rrcurveto
            -22 -130 -29 16 callgsubr
            14 39 183 133 26 vhcurveto
            18 93 24 132 3 35 rrcurveto
            123 -107 callgsubr
          </CharString>
          <CharString index="165">
            117 125 42 45 15 -14 20 -12 return
          </CharString>
          <CharString index="166">
            hhcurveto
            -26 -27 -1 -1 -26 hvcurveto
            14 100 3 107 65 vvcurveto
            -148 -480 rmoveto
            -32 -44 58 39 40 67 19 82 8 hvcurveto
            -92 -14 -23 -72 -36 hhcurveto
            return
          </CharString>
          <CharString index="167">
            hlineto
            -19 -27 -15 -49 -52 vvcurveto
            -12 vlineto
            14 -19 -22 11 -15 hhcurveto
            return
          </CharString>
          <CharString index="168">
            -44 -16 18 33 46 44 79 38 return
          </CharString>
          <CharString index="169">
            -70 7 -58 24 35 vvcurveto
            77 202 166 54 44 19 -39 -12 20 vhcurveto
            1 -1 1 0 -1 vvcurveto
            -1 4 3 -1 3 hhcurveto
            10 8 14 11 1 hvcurveto
            1 4 0 4 5 vvcurveto
            122 16 26 2 41 134 callsubr
          </CharString>
          <CharString index="170">
            159 callsubr
            -35 -44 -53 -27 -52 337 callsubr
            -96 277 43 callsubr
            27 -104 80 41 49 17 26 45 vhcurveto
            -1 -7 -1 -7 -6 vvcurveto
            return
          </CharString>
          <CharString index="171">
            140 callsubr
            127 -107 callgsubr
          </CharString>
          <CharString index="172">
            -282 34 14 callgsubr
            return
          </CharString>
          <CharString index="173">
            -2 callsubr
            108 113 89 86 45 -26 22 -45 79 callgsubr
            -38 25 -22 43 return
          </CharString>
          <CharString index="174">
            vvcurveto
            185 -336 rmoveto
            29 19 -18 -33 -55 -73 -34 -85 -7 hvcurveto
            83 6 38 64 66 hhcurveto
            return
          </CharString>
          <CharString index="175">
            136 -58 callsubr
            215 hlineto
            -24 -19 -15 -27 -27 vvcurveto
            -18 6 -15 11 9 3 3 7 5 vhcurveto
            7 9 7 15 8 14 rrcurveto
            21 12 20 19 32 hhcurveto
            40 20 -35 -46 -59 -40 -50 -55 -33 hvcurveto
            7 -24 -27 4 -27 hhcurveto
            -35 -25 -10 -17 -17 25 -37 28 31 31 8 13 29 hvcurveto
            34 -17 21 -31 -38 vvcurveto
            -77 -73 -42 -98 -109 -75 44 83 vhcurveto
            45 24 12 26 vvcurveto
            12 -5 5 -12 -38 -27 -43 -50 -118 92 -68 147 139 91 75 96 return
          </CharString>
          <CharString index="176">
            67 113 63 27 11 -3 5 -11 hvcurveto
            -30 -36 -47 -108 hhcurveto
            -52 -33 36 46 103 129 181 84 hvcurveto
            37 20 -43 25 hhcurveto
            7 6 6 9 24 -32 64 -67 return
          </CharString>
          <CharString index="177">
            -104 callsubr
            86 hlineto
            -22 return
          </CharString>
          <CharString index="178">
            -19 -38 -17 -48 -13 -43 rrcurveto
            48 -23 -32 33 -43 hhcurveto
            -97 -57 -146 -59 -53 23 -33 49 47 57 21 37 45 hvcurveto
            -2 -13 -1 -15 -13 vvcurveto
            -23 4 -19 11 25 2 34 107 21 vhcurveto
            28 145 64 93 26 vvcurveto
            11 -5 9 -14 vhcurveto
            -24 -6 -16 -104 76 callgsubr
            322 callgsubr
          </CharString>
          <CharString index="179">
            rmoveto
            27 -39 42 -34 -186 -220 -307 -188 -104 95 -78 95 109 153 107 32 7 -7 7 -5 vhcurveto
            -32 -77 -89 -139 hhcurveto
            -63 -65 40 77 200 234 235 106 hvcurveto
            35 18 -18 17 hhcurveto
            4 1 1 9 hvcurveto
            endchar
          </CharString>
          <CharString index="180">
            -61 -78 -72 -75 -79 hvcurveto
            52 -19 -48 78 -70 hhcurveto
            -107 -86 -184 -86 -36 53 -43 39 65 73 55 64 71 hvcurveto
            -64 34 58 -51 63 hhcurveto
            134 47 171 94 return
          </CharString>
          <CharString index="181">
            30 -15 callgsubr
            return
          </CharString>
          <CharString index="182">
            52 46 33 64 64 -11 callgsubr
            return
          </CharString>
          <CharString index="183">
            35 callsubr
            -92 -67 -39 -59 return
          </CharString>
          <CharString index="184">
            vvcurveto
            -58 56 -32 93 134 199 102 93 12 callgsubr
          </CharString>
          <CharString index="185">
            rmoveto
            172 callgsubr
            -105 78 16 -146 28 hhcurveto
            11 8 6 10 19 -13 49 -19 53 hvcurveto
            -1 4 4 0 5 hhcurveto
            19 15 6 11 13 hvcurveto
            19 31 42 11 32 79 33 -58 18 hhcurveto
            6 3 4 11 36 -68 55 -76 hvcurveto
            endchar
          </CharString>
          <CharString index="186">
            -18 -81 -14 -75 -18 -84 rrcurveto
            45 -23 -46 51 -60 hhcurveto
            return
          </CharString>
          <CharString index="187">
            rmoveto
            188 callgsubr
            42 28 23 34 38 36 -35 -50 -34 -8 -31 -13 -28 vhcurveto
            -19 4 -24 6 -24 14 307 callgsubr
            -11 -57 -13 -60 -13 -64 rrcurveto
            -110 -86 -148 -65 -136 hhcurveto
            128 80 94 122 121 vvcurveto
            85 -62 46 -62 -59 -50 -41 -68 -87 73 -59 71 -4 vhcurveto
            -67 -102 -127 -55 -26 vvcurveto
            -28 40 -33 29 118 130 49 83 94 vhcurveto
            return
          </CharString>
          <CharString index="188">
            69 callgsubr
            138 30 73 hvcurveto
            return
          </CharString>
          <CharString index="189">
            43 hvcurveto
            33 19 -37 17 hhcurveto
            7 7 8 8 14 -13 18 -17 13 hvcurveto
            return
          </CharString>
          <CharString index="190">
            rmoveto
            3 25 1 22 20 vvcurveto
            124 -65 116 -116 -202 -172 -268 -67 -10 10 -8 12 14 8 4 16 6 vhcurveto
            127 52 158 153 107 hhcurveto
            85 51 -85 -122 -14 -1 -16 -1 -17 hvcurveto
            -320 hlineto
            198 callgsubr
            endchar
          </CharString>
          <CharString index="191">
            rmoveto
            13 callsubr
            return
          </CharString>
          <CharString index="192">
            hlineto
            -99 callsubr
            hvcurveto
            return
          </CharString>
          <CharString index="193">
            -12 -54 callgsubr
            22 23 return
          </CharString>
          <CharString index="194">
            -104 callsubr
            132 hlineto
            -10 -91 -95 -274 -106 vvcurveto
            -71 33 -39 99 105 112 28 39 14 -9 6 -15 vhcurveto
            -39 -33 -34 -123 hhcurveto
            -54 -15 16 47 100 93 275 8 90 hvcurveto
            189 hlineto
            16 -22 26 -33 -66 vvcurveto
            -79 -52 -61 -86 -22 -6 -8 -13 -11 13 -12 29 96 84 70 112 50 -13 43 -19 30 vhcurveto
            126 -107 callgsubr
          </CharString>
          <CharString index="195">
            433 rmoveto
            -163 -34 -146 -113 -100 hhcurveto
            -34 -11 27 39 92 80 123 64 hvcurveto
            38 3 -47 24 hhcurveto
            10 5 7 16 33 -32 42 -38 -36 -33 -15 -25 -30 hvcurveto
            -64 -43 -89 -55 -90 -47 5 24 rcurveline
            -26 callsubr
            485 344 callgsubr
            rrcurveto
            -824 -196 rmoveto
            114 callgsubr
            44 25 -100 -53 18 vhcurveto
            -38 -80 -76 -27 -52 103 callsubr
            hvcurveto
            return
          </CharString>
          <CharString index="196">
            179 callgsubr
            52 hmoveto
            3 38 2 38 40 vvcurveto
            88 -11 103 -66 -94 -99 -221 -86 -22 vhcurveto
            -84 -42 callsubr
            314 67 callgsubr
            endchar
          </CharString>
          <CharString index="197">
            -27 vvcurveto
            77 callgsubr
            return
          </CharString>
          <CharString index="198">
            -106 callsubr
            73 hlineto
            -13 -72 -17 -76 -18 -81 -45 -2 -76 -10 return
          </CharString>
          <CharString index="199">
            79 8 75 5 48 7 -18 -87 -21 -86 57 callgsubr
            78 callgsubr
          </CharString>
          <CharString index="200">
            hlineto
            55 callsubr
            return
          </CharString>
          <CharString index="201">
            588 rmoveto
            7 5 0 1 6 hvcurveto
            -1 5 5 0 7 hhcurveto
            471 hlineto
            108 callsubr
            90 65 vvcurveto
            33 -39 45 -40 -77 -72 -19 -27 -117 vhcurveto
            -51 -12 -66 -12 -50 -14 34 43 26 53 2 73 rrcurveto
            63 -357 rmoveto
            -44 -90 -50 -106 -57 -36 15 44 69 58 44 57 56 vhcurveto
            48 -28 126 -24 -82 vvcurveto
            return
          </CharString>
          <CharString index="202">
            vvcurveto
            -35 28 -19 43 189 324 144 195 64 callsubr
          </CharString>
          <CharString index="203">
            hhcurveto
            95 99 69 75 22 hvcurveto
            9 hlineto
            75 hlineto
            -99 callsubr
            return
          </CharString>
          <CharString index="204">
            hhcurveto
            -34 -11 27 39 99 85 176 76 hvcurveto
            41 18 -82 28 hhcurveto
            10 5 7 16 33 -45 77 -47 return
          </CharString>
          <CharString index="205">
            vvcurveto
            33 -65 50 -21 -8 -2 -5 -11 -64 133 -186 73 -62 vhcurveto
            return
          </CharString>
          <CharString index="206">
            -24 11 180 callsubr
            return
          </CharString>
          <CharString index="207">
            153 callgsubr
            275 callsubr
            264 150 8 callsubr
            -77 -65 -71 -84 -37 hvcurveto
            -38 -67 -130 -76 -151 hhcurveto
            142 81 94 138 114 vvcurveto
            85 -65 46 -62 return
          </CharString>
          <CharString index="208">
            -13 -62 -14 -55 -8 -38 rrcurveto
            26 -21 -36 26 -37 hhcurveto
            -47 -57 -38 -34 -37 hvcurveto
            -64 -58 -61 -73 -19 vvcurveto
            -8 6 -6 11 21 58 76 55 62 vhcurveto
            32 36 42 25 32 hhcurveto
            29 33 -24 212 callgsubr
          </CharString>
          <CharString index="209">
            rmoveto
            -69 -90 -92 -59 -1 hvcurveto
            -13 8 -8 14 30 17 81 39 91 vhcurveto
            -86 59 44 -40 54 hhcurveto
            78 57 78 53 19 -6 8 -9 -33 -10 -96 -2 -73 hvcurveto
            2 -71 -22 116 -68 hhcurveto
            return
          </CharString>
          <CharString index="210">
            hhcurveto
            -25 -10 9 23 return
          </CharString>
          <CharString index="211">
            rmoveto
            -85 callgsubr
            62 32 50 hhcurveto
            36 return
          </CharString>
          <CharString index="212">
            277 -104 callsubr
            return
          </CharString>
          <CharString index="213">
            rrcurveto
            -78 -47 -111 -67 -17 vvcurveto
            -10 9 -7 10 return
          </CharString>
          <CharString index="214">
            -12 8 -17 14 16 41 180 141 35 vhcurveto
            24 97 34 179 54 vvcurveto
            13 -23 22 -16 -9 -1 -4 -9 -46 -34 -193 -24 -109 vhcurveto
            -31 -140 -34 -135 -21 vvcurveto
            return
          </CharString>
          <CharString index="215">
            113 callgsubr
            78 53 94 return
          </CharString>
          <CharString index="216">
            vvcurveto
            -59 64 -92 63 return
          </CharString>
          <CharString index="217">
            rmoveto
            41 92 103 77 45 -33 36 -36 -20 -16 -30 -15 hvcurveto
            -23 41 2 -30 -80 -84 -44 -30 vvcurveto
            -8 5 -3 10 vhcurveto
            endchar
          </CharString>
          <CharString index="218">
            139 callsubr
            148 -107 callsubr
            endchar
          </CharString>
          <CharString index="219">
            13 callsubr
            -28 -29 -21 -30 -24 vhcurveto
            1 -5 return
          </CharString>
          <CharString index="220">
            -25 -38 -41 -21 -66 hhcurveto
            -45 -12 59 66 72 19 91 27 66 hvcurveto
            return
          </CharString>
          <CharString index="221">
            -64 49 74 -75 111 hhcurveto
            92 102 27 73 92 hvcurveto
            -16 -72 -16 -65 -8 -36 rrcurveto
            15 -50 -40 2 -41 hhcurveto
            -123 -170 -60 -86 -57 66 -43 60 67 30 45 59 26 -5 31 -13 27 hvcurveto
            6 31 31 4 28 hhcurveto
            42 56 -2 -18 46 hvcurveto
            -2 3 4 -1 2 -67 callgsubr
            return
          </CharString>
          <CharString index="222">
            hlineto
            79 callsubr
            return
          </CharString>
          <CharString index="223">
            rmoveto
            -29 -17 -56 -63 -73 0 86 -25 hhcurveto
            -15 -17 -16 -26 -42 65 -53 54 64 75 54 34 13 -5 6 -14 hvcurveto
            endchar
          </CharString>
          <CharString index="224">
            hlineto
            154 callsubr
            return
          </CharString>
          <CharString index="225">
            126 callgsubr
            23 11 5 10 return
          </CharString>
          <CharString index="226">
            -14 vhcurveto
            14 -5 -7 8 -15 hhcurveto
            return
          </CharString>
          <CharString index="227">
            276 callgsubr
            vhcurveto
            -25 callgsubr
            return
          </CharString>
          <CharString index="228">
            hlineto
            -99 callsubr
            -50 -18 -41 -25 -35 hvcurveto
            -10 -34 -63 -41 -115 200 callsubr
            return
          </CharString>
          <CharString index="229">
            vvcurveto
            153 callsubr
            vhcurveto
            -71 callgsubr
            return
          </CharString>
          <CharString index="230">
            74 callsubr
            33 31 7 11 29 hvcurveto
            return
          </CharString>
          <CharString index="231" raw="1">
            52f7111d 0b  
          </CharString>
          <CharString index="232">
            -18 -18 -13 -19 -28 42 18 4 -40 return
          </CharString>
          <CharString index="233">
            124 -107 callgsubr
          </CharString>
          <CharString index="234">
            35 -141 26 152 vvcurveto
            66 70 27 100 82 53 -14 -10 33 vhcurveto
            -15 -42 -9 -43 -39 vvcurveto
            -98 callsubr
          </CharString>
          <CharString index="235">
            -104 callsubr
            314 hlineto
            return
          </CharString>
          <CharString index="236">
            70 270 408 rmoveto
            -2 hlineto
            -54 -80 24 31 35 124 66 291 callsubr
            -11 -61 -14 -65 -15 -68 rrcurveto
            -98 -61 -140 -95 -138 hhcurveto
            -10 -5 4 8 25 33 44 49 37 hvcurveto
            16 13 69 41 18 vvcurveto
            11 -6 6 -13 vhcurveto
            return
          </CharString>
          <CharString index="237">
            476 588 221 callgsubr
            -387 -42 callsubr
            return
          </CharString>
          <CharString index="238">
            588 97 callgsubr
            return
          </CharString>
          <CharString index="239">
            -253 114 -34 callsubr
            15 hlineto
            -15 -83 -21 -51 callsubr
            return
          </CharString>
          <CharString index="240">
            76 callsubr
            -29 12 return
          </CharString>
          <CharString index="241">
            vhcurveto
            148 -107 callgsubr
          </CharString>
          <CharString index="242">
            588 rmoveto
            291 callgsubr
            -44 -6 -62 -17 -112 137 callsubr
            223 -466 -69 callsubr
            return
          </CharString>
          <CharString index="243">
            vvcurveto
            25 -5 19 -8 13 vhcurveto
            147 -38 132 -130 -107 vvcurveto
            -75 -223 -199 -156 -7 vhcurveto
            return
          </CharString>
          <CharString index="244">
            -5 rrcurveto
            75 callsubr
            return
          </CharString>
          <CharString index="245">
            -20 -17 callgsubr
          </CharString>
          <CharString index="246">
            hhcurveto
            20 -13 60 93 16 hvcurveto
            -72 callsubr
            return
          </CharString>
          <CharString index="247">
            52 -21 38 -42 12 vhcurveto
            3 14 2 18 6 20 8 29 7 20 4 12 rrcurveto
            return
          </CharString>
          <CharString index="248">
            vvcurveto
            14 16 5 24 93 57 -51 -5 23 vhcurveto
            return
          </CharString>
          <CharString index="249">
            -26 callgsubr
            23 return
          </CharString>
          <CharString index="250">
            410 -104 callsubr
            return
          </CharString>
          <CharString index="251">
            -59 410 337 -51 callgsubr
            return
          </CharString>
          <CharString index="252">
            hhcurveto
            -2 0 hlineto
            -16 -17 1 -19 hhcurveto
            -169 -281 -23 -173 -119 120 -75 344 callsubr
            -147 26 108 vvcurveto
            return
          </CharString>
          <CharString index="253">
            rmoveto
            15 15 14 39 50 hvcurveto
            250 callgsubr
            308 callsubr
            vhcurveto
            return
          </CharString>
          <CharString index="254">
            rmoveto
            290 callsubr
            -77 193 -255 48 9 5 5 8 14 -34 32 -37 41 vhcurveto
            -9 12 -4 13 14 vvcurveto
            60 51 34 68 vhcurveto
            56 callgsubr
            hvcurveto
            endchar
          </CharString>
          <CharString index="255">
            99 66 206 -50 callsubr
            return
          </CharString>
          <CharString index="256">
            hlineto
            -10 -56 -13 -59 -13 -61 rrcurveto
            -39 -41 -62 -27 -63 -40 -30 22 -28 hhcurveto
            -12 -8 -6 -12 hvcurveto
            return
          </CharString>
          <CharString index="257">
            hhcurveto
            -134 -142 -20 -84 -76 102 -94 74 72 33 82 60 31 -1 31 -6 22 hvcurveto
            24 hlineto
            return
          </CharString>
          <CharString index="258">
            rmoveto
            -12 -11 -14 -18 244 callsubr
            hvcurveto
            return
          </CharString>
          <CharString index="259">
            435 rmoveto
            261 callgsubr
            -54 -65 -51 -62 -51 hvcurveto
            return
          </CharString>
          <CharString index="260">
            -42 48 -33 39 69 82 51 58 79 return
          </CharString>
          <CharString index="261">
            -22 -65 -18 -87 -75 vvcurveto
            return
          </CharString>
          <CharString index="262">
            3 0 3 4 vvcurveto
            67 -32 101 -79 -125 -150 -240 -130 -57 52 -58 63 40 54 29 41 50 vhcurveto
            -147 -46 -15 -131 -73 -100 -11 92 -33 hhcurveto
            -9 -9 -20 -11 -47 62 -63 103 139 -8 218 208 94 hvcurveto
            26 36 17 37 30 vvcurveto
            return
          </CharString>
          <CharString index="263">
            140 rmoveto
            -47 -73 -5 -16 -14 26 -26 27 233 callgsubr
            vhcurveto
            endchar
          </CharString>
          <CharString index="264">
            512 rmoveto
            -3 -15 -14 -58 -33 -60 -42 -48 rlinecurve
            -45 67 -66 112 -39 78 rrcurveto
            257 hlineto
            -5 -25 -5 -25 -5 -26 rrcurveto
            -285 -153 rmoveto
            58 7 55 12 50 vhcurveto
            39 -73 62 -90 45 -56 rrcurveto
            -36 -38 -43 -23 -39 hhcurveto
            -25 -20 41 74 hvcurveto
            return
          </CharString>
          <CharString index="265">
            hlineto
            -1 -4 -25 -116 -14 -77 -19 -84 rlinecurve
            102 -19 -37 100 -69 hhcurveto
            return
          </CharString>
          <CharString index="266">
            rmoveto
            49 9 58 14 52 vhcurveto
            49 -81 86 -106 48 -55 rrcurveto
            return
          </CharString>
          <CharString index="267">
            rmoveto
            -24 -9 -21 -27 -33 -40 22 25 26 37 20 53 15 vhcurveto
            10 -13 9 -27 -23 vvcurveto
            return
          </CharString>
          <CharString index="268">
            -104 callsubr
            31 hlineto
            return
          </CharString>
          <CharString index="269">
            -104 callsubr
            59 hlineto
            return
          </CharString>
          <CharString index="270">
            rmoveto
            266 callsubr
            hvcurveto
            30 -159 113 109 vvcurveto
            33 -65 50 -21 vhcurveto
            return
          </CharString>
          <CharString index="271">
            rcurveline
            -106 callgsubr
            return
          </CharString>
          <CharString index="272">
            -20 -86 -16 175 callgsubr
            return
          </CharString>
          <CharString index="273">
            -17 -18 -13 -19 -28 41 18 5 -40 hvcurveto
            -4 -45 -82 -33 -24 vvcurveto
            -8 6 -2 10 return
          </CharString>
          <CharString index="274">
            528 110 49 callsubr
            return
          </CharString>
          <CharString index="275">
            588 rmoveto
            190 callgsubr
            return
          </CharString>
          <CharString index="276">
            rmoveto
            -1 -9 -1 -12 -13 vvcurveto
            -1 -54 -3 -70 -8 -66 return
          </CharString>
          <CharString index="277">
            40 43 -56 -43 -39 -48 -30 -91 return
          </CharString>
          <CharString index="278">
            30 callsubr
            -76 -63 -68 -81 -37 hvcurveto
            -44 -1 -83 -2 -75 -8 rrcurveto
            328 callsubr
            return
          </CharString>
          <CharString index="279">
            417 343 rmoveto
            189 callsubr
            return
          </CharString>
          <CharString index="280">
            rmoveto
            -27 47 -40 24 8 10 9 5 26 -29 76 -21 -18 -21 -29 -20 vhcurveto
            endchar
          </CharString>
          <CharString index="281">
            125 289 372 rmoveto
            10 75 3 78 56 301 callgsubr
            -152 -205 rmoveto
            -32 -53 38 39 37 66 18 88 15 hvcurveto
            -83 -13 -22 -64 -34 hhcurveto
            return
          </CharString>
          <CharString index="282">
            -65 -54 -66 -85 -65 95 callsubr
          </CharString>
          <CharString index="283">
            -44 callsubr
            -105 -150 -196 -91 213 callgsubr
            hvcurveto
            return
          </CharString>
          <CharString index="284">
            rmoveto
            -29 -25 21 31 100 131 215 90 38 9 -51 -54 9 hvcurveto
            3 -17 4 -13 5 -8 rrcurveto
            -135 -51 return
          </CharString>
          <CharString index="285">
            -1 rrcurveto
            47 21 -22 -53 142 callgsubr
            4 -7 -7 3 -6 287 callgsubr
            return
          </CharString>
          <CharString index="286">
            217 callgsubr
            -104 80 return
          </CharString>
          <CharString index="287">
            -30 hhcurveto
            -12 -8 -10 -12 hvcurveto
            return
          </CharString>
          <CharString index="288">
            95 callgsubr
            113 37 vhcurveto
            return
          </CharString>
          <CharString index="289">
            hlineto
            -15 -37 -11 -57 -39 vvcurveto
            -12 vlineto
            15 -20 -23 11 -20 282 callgsubr
            return
          </CharString>
          <CharString index="290">
            -246 187 callsubr
            -109 -50 18 vhcurveto
            -34 -77 -77 -25 -56 103 callsubr
            hvcurveto
            return
          </CharString>
          <CharString index="291">
            788 rmoveto
            32 52 63 36 70 hvcurveto
            -45 35 34 -64 33 hhcurveto
            14 9 6 11 18 -32 38 -35 42 hvcurveto
            31 -26 -9 15 -26 hhcurveto
            -19 -42 -29 -27 -47 hvcurveto
            -49 -28 -19 -18 -26 vvcurveto
            -16 14 -7 11 vhcurveto
            return
          </CharString>
          <CharString index="292">
            30 9 11 10 5 27 -35 330 callsubr
            return
          </CharString>
          <CharString index="293">
            136 -107 callsubr
            return
          </CharString>
          <CharString index="294">
            rmoveto
            114 callgsubr
            45 26 return
          </CharString>
          <CharString index="295">
            680 -39 callsubr
            return
          </CharString>
          <CharString index="296">
            305 callsubr
            9 3 5 5 6 vvcurveto
            20 -25 10 -49 vhcurveto
            -146 245 callgsubr
            -33 22 hvcurveto
            63 56 -1 55 hhcurveto
            -64 -37 -51 -59 -59 vvcurveto
            -60 38 -36 77 return
          </CharString>
          <CharString index="297">
            71 160 37 callgsubr
            return
          </CharString>
          <CharString index="298">
            hhcurveto
            -47 -71 -33 -39 -68 hvcurveto
            298 callgsubr
            return
          </CharString>
          <CharString index="299">
            398 rmoveto
            22 11 -18 -32 -68 -64 -65 -88 -49 hvcurveto
            127 29 35 105 55 hhcurveto
            -247 -629 rmoveto
            -18 -55 -53 -13 -42 hhcurveto
            -57 -62 3 33 38 87 70 56 52 47 -50 -57 29 hvcurveto
            return
          </CharString>
          <CharString index="300">
            133 callsubr
            -24 21 -22 hvcurveto
            return
          </CharString>
          <CharString index="301">
            rmoveto
            -36 -44 42 32 37 75 6 99 10 hvcurveto
            -72 -25 -35 -55 -34 hhcurveto
            return
          </CharString>
          <CharString index="302">
            -106 callsubr
            102 hlineto
            -12 -54 -10 -50 -11 -53 return
          </CharString>
          <CharString index="303">
            188 callgsubr
            44 28 21 31 return
          </CharString>
          <CharString index="304">
            235 callgsubr
            -9 -11 -2 -4 -12 hvcurveto
            -74 -20 -152 -40 -107 -27 rrcurveto
            20 34 12 38 38 -11 callgsubr
            457 hlineto
            -19 -27 -15 -49 -52 vvcurveto
            return
          </CharString>
          <CharString index="305">
            vvcurveto
            201 callsubr
            return
          </CharString>
          <CharString index="306">
            rmoveto
            -11 -4 -10 -15 -103 110 -52 95 238 callsubr
            vhcurveto
            endchar
          </CharString>
          <CharString index="307">
            -37 207 callgsubr
            return
          </CharString>
          <CharString index="308">
            184 callgsubr
            -32 callgsubr
            vhcurveto
            5 callsubr
            return
          </CharString>
          <CharString index="309">
            rrcurveto
            186 callsubr
            return
          </CharString>
          <CharString index="310">
            hlineto
            -4 -21 -4 -27 -7 -22 -7 -22 -6 -16 -5 -12 return
          </CharString>
          <CharString index="311">
            -46 62 -91 144 -47 90 return
          </CharString>
          <CharString index="312">
            67 74 47 80 59 return
          </CharString>
          <CharString index="313">
            rmoveto
            -33 -40 58 41 return
          </CharString>
          <CharString index="314">
            rrcurveto
            113 callsubr
            -142 48 43 callsubr
            24 -84 83 return
          </CharString>
          <CharString index="315">
            -78 118 -24 115 58 callsubr
            return
          </CharString>
          <CharString index="316">
            -15 -54 callgsubr
            return
          </CharString>
          <CharString index="317">
            85 callgsubr
            94 22 vhcurveto
            137 55 131 68 24 vvcurveto
            12 -6 3 -11 -15 -106 -56 -50 -118 vhcurveto
            19 84 21 92 30 136 4 32 rlinecurve
            return
          </CharString>
          <CharString index="318">
            178 callgsubr
            118 -107 callsubr
            endchar
          </CharString>
          <CharString index="319">
            rmoveto
            -60 -137 -86 -113 -54 -37 12 28 74 154 123 90 51 46 -50 -41 vhcurveto
            return
          </CharString>
          <CharString index="320">
            -11 -17 -59 75 -64 112 105 68 60 70 hvcurveto
            125 -255 -10 39 vvcurveto
            33 118 41 39 vhcurveto
            33 24 -17 17 hhcurveto
            18 9 11 25 79 10 28 5 23 hvcurveto
            return
          </CharString>
          <CharString index="321">
            230 callsubr
            41 20 31 88 hvcurveto
            return
          </CharString>
          <CharString index="322">
            vvcurveto
            -51 64 -45 60 58 22 48 46 27 -8 27 -13 16 vhcurveto
            return
          </CharString>
          <CharString index="323">
            -12 -11 -14 -18 302 callgsubr
            return
          </CharString>
          <CharString index="324">
            209 callsubr
            26 return
          </CharString>
          <CharString index="325">
            vvcurveto
            65 -17 93 -88 return
          </CharString>
          <CharString index="326">
            -58 -29 -59 -49 -54 33 -61 57 62 60 return
          </CharString>
          <CharString index="327">
            hmoveto
            -106 callsubr
            return
          </CharString>
          <CharString index="328">
            -379 -72 callgsubr
            -202 427 -104 callsubr
            return
          </CharString>
          <CharString index="329">
            -254 -83 callsubr
            return
          </CharString>
          <CharString index="330">
            12 -8 8 -18 -38 -94 -2 -9 -83 vhcurveto
            308 callgsubr
            return
          </CharString>
          <CharString index="331">
            246 callsubr
            132 13 122 0 23 vvcurveto
            return
          </CharString>
          <CharString index="332">
            -14 -10 -7 -16 hvcurveto
            -25 callgsubr
            return
          </CharString>
          <CharString index="333">
            -104 callsubr
            331 60 callsubr
            -84 -203 -181 -103 -54 57 return
          </CharString>
          <CharString index="334">
            hhcurveto
            -57 -37 7 60 hvcurveto
            7 2 8 9 vvcurveto
            10 -25 21 -14 -9 -3 -10 -15 return
          </CharString>
          <CharString index="335">
            -36 -11 -9 -14 hvcurveto
            40 -13 -28 33 -52 hhcurveto
            return
          </CharString>
          <CharString index="336">
            vvcurveto
            -20 5 -7 7 18 21 90 94 18 vhcurveto
            return
          </CharString>
          <CharString index="337">
            -23 -7 -21 -42 hhcurveto
            -56 -35 65 93 108 81 92 90 53 19 -54 -40 hvcurveto
            -53 -15 -14 -27 vvcurveto
            -11 6 -9 11 vhcurveto
            156 callgsubr
            22 return
          </CharString>
          <CharString index="338">
            15 callsubr
            -148 -440 rmoveto
            -32 -44 58 39 41 68 18 85 8 hvcurveto
            -91 -15 -24 -73 -38 hhcurveto
            return
          </CharString>
          <CharString index="339">
            226 277 rmoveto
            136 27 20 4 16 vvcurveto
            13 -20 7 -32 -55 -220 -31 -29 -12 21 -19 15 21 37 9 15 77 vhcurveto
            endchar
          </CharString>
          <CharString index="340">
            rmoveto
            -28 48 -50 185 callsubr
            -20 vhcurveto
            return
          </CharString>
          <CharString index="341">
            hhcurveto
            140 92 111 181 114 vvcurveto
            12 -1 return
          </CharString>
          <CharString index="342">
            -49 -60 -62 -42 -12 7 -9 15 return
          </CharString>
          <CharString index="343">
            53 -84 74 callgsubr
            return
          </CharString>
          <CharString index="344">
            77 callgsubr
            22 vhcurveto
            303 callsubr
            rrcurveto
            -130 -14 -126 -3 -75 139 callgsubr
            return
          </CharString>
          <CharString index="345">
            180 callgsubr
            hvcurveto
            -29 41 -114 -179 hhcurveto
            -85 -73 43 58 hvcurveto
            7 3 1 8 vvcurveto
            10 -21 12 -18 return
          </CharString>
          <CharString index="346">
            -1 -4 -97 callsubr
            return
          </CharString>
          <CharString index="347">
            73 hvcurveto
            33 5 -39 17 hhcurveto
            7 7 8 8 14 -8 19 -13 14 hvcurveto
            return
          </CharString>
          <CharString index="348">
            -92 -48 24 43 74 122 152 76 return
          </CharString>
          <CharString index="349">
            -65 -54 -66 -85 -65 vvcurveto
            -35 28 -19 43 return
          </CharString>
          <CharString index="350">
            hlineto
            -12 -44 -10 -78 -25 -100 rrcurveto
            76 -29 -45 72 -49 hhcurveto
            -107 -77 -161 -90 -65 26 -35 64 65 65 17 44 57 hvcurveto
            -9 return
          </CharString>
          <CharString index="351">
            302 callgsubr
            280 callgsubr
            return
          </CharString>
          <CharString index="352">
            139 -107 callsubr
            return
          </CharString>
          <CharString index="353">
            139 callgsubr
            299 callsubr
            return
          </CharString>
          <CharString index="354">
            -48 -46 -43 -55 -40 vvcurveto
            return
          </CharString>
          <CharString index="355">
            25 callgsubr
            -56 hmoveto
            return
          </CharString>
          <CharString index="356">
            588 rmoveto
            55 callsubr
            return
          </CharString>
          <CharString index="357">
            vvcurveto
            -8 4 -5 10 return
          </CharString>
          <CharString index="358">
            vvcurveto
            -11 14 -7 11 return
          </CharString>
          <CharString index="359">
            -42 callsubr
            endchar
          </CharString>
          <CharString index="360">
            8 8 9 8 return
          </CharString>
          <CharString index="361">
            hlineto
            -7 -15 -3 -17 -17 209 callgsubr
            -63 -25 55 -31 hhcurveto
            return
          </CharString>
          <CharString index="362">
            -14 vvcurveto
            -22 20 -19 13 15 38 146 117 30 vhcurveto
            60 233 25 170 32 vvcurveto
            33 -25 34 -17 vhcurveto
            return
          </CharString>
          <CharString index="363">
            hhcurveto
            -123 -97 -31 -105 -100 115 -98 47 15 6 6 10 hvcurveto
            25 -129 47 109 vvcurveto
            64 63 25 107 return
          </CharString>
          <CharString index="364">
            95 61 78 14 28 10 -10 8 -21 vhcurveto
            -37 -13 -13 -61 hhcurveto
            return
          </CharString>
          <CharString index="365">
            hhcurveto
            -41 -16 79 66 72 19 91 27 66 hvcurveto
            return
          </CharString>
          <CharString index="366">
            4 -31 hhcurveto
            -13 -8 -2 -7 -11 26 return
          </CharString>
          <CharString index="367">
            vvcurveto
            43 -22 29 -49 -66 return
          </CharString>
          <CharString index="368">
            hhcurveto
            -46 -25 13 33 return
          </CharString>
          <CharString index="369">
            -42 callgsubr
            -72 -61 -62 -76 -38 hvcurveto
            19 -44 -79 13 -77 hhcurveto
            return
          </CharString>
          <CharString index="370">
            319 151 callgsubr
            return
          </CharString>
          <CharString index="371">
            14 -19 -22 11 -15 hhcurveto
            -54 -103 -74 -81 -66 hvcurveto
            -6 -6 -6 -6 -7 -6 -49 66 -95 133 -46 86 return
          </CharString>
          <CharString index="372">
            122 -58 callsubr
            return
          </CharString>
          <CharString index="373">
            -8 -2 -5 -11 -77 193 -255 48 9 5 5 8 return
          </CharString>
          <CharString index="374">
            -254 -1 636 179 callgsubr
            return
          </CharString>
          <CharString index="375">
            hhcurveto
            -10 -8 4 8 17 25 28 38 33 hvcurveto
            36 31 50 22 17 15 rrcurveto
            3 2 2 3 3 vvcurveto
            return
          </CharString>
          <CharString index="376">
            -225 37 callgsubr
            return
          </CharString>
          <CharString index="377">
            134 callgsubr
            hvcurveto
            return
          </CharString>
          <CharString index="378">
            hlineto
            -11 -26 -7 -27 90 callsubr
            21 vhcurveto
            -5 -30 -6 -30 -9 -30 return
          </CharString>
          <CharString index="379">
            584 rmoveto
            -25 -116 -14 -77 -19 -84 rrcurveto
            102 -19 -37 100 -69 hhcurveto
            -75 -74 -75 -90 -45 hvcurveto
            return
          </CharString>
          <CharString index="380">
            hlineto
            -99 callsubr
            -114 return
          </CharString>
          <CharString index="381">
            vvcurveto
            -31 22 -28 48 75 82 18 30 76 vhcurveto
            -11 -63 return
          </CharString>
          <CharString index="382">
            -35 -7 -31 -11 -28 vhcurveto
            299 callgsubr
            return
          </CharString>
          <CharString index="383">
            -19 28 -17 47 -36 return
          </CharString>
          <CharString index="384">
            -63 30 -52 70 132 128 89 66 11 -4 13 -7 13 vhcurveto
            -1 10 293 callgsubr
            return
          </CharString>
          <CharString index="385">
            hlineto
            -61 callsubr
            -99 return
          </CharString>
          <CharString index="386">
            57 -53 89 -33 return
          </CharString>
          <CharString index="387">
            439 rmoveto
            -47 callgsubr
            return
          </CharString>
          <CharString index="388">
            rmoveto
            -29 -7 6 30 60 52 95 49 35 27 -40 -71 22 hvcurveto
            -50 -42 -65 -30 -42 hhcurveto
            return
          </CharString>
          <CharString index="389">
            vvcurveto
            -38 25 -15 43 103 132 56 81 82 vhcurveto
            return
          </CharString>
          <CharString index="390">
            471 -104 callsubr
            return
          </CharString>
          <CharString index="391">
            vvcurveto
            67 -45 36 -58 -92 -67 -62 -82 return
          </CharString>
          <CharString index="392">
            vvcurveto
            -63 66 -56 66 66 25 59 75 return
          </CharString>
          <CharString index="393">
            -4 0 -3 -4 vvcurveto
            return
          </CharString>
          <CharString index="394">
            9 4 7 12 return
          </CharString>
          <CharString index="395">
            125 callsubr
            hvcurveto
            -3 -45 -82 -33 -24 vvcurveto
            -8 5 -2 10 return
          </CharString>
          <CharString index="396">
            -30 -33 -30 -22 -11 6 -9 9 hvcurveto
            19 13 17 18 hhcurveto
            11 13 -7 -11 13 hvcurveto
            return
          </CharString>
          <CharString index="397">
            -85 -60 -43 -64 -13 hvcurveto
            -18 29 -13 31 31 vvcurveto
            33 -65 50 -21 -8 -2 -5 -11 return
          </CharString>
          <CharString index="398">
            82 callsubr
            163 hlineto
            return
          </CharString>
          <CharString index="399">
            vlineto
            297 callsubr
            -37 hvcurveto
            endchar
          </CharString>
          <CharString index="400">
            199 195 callgsubr
            return
          </CharString>
          <CharString index="401">
            226 rmoveto
            31 20 -31 -18 -47 -91 -23 -96 -2 hvcurveto
            57 36 53 64 47 hhcurveto
            return
          </CharString>
          <CharString index="402">
            vvcurveto
            37 -9 31 -19 21 vhcurveto
            239 hlineto
            -6 -34 -8 -35 -7 -37 -38 -129 return
          </CharString>
          <CharString index="403" raw="1">
            85230a0b   
          </CharString>
          <CharString index="404">
            37 317 callsubr
            return
          </CharString>
          <CharString index="405">
            vvcurveto
            42 -13 35 -29 21 vhcurveto
            return
          </CharString>
          <CharString index="406">
            113 37 vhcurveto
            return
          </CharString>
          <CharString index="407">
            57 39 hvcurveto
            21 14 24 18 13 vvcurveto
            11 -6 6 -13 vhcurveto
            263 callgsubr
            return
          </CharString>
          <CharString index="408">
            -67 -17 vvcurveto
            -10 9 -7 10 11 return
          </CharString>
          <CharString index="409">
            63 -11 callgsubr
            return
          </CharString>
          <CharString index="410">
            -5 -33 -8 -32 -9 -31 return
          </CharString>
          <CharString index="411">
            hhcurveto
            36 16 -18 -39 hvcurveto
            return
          </CharString>
          <CharString index="412">
            0 vlineto
            0 vlineto
            return
          </CharString>
          <CharString index="413">
            vvcurveto
            52 -69 79 -103 -86 -48 -49 -60 -65 65 -55 85 vhcurveto
            4 hlineto
            -32 return
          </CharString>
          <CharString index="414">
            -34 hvcurveto
            -48 -17 -27 -20 vvcurveto
            -12 5 -9 8 19 31 59 58 64 -32 return
          </CharString>
          <CharString index="415">
            -44 -47 -21 -16 -19 vvcurveto
            -12 10 -7 9 return
          </CharString>
          <CharString index="416">
            -54 1 -56 15 callsubr
            return
          </CharString>
          <CharString index="417">
            -24 -42 hhcurveto
            -25 -11 13 27 hvcurveto
            77 153 144 23 vvcurveto
            13 return
          </CharString>
          <CharString index="418">
            206 160 146 198 145 -97 111 -160 return
          </CharString>
          <CharString index="419">
            -180 -177 -168 -183 -139 85 -110 163 return
          </CharString>
          <CharString index="420">
            -54 170 callgsubr
            return
          </CharString>
          <CharString index="421">
            rmoveto
            63 57 35 53 42 15 -25 -30 return
          </CharString>
          <CharString index="422">
            304 callgsubr
            -90 return
          </CharString>
          <CharString index="423">
            22 45 vvcurveto
            9 -7 3 -13 return
          </CharString>
          <CharString index="424">
            10 9 15 15 -10 9 return
          </CharString>
          <CharString index="425">
            17 89 16 87 12 72 rrcurveto
            160 12 30 5 14 vvcurveto
            return
          </CharString>
          <CharString index="426">
            -103 -141 0 -7 -108 hvcurveto
            -4 -4 0 -1 -5 hvcurveto
            return
          </CharString>
          <CharString index="427">
            -90 77 -59 73 -1 vhcurveto
            -66 -116 -136 -56 -27 vvcurveto
            return
          </CharString>
          <CharString index="428">
            8 5 11 11 vvcurveto
            75 -220 106 -69 1 vhcurveto
            endchar
          </CharString>
          <CharString index="429">
            337 callgsubr
            endchar
          </CharString>
          <CharString index="430">
            hhcurveto
            -41 -39 -12 -20 -30 64 28 117 -34 hvcurveto
            87 return
          </CharString>
          <CharString index="431">
            rmoveto
            109 41 30 13 15 vvcurveto
            9 -5 4 -11 -14 return
          </CharString>
          <CharString index="432">
            -104 callsubr
            197 hlineto
            return
          </CharString>
          <CharString index="433">
            23 -34 38 -41 35 -34 rrcurveto
            -12 -17 -21 -7 -23 hhcurveto
            return
          </CharString>
          <CharString index="434">
            441 228 callgsubr
            return
          </CharString>
          <CharString index="435">
            308 callgsubr
            -28 -29 -20 return
          </CharString>
          <CharString index="436">
            -63 30 -52 70 140 110 return
          </CharString>
          <CharString index="437">
            86 -22 -19 -22 -30 return
          </CharString>
          <CharString index="438">
            -8 4 -5 10 21 return
          </CharString>
          <CharString index="439">
            399 -104 callsubr
            return
          </CharString>
          <CharString index="440">
            2 -11 hhcurveto
            -15 -10 -5 -13 -21 26 -25 28 hvcurveto
            return
          </CharString>
          <CharString index="441">
            -434 -42 callsubr
            return
          </CharString>
          <CharString index="442">
            298 -104 callsubr
            return
          </CharString>
          <CharString index="443">
            -17 -18 -22 -19 -24 41 -41 27 253 callsubr
            return
          </CharString>
          <CharString index="444">
            hhcurveto
            -41 -16 79 66 hvcurveto
            return
          </CharString>
          <CharString index="445">
            -40 vvcurveto
            -65 26 -51 64 return
          </CharString>
          <CharString index="446">
            hlineto
            -13 -71 -17 -76 -17 return
          </CharString>
          <CharString index="447">
            39 -34 85 -70 return
          </CharString>
          <CharString index="448">
            vvcurveto
            48 66 26 88 43 42 -4 -6 33 vhcurveto
            return
          </CharString>
          <CharString index="449">
            hlineto
            -54 -60 -41 -76 -63 vvcurveto
            return
          </CharString>
          <CharString index="450" raw="1">
            f76e0a6f 6e0b  
          </CharString>
          <CharString index="451">
            270 callsubr
            35 return
          </CharString>
          <CharString index="452">
            vvcurveto
            -22 32 -27 25 return
          </CharString>
          <CharString index="453">
            vvcurveto
            -21 21 -22 13 return
          </CharString>
          <CharString index="454">
            0 -7 -9 vvcurveto
            return
          </CharString>
          <CharString index="455">
            588 rmoveto
            -4 return
          </CharString>
          <CharString index="456">
            -48 66 -96 133 -46 86 1 3 rcurveline
            return
          </CharString>
          <CharString index="457">
            42 -33 25 -14 rrcurveto
            -162 -30 -208 return
          </CharString>
          <CharString index="458" raw="1">
            72f80df7 5bf21d0b  
          </CharString>
        <CharString name=".notdef">
          239 180 hmoveto
          390 701 -390 hlineto
          54 -50 rmoveto
          282 -601 -282 hlineto
          endchar
        </CharString>
        <CharString name="A">
          85 215 324 -94 callsubr
        </CharString>
        <CharString name="AE">
          283 407 364 rmoveto
          -85 -11 -85 -12 -52 -11 62 144 55 132 13 14 11 12 54 5 83 2 rrcurveto
          -83 -27 -99 -29 -93 vhcurveto
          -239 -82 rmoveto
          21 50 13 14 121 hvcurveto
          31 4 rlineto
          -28 -90 -26 -80 -52 256 callgsubr
          31 28 87 29 98 hvcurveto
          166 19 82 11 15 vvcurveto
          14 -9 10 -25 -33 -79 -7 -10 -87 vhcurveto
          27 93 24 95 61 vvcurveto
          7 0 6 -1 6 vhcurveto
          52 hlineto
          155 46 11 15 15 -26 7 -239 -127 -106 -8 -48 -23 hvcurveto
          -20 -43 -52 -124 -47 -115 rrcurveto
          -63 -158 -61 -122 -20 vvcurveto
          -22 8 -16 19 21 47 129 141 60 vhcurveto
          endchar
        </CharString>
        <CharString name="Aacute">
          85 392 780 146 callsubr
          -177 -456 -94 callsubr
        </CharString>
        <CharString name="Abreve">
          85 412 788 rmoveto
          64 75 54 34 13 -5 6 -14 hvcurveto
          -29 -17 -56 -63 -73 0 86 -25 hhcurveto
          -15 -17 -16 -26 -42 65 -53 54 hvcurveto
          -197 -464 -94 callsubr
        </CharString>
        <CharString name="Acircumflex">
          85 254 184 callsubr
          -39 -464 -94 callsubr
        </CharString>
        <CharString name="Adieresis">
          85 488 799 rmoveto
          253 callsubr
          -10 callsubr
          hvcurveto
          -136 hmoveto
          253 callsubr
          -10 callsubr
          hvcurveto
          -137 -475 -94 callsubr
        </CharString>
        <CharString name="Agrave">
          85 343 831 rmoveto
          -3 callgsubr
          276 callsubr
          hvcurveto
          -128 -507 -94 callsubr
        </CharString>
        <CharString name="Amacron">
          85 267 794 rmoveto
          24 36 6 6 73 hvcurveto
          63 callgsubr
          vhcurveto
          -52 -470 -94 callsubr
        </CharString>
        <CharString name="Aogonek">
          85 215 324 rmoveto
          38 93 47 110 54 118 20 -82 14 -92 11 -102 -57 -12 -67 -17 -60 -16 rrcurveto
          -69 -21 rmoveto
          -58 -18 -40 -17 -11 vvcurveto
          -21 20 -4 20 6 10 2 3 14 vhcurveto
          -40 -93 -31 -74 -5 vvcurveto
          -26 16 -22 16 13 36 93 146 59 vhcurveto
          29 7 36 11 46 12 106 28 rcurveline
          6 -68 5 -73 4 -77 2 -32 4 -22 7 -13 rrcurveto
          -45 -14 -76 -85 -54 vvcurveto
          68 callgsubr
          hvcurveto
          55 99 31 44 vvcurveto
          5 -1 3 -2 3 vhcurveto
          9 15 4 36 48 vvcurveto
          40 -4 79 -9 88 vhcurveto
          55 16 35 12 11 vvcurveto
          16 -13 5 -16 -12 -23 -3 -6 -31 vhcurveto
          165 -18 -32 176 -41 hhcurveto
          -35 -12 -23 -37 -18 hvcurveto
          -20 -40 -54 -122 -50 -120 rrcurveto
          endchar
        </CharString>
        <CharString name="Aring">
          85 411 899 215 callgsubr
          -181 -440 -94 callsubr
        </CharString>
        <CharString name="Atilde">
          85 275 783 rmoveto
          41 callsubr
          235 callsubr
          hvcurveto
          -60 -459 -94 callsubr
        </CharString>
        <CharString name="B">
          133 137 76 rmoveto
          11 13 16 40 23 80 14 51 15 53 14 51 rrcurveto
          -13 5 21 -14 20 hhcurveto
          107 131 -33 -50 -92 -185 -86 -183 hvcurveto
          205 569 rmoveto
          83 73 -35 -54 -77 -110 -36 -80 -26 hvcurveto
          -35 -11 -33 -9 -14 -13 rrcurveto
          26 99 19 85 24 vvcurveto
          13 -12 21 -13 12 vhcurveto
          3 27 29 4 40 hhcurveto
          9 -267 rmoveto
          -7 -9 0 -8 hhcurveto
          166 31 69 65 85 vvcurveto
          85 -90 59 -193 -77 -62 -16 -15 -13 21 -26 23 vhcurveto
          10 9 1 10 hhcurveto
          -1 -2 0 -4 -3 -181 -117 -273 -44 vvcurveto
          -20 7 -20 9 -9 vhcurveto
          8 -65 -21 39 -16 hhcurveto
          -5 -6 -5 -14 -38 58 -46 100 220 195 111 117 65 -86 63 -134 hvcurveto
          endchar
        </CharString>
        <CharString name="C">
          78 560 633 72 callsubr
        </CharString>
        <CharString name="CR">
          endchar
        </CharString>
        <CharString name="Cacute">
          204 577 881 rmoveto
          -62 callsubr
          181 callgsubr
          vhcurveto
          -17 -248 72 callsubr
        </CharString>
        <CharString name="Ccaron">
          215 672 931 -53 callsubr
          -112 -298 72 callsubr
        </CharString>
        <CharString name="Ccedilla">
          78 240 -36 rmoveto
          14 24 9 22 4 15 rrcurveto
          4 hlineto
          109 153 107 32 7 -7 7 -5 hvcurveto
          -32 -77 -89 -139 hhcurveto
          -63 -65 40 77 200 234 235 106 hvcurveto
          35 18 -18 17 hhcurveto
          4 1 1 9 27 -39 42 -34 -186 -220 -307 -188 -84 63 -68 74 -22 hvcurveto
          -14 -40 -23 -35 -18 38 callgsubr
          endchar
        </CharString>
        <CharString name="D">
          92 callgsubr
          endchar
        </CharString>
        <CharString name="Dcaron">
          92 callgsubr
          440 174 -53 callsubr
          endchar
        </CharString>
        <CharString name="Dcroat">
          92 201 278 rmoveto
          73 8 54 5 17 vvcurveto
          18 -26 11 -36 -4 -21 -2 -3 -25 vhcurveto
          36 131 21 73 40 136 callsubr
          6 53 14 75 15 51 rrcurveto
          -55 68 rmoveto
          -83 -9 -54 -7 -23 vvcurveto
          -14 15 -10 26 6 25 3 7 62 vhcurveto
          -20 -76 -17 -67 -31 161 callgsubr
          -12 -8 -5 -13 -17 19 -19 40 -11 vhcurveto
          -1 -5 0 -8 -10 vvcurveto
          -59 -33 -122 -31 -113 vhcurveto
          endchar
        </CharString>
        <CharString name="E">
          93 268 631 -84 callgsubr
        </CharString>
        <CharString name="Eacute">
          93 444 780 146 callsubr
          -176 -149 -84 callgsubr
        </CharString>
        <CharString name="Ecaron">
          93 432 770 121 callgsubr
          -164 -139 -84 callgsubr
        </CharString>
        <CharString name="Ecircumflex">
          93 306 184 callsubr
          -38 -157 -84 callgsubr
        </CharString>
        <CharString name="Edieresis">
          93 540 799 rmoveto
          253 callsubr
          -10 callsubr
          hvcurveto
          -136 hmoveto
          253 callsubr
          -10 callsubr
          hvcurveto
          -136 -168 -84 callgsubr
        </CharString>
        <CharString name="Edotaccent">
          93 468 790 rmoveto
          8 10 9 5 26 -29 76 -21 -18 -21 -29 -20 -27 47 -40 24 hvcurveto
          -200 -159 -84 callgsubr
        </CharString>
        <CharString name="Egrave">
          93 395 831 rmoveto
          -3 callgsubr
          276 callsubr
          hvcurveto
          -127 -200 -84 callgsubr
        </CharString>
        <CharString name="Emacron">
          93 319 794 rmoveto
          24 36 6 6 73 hvcurveto
          63 callgsubr
          vhcurveto
          -51 -163 -84 callgsubr
        </CharString>
        <CharString name="Eogonek">
          93 497 125 rmoveto
          -1 hlineto
          -1 hlineto
          -4 -5 -1 -1 -4 hvcurveto
          -11 -46 -117 -40 -141 hhcurveto
          -18 -15 11 21 33 32 98 31 106 hvcurveto
          -1 3 4 0 3 hhcurveto
          134 134 12 40 7 -13 2 -24 hvcurveto
          -67 -31 -10 -97 -13 347 callgsubr
          24 86 21 86 57 vvcurveto
          10 vlineto
          29 3 42 8 55 4 rrcurveto
          141 11 77 2 23 vvcurveto
          14 -67 5 -125 -114 -54 -11 -11 -23 vhcurveto
          -5 -2 -4 -3 -4 -5 -1 -1 0 -1 -1 -1 rrcurveto
          -3 -6 -2 -8 -11 -181 -126 -254 -115 vvcurveto
          -43 51 -36 61 61 75 14 18 61 vhcurveto
          -18 -25 -12 -27 -22 vvcurveto
          68 callgsubr
          hvcurveto
          55 99 31 44 vvcurveto
          12 -8 5 -10 1 vhcurveto
          endchar
        </CharString>
        <CharString name="Eth">
          92 203 279 rmoveto
          36 5 35 6 21 7 rrcurveto
          14 4 8 5 5 vvcurveto
          15 -30 7 -20 -10 -18 -1 -2 -22 vhcurveto
          31 112 18 65 37 136 callsubr
          6 53 14 75 15 51 rrcurveto
          -17 451 rmoveto
          -12 -8 -5 -13 -17 19 -19 40 -11 hvcurveto
          -1 -5 0 -8 -10 vvcurveto
          -54 -27 -105 -29 -104 vhcurveto
          -38 -5 -39 -6 -27 -8 rrcurveto
          -22 -6 -14 -8 -9 vvcurveto
          -17 52 0 6 8 27 2 4 33 vhcurveto
          -25 -90 -21 -80 -36 161 callgsubr
          vhcurveto
          endchar
        </CharString>
        <CharString name="Euro">
          -1 99 190 rmoveto
          -94 79 -79 99 102 139 90 34 8 -4 8 -9 vhcurveto
          -31 -73 -77 -121 hhcurveto
          -74 -44 51 64 hvcurveto
          4 0 5 4 vvcurveto
          27 4 rlineto
          217 29 38 6 17 vvcurveto
          13 -24 8 -34 -28 -98 -9 -12 -88 vhcurveto
          9 35 15 35 20 34 18 1 rcurveline
          208 15 42 3 16 vvcurveto
          14 -23 13 -57 -17 -65 -1 -4 -68 vhcurveto
          89 68 91 67 56 29 16 -20 17 hhcurveto
          7 6 7 12 25 -39 39 -33 -103 -117 -104 -121 -75 hvcurveto
          -63 -6 -52 -9 -13 vvcurveto
          -13 18 -21 15 13 16 1 3 21 vhcurveto
          -17 -36 -14 -37 -7 -34 rrcurveto
          -51 -9 -36 -10 -9 vvcurveto
          -11 19 -21 15 12 14 2 3 19 vhcurveto
          endchar
        </CharString>
        <CharString name="F">
          1 197 334 rmoveto
          163 104 32 22 6 -13 3 -24 -35 -42 -7 -2 -84 hvcurveto
          -1 -19 -20 0 -23 hhcurveto
          23 94 19 92 46 vvcurveto
          4 0 5 -1 5 vhcurveto
          29 1 43 5 56 6 rrcurveto
          124 13 91 1 21 vvcurveto
          14 -83 7 -105 -141 -52 -15 -18 -10 vhcurveto
          -4 -6 -4 -9 -12 vvcurveto
          -5 -159 -120 -373 -40 vvcurveto
          -20 23 -32 12 10 14 53 59 15 vhcurveto
          10 42 22 79 21 84 rrcurveto
          endchar
        </CharString>
        <CharString name="G">
          107 464 704 27 callgsubr
          endchar
        </CharString>
        <CharString name="Gbreve">
          107 464 704 27 callgsubr
          190 191 116 callsubr
        </CharString>
        <CharString name="H">
          169 129 298 rmoveto
          -29 -108 -25 -94 -31 vvcurveto
          -23 22 -23 8 17 32 144 124 35 vhcurveto
          6 21 36 7 43 10 50 8 rlinecurve
          72 12 61 7 47 6 rrcurveto
          -35 -131 -35 -127 -35 vvcurveto
          -21 19 -25 10 19 30 144 124 35 vhcurveto
          8 28 7 27 7 25 rrcurveto
          36 6 19 7 11 vvcurveto
          12 -10 6 -33 2 vhcurveto
          29 113 18 85 28 vvcurveto
          36 -26 34 -16 -12 -3 -6 -23 -50 -25 -107 -29 -110 vhcurveto
          -72 -5 -135 -19 -99 -19 rrcurveto
          36 134 21 104 31 vvcurveto
          36 -25 34 -15 -11 -4 -5 -24 -59 -35 -136 -35 -131 vhcurveto
          -32 -8 -21 -8 -7 vvcurveto
          -18 19 -13 13 vhcurveto
          endchar
        </CharString>
        <CharString name="I">
          -16 callgsubr
          endchar
        </CharString>
        <CharString name="Iacute">
          -16 callgsubr
          112 206 rmoveto
          -62 callsubr
          181 callgsubr
          vhcurveto
          endchar
        </CharString>
        <CharString name="Icircumflex">
          -16 callgsubr
          140 218 -39 callsubr
          endchar
        </CharString>
        <CharString name="Idieresis">
          -16 callgsubr
          42 141 rmoveto
          28 -30 61 -19 336 callsubr
          vhcurveto
          136 hmoveto
          28 -30 61 -19 336 callsubr
          vhcurveto
          endchar
        </CharString>
        <CharString name="Idotaccent">
          -16 callgsubr
          19 182 173 callsubr
        </CharString>
        <CharString name="Igrave">
          -16 callgsubr
          -58 228 rmoveto
          276 callsubr
          vhcurveto
          -3 callgsubr
          hvcurveto
          endchar
        </CharString>
        <CharString name="Imacron">
          -16 callgsubr
          74 131 rmoveto
          63 callgsubr
          277 callgsubr
          vhcurveto
          endchar
        </CharString>
        <CharString name="Iogonek">
          -200 119 33 rmoveto
          16 38 29 120 28 105 rrcurveto
          46 169 28 133 37 vvcurveto
          35 -26 34 -17 -13 -2 -6 -23 vhcurveto
          -116 -131 -427 -66 vvcurveto
          -4 1 -3 1 -4 vhcurveto
          -46 -20 -68 -79 -51 vvcurveto
          68 callgsubr
          51 86 31 12 39 hvcurveto
          endchar
        </CharString>
        <CharString name="J">
          -53 20 161 rmoveto
          -9 -6 -6 -12 -37 99 -93 84 90 20 57 296 87 hvcurveto
          55 187 48 97 34 vvcurveto
          23 -26 8 -21 -51 -233 -59 -37 -10 10 -6 20 37 94 41 16 114 vhcurveto
          -33 -49 -35 -94 -27 -96 rrcurveto
          -253 -70 -31 -99 -55 -78 -64 92 -19 hhcurveto
          endchar
        </CharString>
        <CharString name="K">
          74 590 679 96 callgsubr
        </CharString>
        <CharString name="L">
          35 263 640 24 callgsubr
        </CharString>
        <CharString name="Lacute">
          35 356 881 rmoveto
          -62 callsubr
          181 callgsubr
          vhcurveto
          -93 -241 24 callgsubr
        </CharString>
        <CharString name="Lcaron">
          35 413 618 rmoveto
          39 callgsubr
          125 callsubr
          vhcurveto
          -150 22 24 callgsubr
        </CharString>
        <CharString name="Lslash">
          -15 215 374 324 callsubr
          -49 -11 -16 -55 vhcurveto
          26 101 17 78 32 vvcurveto
          34 -26 32 -16 -13 -3 -6 -23 -57 -27 -105 -29 -107 vhcurveto
          -67 -21 -59 -24 -12 vvcurveto
          -15 30 -13 19 8 24 8 10 26 vhcurveto
          -30 -106 -27 -97 -41 vvcurveto
          -43 51 -36 62 127 181 63 40 9 -1 1 -10 vhcurveto
          -27 -126 -54 -161 hhcurveto
          -18 -15 13 20 18 7 33 40 135 hvcurveto
          7 25 7 25 7 24 rrcurveto
          endchar
        </CharString>
        <CharString name="M">
          295 269 643 rmoveto
          32 -5 -32 29 -12 hhcurveto
          -14 -2 -6 -23 hvcurveto
          -117 -136 -419 -71 vvcurveto
          -21 19 -24 11 10 36 142 123 36 vhcurveto
          22 75 25 101 13 78 38 -110 53 -116 22 -38 rrcurveto
          -21 13 19 -14 17 hhcurveto
          32 71 85 291 234 hvcurveto
          -62 -166 -73 -312 -63 vvcurveto
          -34 17 -21 13 11 30 165 132 37 vhcurveto
          47 166 38 126 40 vvcurveto
          23 -29 26 -17 -36 -108 -160 -240 -200 vhcurveto
          -66 139 -64 151 -8 52 rrcurveto
          endchar
        </CharString>
        <CharString name="N">
          191 656 652 -33 callsubr
          endchar
        </CharString>
        <CharString name="NULL">
          endchar
        </CharString>
        <CharString name="Nacute">
          191 483 881 rmoveto
          -62 callsubr
          181 callgsubr
          vhcurveto
          173 -229 -33 callsubr
          endchar
        </CharString>
        <CharString name="Ncaron">
          191 578 931 -53 callsubr
          78 -279 -33 callsubr
          endchar
        </CharString>
        <CharString name="Ntilde">
          191 656 652 -33 callsubr
          -249 256 rmoveto
          235 callsubr
          41 callsubr
          endchar
        </CharString>
        <CharString name="O">
          148 callsubr
          endchar
        </CharString>
        <CharString name="OE">
          424 227 75 rmoveto
          -49 -52 52 88 204 190 229 88 52 63 -67 -124 -151 -181 -231 -111 hvcurveto
          340 265 rmoveto
          134 134 12 40 7 -13 2 -24 hvcurveto
          -67 -31 -10 -97 hhcurveto
          -12 -9 0 1 -7 hvcurveto
          2 10 2 10 1 9 rrcurveto
          21 76 16 74 50 vvcurveto
          10 vlineto
          29 3 42 8 55 4 rrcurveto
          141 11 77 2 23 vvcurveto
          14 -67 5 -125 -114 -54 -11 -11 -23 vhcurveto
          -5 -2 -4 -3 -4 -5 -1 -1 0 -1 -1 -1 rrcurveto
          -3 -6 -2 -8 -11 vvcurveto
          -15 -1 -16 -1 -16 vhcurveto
          66 -32 -55 48 -67 hhcurveto
          -141 -195 -254 -248 -79 64 -108 88 76 79 49 70 64 hvcurveto
          -3 -18 -2 -15 -14 256 callgsubr
          30 27 85 28 95 hvcurveto
          4 9 3 9 3 8 rrcurveto
          endchar
        </CharString>
        <CharString name="Oacute">
          99 528 881 rmoveto
          -62 callsubr
          181 callgsubr
          vhcurveto
          -462 -675 -50 callsubr
          endchar
        </CharString>
        <CharString name="Ocircumflex">
          99 556 893 -39 callsubr
          -490 -687 -50 callsubr
          endchar
        </CharString>
        <CharString name="Odieresis">
          99 458 816 rmoveto
          28 -30 61 -19 336 callsubr
          vhcurveto
          136 hmoveto
          28 -30 61 -19 336 callsubr
          vhcurveto
          -528 -610 -50 callsubr
          endchar
        </CharString>
        <CharString name="Ograve">
          148 callsubr
          -46 255 rmoveto
          276 callsubr
          vhcurveto
          -3 callgsubr
          hvcurveto
          endchar
        </CharString>
        <CharString name="Ohungarumlaut">
          99 494 980 2 callgsubr
          -569 -768 -50 callsubr
          endchar
        </CharString>
        <CharString name="Omacron">
          99 490 806 rmoveto
          63 callgsubr
          277 callgsubr
          vhcurveto
          -424 -600 -50 callsubr
          endchar
        </CharString>
        <CharString name="Oslash">
          99 519 457 rmoveto
          -151 -181 -231 -111 -26 -27 15 27 -20 vhcurveto
          65 83 107 139 180 208 rrcurveto
          8 -26 5 -30 -34 vvcurveto
          -393 -242 rmoveto
          204 190 229 88 25 27 -15 -30 22 vhcurveto
          -58 -67 -73 -93 -71 -87 -51 -62 -52 -63 -43 -54 rrcurveto
          -3 12 -1 12 14 vvcurveto
          438 398 rmoveto
          33 37 10 21 14 vvcurveto
          11 -7 7 -10 -13 -25 -20 -34 -32 vhcurveto
          36 -31 -41 23 -46 hhcurveto
          -141 -195 -254 -248 -27 7 -30 13 -27 hvcurveto
          -29 -40 -19 -28 -12 vvcurveto
          -15 10 -10 16 9 15 17 37 30 vhcurveto
          -31 26 35 -21 39 hhcurveto
          178 188 264 186 46 -11 46 -20 39 hvcurveto
          endchar
        </CharString>
        <CharString name="Otilde">
          148 callsubr
          48 260 rmoveto
          235 callsubr
          41 callsubr
          endchar
        </CharString>
        <CharString name="P">
          28 189 324 rmoveto
          42 150 17 87 36 vvcurveto
          10 -2 10 -3 9 vhcurveto
          11 29 39 15 43 hhcurveto
          77 59 -48 -68 -88 -117 -85 -184 -39 hvcurveto
          360 219 rmoveto
          102 -90 63 -107 -74 -108 -31 -28 -13 9 -11 10 -6 vhcurveto
          -10 -145 -125 -349 -68 346 callsubr
          9 41 136 119 35 vhcurveto
          219 43 157 83 148 vvcurveto
          endchar
        </CharString>
        <CharString name="Q">
          120 230 76 rmoveto
          -54 -49 51 89 134 75 148 83 83 hvcurveto
          -11 -27 -6 -33 -36 vvcurveto
          -101 32 -140 40 -120 vhcurveto
          -30 -38 -38 -18 -34 hhcurveto
          176 570 rmoveto
          54 63 -66 -119 -96 -63 -120 -77 -81 hvcurveto
          -30 96 -26 114 127 vvcurveto
          56 7 44 16 29 vhcurveto
          10 19 19 6 18 hhcurveto
          181 -177 rmoveto
          119 -82 116 -103 -144 -188 -241 -257 -105 66 -78 88 47 46 16 27 43 vhcurveto
          -107 40 43 -80 24 hhcurveto
          8 11 3 10 26 -40 74 -40 108 hvcurveto
          105 90 76 154 125 vvcurveto
          endchar
        </CharString>
        <CharString name="R">
          64 181 335 -30 callgsubr
          endchar
        </CharString>
        <CharString name="Racute">
          64 181 335 -30 callgsubr
          361 663 rmoveto
          181 callgsubr
          hvcurveto
          -62 callsubr
          vhcurveto
          endchar
        </CharString>
        <CharString name="Rcaron">
          64 181 335 -30 callgsubr
          379 643 -53 callsubr
          endchar
        </CharString>
        <CharString name="S">
          8 207 25 rmoveto
          137 108 78 108 hvcurveto
          -7 callsubr
          -44 86 -91 115 hvcurveto
          endchar
        </CharString>
        <CharString name="Sacute">
          8 443 881 rmoveto
          -62 callsubr
          181 callgsubr
          vhcurveto
          -236 -856 rmoveto
          137 108 78 108 hvcurveto
          -7 callsubr
          -44 86 -91 115 hvcurveto
          endchar
        </CharString>
        <CharString name="Scaron">
          8 538 931 -53 callsubr
          -331 -906 rmoveto
          137 108 78 108 hvcurveto
          -7 callsubr
          -44 86 -91 115 hvcurveto
          endchar
        </CharString>
        <CharString name="T">
          19 390 701 53 callsubr
        </CharString>
        <CharString name="Tcaron">
          19 348 707 121 callgsubr
          42 -6 53 callsubr
        </CharString>
        <CharString name="Thorn">
          -25 166 257 rmoveto
          17 61 13 58 11 50 rrcurveto
          13 28 25 7 24 hhcurveto
          50 51 -35 -56 -59 -98 -62 -100 -9 -9 0 1 -9 hvcurveto
          126 274 rmoveto
          -17 -25 -5 -8 -25 hvcurveto
          7 39 3 29 14 vvcurveto
          36 -27 30 -16 -15 -3 -8 -22 vhcurveto
          -167 -111 -322 -65 vvcurveto
          -21 18 -22 14 12 20 76 88 24 vhcurveto
          -2 14 14 -1 13 hhcurveto
          128 130 75 106 86 -87 64 -71 hvcurveto
          endchar
        </CharString>
        <CharString name="U">
          56 callsubr
          endchar
        </CharString>
        <CharString name="Uacute">
          88 427 881 rmoveto
          -62 callsubr
          181 callgsubr
          vhcurveto
          -182 -245 -54 callsubr
          endchar
        </CharString>
        <CharString name="Ucircumflex">
          88 455 893 -39 callsubr
          -210 -257 -54 callsubr
          endchar
        </CharString>
        <CharString name="Udieresis">
          88 357 816 rmoveto
          28 -30 61 -19 336 callsubr
          vhcurveto
          136 hmoveto
          28 -30 61 -19 336 callsubr
          vhcurveto
          -248 -180 -54 callsubr
          endchar
        </CharString>
        <CharString name="Ugrave">
          56 callsubr
          12 267 rmoveto
          276 callsubr
          vhcurveto
          -3 callgsubr
          hvcurveto
          endchar
        </CharString>
        <CharString name="Uhungarumlaut">
          56 callsubr
          148 344 2 callgsubr
          endchar
        </CharString>
        <CharString name="Umacron">
          56 callsubr
          144 170 rmoveto
          63 callgsubr
          277 callgsubr
          vhcurveto
          endchar
        </CharString>
        <CharString name="Uogonek">
          88 285 16 rmoveto
          141 37 132 223 332 vvcurveto
          71 -39 25 -17 -11 -3 -3 -13 vhcurveto
          -30 7 -40 -60 vvcurveto
          -272 -151 -220 -95 -54 -37 53 88 vhcurveto
          101 87 234 94 vvcurveto
          35 -31 33 -15 -12 -2 -5 -24 vhcurveto
          -144 -86 -195 -143 vvcurveto
          -81 41 -74 63 -22 vhcurveto
          -34 -33 -32 -48 -35 vvcurveto
          68 callgsubr
          46 68 29 24 34 hvcurveto
          endchar
        </CharString>
        <CharString name="Uring">
          88 406 944 128 callgsubr
          -155 -263 -54 callsubr
          endchar
        </CharString>
        <CharString name="V">
          21 563 704 rmoveto
          -44 -220 -430 -169 -59 hvcurveto
          -65 216 -15 258 -19 64 rrcurveto
          35 -11 -22 26 -19 hhcurveto
          -8 -3 -8 -16 -69 77 -447 37 -88 hvcurveto
          -33 14 14 -31 17 hhcurveto
          27 40 121 233 118 hvcurveto
          102 204 67 71 41 vvcurveto
          11 -16 11 -12 vhcurveto
          endchar
        </CharString>
        <CharString name="W">
          269 515 704 rmoveto
          -30 -14 -5 -16 -15 32 -34 36 88 43 -139 -103 -153 -71 -153 -89 hvcurveto
          -78 24 318 -62 hhcurveto
          -39 -138 -175 -130 -83 hvcurveto
          18 204 59 296 50 vvcurveto
          26 -34 29 -17 -12 -8 -8 -27 vhcurveto
          -160 -60 -323 -87 vvcurveto
          -43 20 -34 18 20 30 26 124 93 vhcurveto
          37 49 38 55 45 57 rrcurveto
          -171 13 25 -138 91 hhcurveto
          117 103 176 183 174 -71 147 -144 hvcurveto
          endchar
        </CharString>
        <CharString name="X">
          134 320 390 rmoveto
          -58 95 -47 98 78 vvcurveto
          24 -31 19 -28 -8 -4 -4 -14 -82 61 -137 75 -129 vhcurveto
          -96 -122 -85 -99 -36 -37 rrcurveto
          -16 -17 -8 -4 -12 vvcurveto
          -10 17 -14 10 39 44 62 203 161 vhcurveto
          -144 88 97 -121 31 hhcurveto
          5 8 6 15 38 -99 122 -88 136 hvcurveto
          2 3 123 156 78 104 33 26 rlinecurve
          25 19 18 11 10 vvcurveto
          11 -25 24 -11 -29 -44 -48 -211 -160 vhcurveto
          endchar
        </CharString>
        <CharString name="Y">
          48 callgsubr
          endchar
        </CharString>
        <CharString name="Yacute">
          48 callgsubr
          75 525 rmoveto
          -62 callsubr
          181 callgsubr
          vhcurveto
          endchar
        </CharString>
        <CharString name="Ydieresis">
          48 callgsubr
          5 460 rmoveto
          28 -30 61 -19 336 callsubr
          vhcurveto
          136 hmoveto
          28 -30 61 -19 336 callsubr
          vhcurveto
          endchar
        </CharString>
        <CharString name="Z">
          95 562 581 -7 callgsubr
          endchar
        </CharString>
        <CharString name="Zacute">
          95 447 881 rmoveto
          -62 callsubr
          181 callgsubr
          vhcurveto
          115 -300 -7 callgsubr
          endchar
        </CharString>
        <CharString name="Zcaron">
          95 542 931 -53 callsubr
          20 -350 -7 callgsubr
          endchar
        </CharString>
        <CharString name="Zdotaccent">
          95 562 581 -7 callgsubr
          -208 276 173 callsubr
        </CharString>
        <CharString name="a">
          -64 314 308 rmoveto
          -131 -37 -82 -101 -69 hhcurveto
          -29 -35 21 31 100 144 215 79 33 13 -48 -41 -10 0 -8 1 -7 hvcurveto
          -10 -3 -6 -8 -2 -10 rrcurveto
          70 70 rmoveto
          340 callsubr
          -119 -161 -243 -130 -57 69 -55 62 62 69 64 69 39 vhcurveto
          -76 2 -57 25 20 -5 55 62 11 vhcurveto
          14 77 3 50 30 vvcurveto
          10 -3 9 -6 7 vhcurveto
          11 15 11 24 22 vvcurveto
          endchar
        </CharString>
        <CharString name="aacute">
          -64 314 308 -70 callgsubr
          202 236 rmoveto
          181 callgsubr
          hvcurveto
          -62 callsubr
          vhcurveto
          endchar
        </CharString>
        <CharString name="abreve">
          -64 314 308 -70 callgsubr
          219 180 116 callsubr
        </CharString>
        <CharString name="acircumflex">
          -64 314 308 -70 callgsubr
          153 178 -39 callsubr
          endchar
        </CharString>
        <CharString name="acute">
          73 764 rmoveto
          -62 callsubr
          181 callgsubr
          vhcurveto
          endchar
        </CharString>
        <CharString name="adieresis">
          -64 319 586 rmoveto
          253 callsubr
          -10 callsubr
          hvcurveto
          -5 -278 -70 callgsubr
          142 190 292 callgsubr
        </CharString>
        <CharString name="ae">
          218 299 502 rmoveto
          -134 -136 -240 -130 -64 64 -51 54 71 47 59 80 51 hvcurveto
          -86 7 74 -53 84 hhcurveto
          286 callgsubr
          -7 6 -11 hvcurveto
          205 callgsubr
          32 50 29 5 33 11 32 hvcurveto
          -11 45 44 -8 47 hhcurveto
          171 callgsubr
          -60 -53 -41 -50 -40 hvcurveto
          48 -13 -39 43 -57 hhcurveto
          105 -210 rmoveto
          83 37 63 71 63 hhcurveto
          170 callsubr
          -30 -39 5 9 -38 hvcurveto
          -100 151 rmoveto
          42 15 -37 -65 1 hvcurveto
          -9 -14 -6 -15 -5 -13 rrcurveto
          -140 -62 -59 -83 -79 hhcurveto
          -23 -31 21 31 100 119 215 97 hvcurveto
          endchar
        </CharString>
        <CharString name="agrave">
          -64 314 308 -70 callgsubr
          59 167 rmoveto
          39 -37 -15 24 -15 hhcurveto
          -21 -16 -25 -17 276 callsubr
          hvcurveto
          -24 32 27 -27 15 hhcurveto
          10 10 10 9 17 -13 10 -52 56 hvcurveto
          endchar
        </CharString>
        <CharString name="amacron">
          -64 314 308 -70 callgsubr
          21 156 callsubr
        </CharString>
        <CharString name="ampersand">
          149 83 107 rmoveto
          31 74 58 84 68 vhcurveto
          19 -39 25 -37 27 -33 rrcurveto
          -47 -73 -71 -37 -45 hhcurveto
          -23 -17 15 21 hvcurveto
          165 356 rmoveto
          74 48 68 62 44 17 -26 -32 -56 -72 -69 -82 -69 vhcurveto
          -11 37 -6 37 36 vvcurveto
          293 -383 rmoveto
          -51 -50 24 37 -43 hvcurveto
          118 79 105 91 19 vvcurveto
          14 -6 7 -16 -17 -110 -90 -78 -115 vhcurveto
          -29 34 -24 40 -19 43 rrcurveto
          99 81 98 91 75 vvcurveto
          45 -20 65 -93 -108 -73 -93 -95 -49 11 -53 20 -52 vhcurveto
          -98 -79 -98 -74 -47 vvcurveto
          -55 55 -45 43 56 88 43 54 88 vhcurveto
          -52 56 65 -34 66 hhcurveto
          60 22 16 19 15 -17 4 -63 hvcurveto
          endchar
        </CharString>
        <CharString name="aogonek">
          -64 126 76 rmoveto
          -29 -35 21 31 100 144 215 79 33 13 -48 -41 -10 0 -8 1 -7 hvcurveto
          -10 -3 -6 -8 -2 -10 rrcurveto
          -131 -37 -82 -101 -69 hhcurveto
          212 -51 rmoveto
          9 18 -1 44 8 47 rrcurveto
          14 77 3 50 30 vvcurveto
          10 -3 9 -6 7 vhcurveto
          11 15 11 24 22 vvcurveto
          340 callsubr
          -119 -161 -243 -130 -57 69 -55 62 62 69 64 69 39 vhcurveto
          -42 1 -37 4 -24 vhcurveto
          -45 -12 -77 -87 -54 vvcurveto
          68 callgsubr
          53 91 30 7 41 hvcurveto
          endchar
        </CharString>
        <CharString name="approxequal">
          80 218 331 102 callsubr
          50 208 102 callsubr
          endchar
        </CharString>
        <CharString name="aring">
          -64 314 308 -70 callgsubr
          88 92 rmoveto
          -16 -11 17 21 32 20 22 17 16 11 -17 -22 -32 -19 -21 -18 hvcurveto
          16 137 rmoveto
          -52 -37 -58 -44 -43 29 -35 39 52 37 58 44 43 -29 35 -39 hvcurveto
          endchar
        </CharString>
        <CharString name="asciicircum">
          -89 308 690 rmoveto
          -30 75 -2 22 -15 21 rrcurveto
          13 -9 -29 4 -11 hhcurveto
          -37 -98 -168 -62 -11 6 -9 11 21 16 42 51 28 hvcurveto
          16 30 21 31 28 29 rrcurveto
          -65 26 58 -127 31 hhcurveto
          8 4 4 11 12 -20 42 -23 55 hvcurveto
          endchar
        </CharString>
        <CharString name="asciitilde">
          87 244 425 102 callsubr
          endchar
        </CharString>
        <CharString name="asterisk">
          -163 258 663 rmoveto
          41 17 71 37 9 vvcurveto
          11 -15 9 -11 -12 -38 -37 -29 -44 vhcurveto
          10 30 9 34 9 vvcurveto
          15 -21 18 -9 -8 -4 -3 -11 -12 0 -45 -2 -32 vhcurveto
          -18 8 -32 41 -6 7 rrcurveto
          11 -9 -20 3 -15 hhcurveto
          -9 -1 -5 -6 -17 67 -50 31 -11 hvcurveto
          -51 -31 -56 -16 -10 vvcurveto
          -10 10 -11 11 10 61 36 21 22 vhcurveto
          -7 -36 -20 -43 -10 vvcurveto
          -6 9 -12 9 13 16 78 29 4 vhcurveto
          -28 32 37 -28 13 hhcurveto
          8 12 9 8 12 -54 20 -34 27 hvcurveto
          endchar
        </CharString>
        <CharString name="at">
          393 567 327 rmoveto
          -134 -33 -88 -102 -70 hhcurveto
          -29 -38 23 34 102 146 218 80 35 14 -52 -42 -13 0 -10 1 -6 hvcurveto
          -10 -2 -6 -7 -2 -9 rrcurveto
          10 383 rmoveto
          -325 -211 -348 -250 -147 103 -130 175 110 161 49 46 5 -3 3 -5 hvcurveto
          -25 -74 -52 -163 hhcurveto
          -130 -90 95 133 232 200 312 279 170 55 -127 -136 -147 -116 -131 -67 -30 -16 30 25 hvcurveto
          56 43 62 21 vvcurveto
          11 -4 9 -7 6 vhcurveto
          11 12 13 26 23 vvcurveto
          38 -33 81 -68 -118 -159 -240 -128 -54 67 -53 61 45 54 33 63 50 vhcurveto
          -45 7 36 -25 35 hhcurveto
          122 134 167 166 168 -97 141 -190 hvcurveto
          endchar
        </CharString>
        <CharString name="atilde">
          -64 314 308 -70 callgsubr
          226 180 rmoveto
          -29 -5 -61 -2 -40 hvcurveto
          2 -37 -5 74 -61 hhcurveto
          235 callsubr
          24 11 51 24 49 hvcurveto
          -52 37 31 -27 36 hhcurveto
          54 39 54 38 15 -6 9 -11 hvcurveto
          endchar
        </CharString>
        <CharString name="b">
          -9 223 72 rmoveto
          -35 -43 23 57 -32 hvcurveto
          148 66 115 145 83 hhcurveto
          34 13 -35 -52 -144 -110 -142 -91 hvcurveto
          160 435 rmoveto
          -81 -81 -79 -117 -73 hvcurveto
          52 217 6 150 37 vvcurveto
          33 -25 34 -16 -15 -3 -9 -21 vhcurveto
          -334 -123 -293 -65 346 callsubr
          7 13 34 48 14 vhcurveto
          -54 38 43 -31 59 hhcurveto
          123 132 193 151 80 -39 69 -65 hvcurveto
          endchar
        </CharString>
        <CharString name="backslash">
          89 480 -75 rmoveto
          9 21 25 11 37 -82 198 -242 538 hvcurveto
          22 -10 -1 7 -10 hhcurveto
          -10 -26 -35 -21 -53 122 -210 65 -156 hvcurveto
          -329 137 14 -34 13 hhcurveto
          endchar
        </CharString>
        <CharString name="bar">
          -191 52 -75 rmoveto
          -21 22 -23 13 15 65 299 116 30 vhcurveto
          39 155 58 252 33 vvcurveto
          33 -26 34 -17 -15 -2 -8 -22 vhcurveto
          -104 -182 -683 -61 vvcurveto
          endchar
        </CharString>
        <CharString name="braceleft">
          -112 364 853 rmoveto
          -87 -88 -72 -99 hvcurveto
          -97 45 -76 -51 vvcurveto
          -35 -26 -25 -41 vhcurveto
          -38 -29 34 -17 hhcurveto
          -6 -5 -9 -9 -16 12 -14 17 -11 hvcurveto
          6 -11 11 -17 -17 -99 -69 -57 -100 vvcurveto
          -84 62 -72 90 43 41 14 22 12 -10 4 -36 -87 -39 33 71 vhcurveto
          108 56 49 68 vvcurveto
          21 -3 18 -6 15 vhcurveto
          -1 8 8 -1 7 hhcurveto
          66 40 47 45 hvcurveto
          59 -45 53 110 vvcurveto
          76 60 52 66 69 3 -41 -59 -14 2 -10 9 18 18 33 36 67 -47 50 -78 vhcurveto
          endchar
        </CharString>
        <CharString name="braceright">
          -21 422 314 rmoveto
          0 vlineto
          15 6 9 12 10 vvcurveto
          9 -11 0 -22 4 vhcurveto
          -13 2 -13 4 -12 5 rrcurveto
          -24 11 -20 19 30 67 174 91 125 vvcurveto
          74 -80 70 -74 -72 -89 -58 -46 -10 23 -22 11 vhcurveto
          23 23 81 72 hhcurveto
          53 48 -39 -56 hvcurveto
          -104 -170 -84 -89 vvcurveto
          -46 33 -39 42 -19 vhcurveto
          -81 -82 66 -271 -122 -89 10 50 -36 hhcurveto
          -8 -6 -8 -14 -35 66 -46 70 195 -121 345 51 128 hvcurveto
          endchar
        </CharString>
        <CharString name="bracketleft">
          -63 278 759 rmoveto
          -2 -4 -1 -6 -7 -120 -194 -524 -83 vvcurveto
          -44 49 -27 56 42 101 23 34 8 -4 4 -11 vhcurveto
          -25 -68 -11 -50 hhcurveto
          -16 -10 9 16 17 9 34 59 189 hvcurveto
          48 152 74 248 42 vvcurveto
          7 -1 6 -2 7 vhcurveto
          13 1 15 3 24 2 rrcurveto
          116 12 24 2 17 vvcurveto
          24 -56 3 -40 -60 -88 -7 -25 -2 vhcurveto
          endchar
        </CharString>
        <CharString name="bracketright">
          -100 362 713 rmoveto
          19 -22 15 -63 -57 -94 -10 -28 -10 11 -5 18 -3 vhcurveto
          -3 20 28 -1 28 hhcurveto
          34 21 -1 -2 15 hvcurveto
          -1 -5 -1 -5 -6 vvcurveto
          -78 -120 -524 -15 -55 vhcurveto
          -17 -4 -8 -9 -17 -49 -61 14 -28 hhcurveto
          -11 -5 -3 -9 -30 92 -30 59 60 24 23 46 12 hvcurveto
          29 116 105 469 121 vvcurveto
          6 vlineto
          endchar
        </CharString>
        <CharString name="breve">
          167 682 116 callsubr
        </CharString>
        <CharString name="brokenbar">
          -189 108 224 rmoveto
          -104 -55 -134 -61 vvcurveto
          -21 22 -23 13 22 58 266 40 33 -26 34 -16 -15 -3 -8 -22 vhcurveto
          127 549 rmoveto
          -104 -55 -134 -62 vvcurveto
          -20 22 -23 13 23 57 266 40 33 -25 34 -17 -15 -3 -8 -22 vhcurveto
          endchar
        </CharString>
        <CharString name="bullet">
          -274 65 334 rmoveto
          -34 59 -61 37 11 14 13 5 34 -44 106 -26 -24 -27 -36 -27 vhcurveto
          endchar
        </CharString>
        <CharString name="c">
          -89 305 502 rmoveto
          -124 -146 -206 -136 -84 72 -59 82 69 callsubr
          hvcurveto
          endchar
        </CharString>
        <CharString name="cacute">
          -89 363 668 rmoveto
          -62 callsubr
          181 callgsubr
          vhcurveto
          -58 -166 rmoveto
          -124 -146 -206 -136 -84 72 -59 82 69 callsubr
          hvcurveto
          endchar
        </CharString>
        <CharString name="caron">
          168 112 callgsubr
          endchar
        </CharString>
        <CharString name="ccaron">
          -89 458 112 callgsubr
          -153 -216 rmoveto
          -124 -146 -206 -136 -84 72 -59 82 69 callsubr
          hvcurveto
          endchar
        </CharString>
        <CharString name="ccedilla">
          -89 159 -36 rmoveto
          11 20 9 19 5 14 rrcurveto
          5 hlineto
          69 callsubr
          -124 -146 -206 -136 -65 43 -49 56 -20 hvcurveto
          -14 -37 -20 -32 -17 38 callgsubr
          endchar
        </CharString>
        <CharString name="cedilla">
          -36 -72 rmoveto
          19 33 11 29 14 vvcurveto
          15 -6 8 -16 -10 -12 -4 -17 -5 vhcurveto
          -14 -44 -26 -39 -19 38 callgsubr
          endchar
        </CharString>
        <CharString name="cent">
          -63 121 161 rmoveto
          84 80 137 80 47 vhcurveto
          -31 -110 -33 -140 -22 -99 rrcurveto
          -46 5 -28 33 43 vvcurveto
          233 351 rmoveto
          7 27 8 15 14 vvcurveto
          18 -10 19 -13 -9 -16 -42 -62 -19 vhcurveto
          -117 -28 -124 -185 -125 vvcurveto
          -73 53 -54 68 -13 vhcurveto
          -8 -37 -5 -25 -6 vvcurveto
          -10 16 -18 7 5 13 37 57 16 vhcurveto
          69 6 101 57 25 vvcurveto
          11 -4 5 -10 -27 -31 -35 -9 -81 vhcurveto
          31 116 39 155 24 94 rrcurveto
          -2 36 22 -44 25 hhcurveto
          7 5 5 9 23 -26 55 -54 11 hvcurveto
          endchar
        </CharString>
        <CharString name="circumflex">
          101 188 callsubr
          endchar
        </CharString>
        <CharString name="colon">
          -265 35 76 rmoveto
          -28 48 -54 29 9 9 9 6 29 -33 91 -24 -18 -20 -31 -22 vhcurveto
          93 370 rmoveto
          -28 48 -55 29 9 10 9 7 28 -33 92 -25 -18 -20 -32 -21 vhcurveto
          endchar
        </CharString>
        <CharString name="comma">
          -301 15 -150 110 callsubr
        </CharString>
        <CharString name="copyright">
          197 467 552 rmoveto
          -103 -122 -168 -103 -55 56 -51 54 63 84 58 24 6 -3 9 -10 hvcurveto
          -21 -42 -46 -70 hhcurveto
          -30 -29 23 30 104 119 120 52 hvcurveto
          16 9 -9 13 hhcurveto
          5 6 3 10 19 -26 26 -21 hvcurveto
          179 -138 rmoveto
          -201 -127 -111 -195 -103 -76 66 121 209 184 119 143 96 78 -84 -119 vhcurveto
          -308 -354 rmoveto
          311 callsubr
          312 callsubr
          hvcurveto
          endchar
        </CharString>
        <CharString name="currency">
          89 293 173 rmoveto
          -47 -44 49 60 66 46 89 73 49 42 -50 -62 -66 -47 -86 -72 hvcurveto
          150 248 rmoveto
          29 30 42 40 12 vvcurveto
          12 -19 15 -15 -15 -26 -24 -43 -34 vhcurveto
          15 -22 -26 9 -29 hhcurveto
          -33 -30 -11 -17 -25 hvcurveto
          -6 17 -4 14 -1 10 rrcurveto
          20 -3 -33 10 -20 hhcurveto
          -12 -2 -5 -12 -13 18 -34 23 -45 hvcurveto
          -33 -40 -18 -53 -47 vvcurveto
          -36 10 -33 18 -26 vhcurveto
          -40 -41 -26 -24 -8 vvcurveto
          -13 19 -17 15 10 27 27 38 33 vhcurveto
          -14 20 25 -8 27 hhcurveto
          27 25 7 13 22 hvcurveto
          -39 30 28 -24 15 hhcurveto
          8 10 6 8 11 -21 27 -29 43 hvcurveto
          40 42 24 61 52 vvcurveto
          33 -8 30 -15 25 vhcurveto
          endchar
        </CharString>
        <CharString name="d">
          -33 355 147 callgsubr
          65 71 54 63 53 hvcurveto
          -8 -36 -6 -26 255 callsubr
          endchar
        </CharString>
        <CharString name="dagger">
          -181 402 433 rmoveto
          192 callgsubr
          -35 -200 -54 -258 -35 346 callsubr
          15 29 144 149 29 vhcurveto
          318 callsubr
          endchar
        </CharString>
        <CharString name="daggerdbl">
          -181 150 154 rmoveto
          318 callsubr
          192 callgsubr
          -13 -79 -17 -89 -16 -80 rrcurveto
          -88 -7 -82 -11 -14 vvcurveto
          -12 19 -22 14 26 31 5 5 69 vhcurveto
          -18 -96 -14 -75 -18 346 callsubr
          13 24 110 128 25 vhcurveto
          170 14 28 6 15 vvcurveto
          14 -27 10 -30 -26 -50 -2 -3 -54 vhcurveto
          endchar
        </CharString>
        <CharString name="dcaron">
          196 385 147 callgsubr
          67 70 56 64 53 hvcurveto
          -9 -37 -6 -28 255 callsubr
          149 -15 rmoveto
          288 callsubr
          29 97 52 77 41 -34 24 -32 vhcurveto
          endchar
        </CharString>
        <CharString name="dcroat">
          -3 385 279 rmoveto
          -115 -42 -120 -93 -56 hhcurveto
          -28 -32 23 32 128 119 189 94 46 23 -70 -80 hvcurveto
          142 308 rmoveto
          123 9 30 4 16 vvcurveto
          17 -46 3 -111 vhcurveto
          5 33 2 22 10 vvcurveto
          33 -25 34 -17 -15 -2 -9 -21 vhcurveto
          -2 -33 -4 -34 -4 -35 rrcurveto
          -47 -73 -5 -16 -14 26 -26 27 14 18 2 3 26 hvcurveto
          -11 -65 -14 -66 -15 -63 rrcurveto
          61 -14 -31 41 -55 hhcurveto
          -144 -125 -246 -124 -53 47 -62 64 65 71 54 63 53 hvcurveto
          -8 -36 -6 -26 -14 vvcurveto
          -22 20 -19 13 15 38 146 117 30 vhcurveto
          34 131 22 111 14 78 rrcurveto
          endchar
        </CharString>
        <CharString name="degree">
          -216 234 725 rmoveto
          -92 -68 -103 -79 -61 38 -48 58 92 68 102 80 62 -37 47 -59 hvcurveto
          -13 -53 rmoveto
          29 20 -28 -37 -50 -33 -73 -54 -30 -20 27 36 50 34 75 54 hvcurveto
          endchar
        </CharString>
        <CharString name="dieresis">
          3 745 rmoveto
          28 -30 61 -19 336 callsubr
          vhcurveto
          136 hmoveto
          28 -30 61 -19 336 callsubr
          vhcurveto
          endchar
        </CharString>
        <CharString name="divide">
          89 105 287 rmoveto
          232 240 29 34 12 -17 6 -25 hvcurveto
          -99 -72 -19 -186 -53 -38 333 callsubr
          103 -155 rmoveto
          -28 48 -49 185 callsubr
          -21 vhcurveto
          76 393 rmoveto
          -27 48 -50 185 callsubr
          -21 vhcurveto
          endchar
        </CharString>
        <CharString name="dollar">
          -8 270 375 rmoveto
          -46 34 -37 30 27 vvcurveto
          35 65 37 75 22 vhcurveto
          -15 -48 -19 -61 -23 -76 rrcurveto
          121 -194 rmoveto
          -53 -67 -42 -88 -10 vhcurveto
          17 55 21 70 26 84 rrcurveto
          50 -35 41 -34 -35 vvcurveto
          33 495 rmoveto
          6 18 2 15 11 vvcurveto
          16 -5 9 -12 -21 -10 -12 -108 -36 vhcurveto
          -70 -17 -78 -32 -44 -40 rrcurveto
          -15 -12 -12 -40 -27 vvcurveto
          -50 60 -45 63 -44 vhcurveto
          -21 -66 -33 -97 -22 -79 rrcurveto
          13 -73 -47 84 -20 hhcurveto
          -11 -6 -7 -14 -34 56 -76 88 -20 hvcurveto
          -6 -24 -3 -21 -14 vvcurveto
          -15 5 -10 10 13 15 27 52 19 vhcurveto
          121 4 118 67 94 vvcurveto
          58 -70 53 -68 49 vhcurveto
          21 69 24 78 28 85 rrcurveto
          3 20 20 2 18 17 15 -8 13 hhcurveto
          6 5 2 8 19 -18 39 -37 -12 -12 -1 -1 -14 hvcurveto
          endchar
        </CharString>
        <CharString name="dotaccent">
          -20 740 173 callsubr
        </CharString>
        <CharString name="dotlessi">
          -251 197 214 callgsubr
          endchar
        </CharString>
        <CharString name="dvA.aInitial">
          354 -44 callgsubr
          117 -107 callgsubr
        </CharString>
        <CharString name="dvAA.aInitial">
          615 707 636 rmoveto
          -60 callsubr
        </CharString>
        <CharString name="dvAU.aInitial">
          615 1109 11 callsubr
          -363 hlineto
          -60 callsubr
        </CharString>
        <CharString name="dvAcandra.aInitial">
          354 -44 callgsubr
          117 -107 callsubr
          58 219 7 callgsubr
        </CharString>
        <CharString name="dvB_DA_MatraU">
          321 723 141 callgsubr
          -628 -16 rmoveto
          -49 callgsubr
          -6 9 callsubr
          657 -44 callsubr
          -75 -97 -99 -90 -50 hvcurveto
          -21 -15 -33 -30 -39 -29 -78 callsubr
          72 106 59 54 68 hvcurveto
          -1 -4 0 -4 -4 vvcurveto
          213 callgsubr
          vhcurveto
          -96 callgsubr
        </CharString>
        <CharString name="dvB_DA_MatraUU">
          321 723 199 -34 callgsubr
          -373 363 rmoveto
          -49 callgsubr
          -6 9 callsubr
          657 -44 callsubr
          -75 -97 -99 -90 -50 hvcurveto
          -21 -15 -33 -30 -39 -29 -78 callsubr
          72 106 59 54 68 hvcurveto
          -1 -4 0 -4 -4 vvcurveto
          213 callgsubr
          vhcurveto
          -96 callsubr
        </CharString>
        <CharString name="dvDA_MatraU">
          -25 377 141 callgsubr
          -382 82 callgsubr
          405 176 callsubr
          -96 callgsubr
        </CharString>
        <CharString name="dvDA_MatraUU">
          -25 377 199 -34 callgsubr
          -125 816 -104 callsubr
          403 176 callsubr
          -96 callsubr
        </CharString>
        <CharString name="dvDDH_DDHA">
          28 304 217 rmoveto
          46 22 19 53 36 17 -13 -18 -31 -59 -22 -67 -8 vhcurveto
          -1 9 -1 9 9 vvcurveto
          -82 -413 rmoveto
          28 33 16 28 43 23 -23 -21 -29 -32 -23 -54 -11 vhcurveto
          -31 21 -10 20 22 vvcurveto
          -164 832 -104 callsubr
          345 hlineto
          -11 -32 -3 -48 -28 vvcurveto
          -8 vlineto
          14 -22 -26 10 -16 hhcurveto
          -77 -193 -148 -106 -42 34 -30 50 -17 hvcurveto
          -12 34 41 -6 41 hhcurveto
          16 hlineto
          9 -37 14 -42 16 -32 rrcurveto
          4 -19 -21 3 -23 hhcurveto
          -100 -157 -102 -108 -97 98 -36 102 122 84 55 61 46 -43 40 -70 -69 -40 -33 -46 -27 18 -26 24 -22 hvcurveto
          -1 -7 -8 0 -8 hhcurveto
          -95 -54 29 59 71 110 91 97 hvcurveto
          61 21 -16 25 hhcurveto
          8 8 2 11 hvcurveto
          1 vlineto
          1 vlineto
          21 -38 63 -20 71 vhcurveto
          101 14 64 49 49 vvcurveto
          42 -34 36 -67 -86 -35 -46 -73 -6 1 -8 1 -9 vhcurveto
          -9 hlineto
          -87 -51 25 34 72 145 118 65 42 19 -31 -4 24 hvcurveto
          2 hlineto
          156 callgsubr
          1 1 0 1 hhcurveto
          14 3 5 15 18 vvcurveto
          92 11 29 2 30 vhcurveto
          154 -107 callgsubr
        </CharString>
        <CharString name="dvDD_GA">
          -80 56 -108 -2 callgsubr
        </CharString>
        <CharString name="dvG_DA_MatraU">
          336 738 141 callgsubr
          -556 -34 rmoveto
          -95 callsubr
          428 176 callsubr
          -96 callgsubr
        </CharString>
        <CharString name="dvG_DA_MatraUU">
          336 738 199 -34 callgsubr
          -301 345 rmoveto
          -95 callsubr
          428 176 callsubr
          -96 callsubr
        </CharString>
        <CharString name="dvJ_DA_MatraU">
          447 849 141 callgsubr
          -727 82 callgsubr
          750 -44 callsubr
          -32 -37 -19 -28 -35 hvcurveto
          -23 -37 -77 -62 -105 -34 -41 8 -24 -45 callsubr
          12 -5 15 -9 14 vhcurveto
          -1 12 293 callgsubr
          37 41 9 14 37 hvcurveto
          -30 -46 -20 -47 -33 vvcurveto
          213 callgsubr
          vhcurveto
          -96 callgsubr
        </CharString>
        <CharString name="dvJ_DA_MatraUU">
          447 849 199 -34 callgsubr
          -472 816 -104 callsubr
          750 -44 callsubr
          -32 -37 -19 -28 -35 hvcurveto
          -23 -37 -77 -62 -105 -34 -41 8 -24 -45 callsubr
          12 -5 15 -9 14 vhcurveto
          -1 12 293 callgsubr
          37 41 9 14 37 hvcurveto
          -30 -46 -20 -47 -33 vvcurveto
          213 callgsubr
          vhcurveto
          -96 callsubr
        </CharString>
        <CharString name="dvK_DA_MatraU">
          463 846 435 rmoveto
          261 callgsubr
          -41 -47 -29 -42 -43 hvcurveto
          -45 -33 -86 -53 -93 -46 17 75 rcurveline
          -26 callsubr
          392 15 callgsubr
          -730 183 callsubr
          749 2 83 callgsubr
          -760 437 -85 callsubr
          62 72 20 29 72 hvcurveto
          -16 -67 309 callgsubr
          83 95 22 vhcurveto
          52 25 50 27 46 27 rrcurveto
          -21 -37 -13 -36 -27 vvcurveto
          213 callgsubr
          vhcurveto
          -96 callgsubr
        </CharString>
        <CharString name="dvK_DA_MatraUU">
          463 846 435 rmoveto
          261 callgsubr
          -41 -47 -29 -42 -43 hvcurveto
          -45 -33 -86 -53 -93 -46 17 75 rcurveline
          -26 callsubr
          392 15 callgsubr
          -730 183 callsubr
          749 2 -34 callgsubr
          -505 816 -85 callsubr
          62 72 20 29 72 hvcurveto
          -16 -67 309 callgsubr
          83 95 22 vhcurveto
          52 25 50 27 46 27 rrcurveto
          -21 -37 -13 -36 -27 vvcurveto
          213 callgsubr
          vhcurveto
          -96 callsubr
        </CharString>
        <CharString name="dvL_DA_MatraU">
          423 825 141 callgsubr
          -717 82 callgsubr
          740 -44 callsubr
          -45 -53 -36 -48 -46 hvcurveto
          -57 -18 -92 -39 -60 -35 rrcurveto
          3 14 2 15 16 -101 callgsubr
          1 hlineto
          61 callgsubr
          12 6 13 5 12 6 rrcurveto
          -30 -47 -20 -47 -33 vvcurveto
          213 callgsubr
          vhcurveto
          -96 callgsubr
        </CharString>
        <CharString name="dvL_DA_MatraUU">
          423 825 199 -34 callgsubr
          -462 816 -104 callsubr
          740 -44 callsubr
          -45 -53 -36 -48 -46 hvcurveto
          -57 -18 -92 -39 -60 -35 rrcurveto
          3 14 2 15 16 -101 callgsubr
          1 hlineto
          61 callgsubr
          12 6 13 5 12 6 rrcurveto
          -30 -47 -20 -47 -33 vvcurveto
          213 callgsubr
          vhcurveto
          -96 callsubr
        </CharString>
        <CharString name="dvM_DA_MatraU">
          368 751 152 callsubr
          7 -35 -56 1 -59 15 callsubr
          7 491 vlineto
          -23 -32 -19 -53 -60 vvcurveto
          -597 -302 rmoveto
          -32 -44 58 39 41 68 18 85 8 hvcurveto
          -91 -15 -24 -73 -38 hhcurveto
          616 58 83 callgsubr
          -667 437 -75 callgsubr
          hhcurveto
          58 45 -3 -1 32 hvcurveto
          -34 -50 -23 -51 -36 vvcurveto
          213 callgsubr
          vhcurveto
          -96 callgsubr
        </CharString>
        <CharString name="dvM_DA_MatraUU">
          368 751 152 callsubr
          7 -35 -56 1 -59 15 callsubr
          7 491 vlineto
          -23 -32 -19 -53 -60 vvcurveto
          -597 -302 rmoveto
          -32 -44 58 39 41 68 18 85 8 hvcurveto
          -91 -15 -24 -73 -38 hhcurveto
          616 58 -34 callgsubr
          -412 816 -75 callgsubr
          hhcurveto
          58 45 -3 -1 32 hvcurveto
          -34 -50 -23 -51 -36 vvcurveto
          213 callgsubr
          vhcurveto
          -96 callsubr
        </CharString>
        <CharString name="dvNG_GA">
          17 472 371 -88 callsubr
          -426 -479 -2 callgsubr
        </CharString>
        <CharString name="dvNG_MA">
          -20 472 370 -88 callsubr
          -326 -365 rmoveto
          11 58 4 57 1 33 rrcurveto
          -13 28 33 -8 36 hhcurveto
          28 25 4 7 22 hvcurveto
          -12 -32 -12 -46 -11 -48 -36 -2 -65 -5 -28 -3 rrcurveto
          -134 -152 rmoveto
          -19 -21 37 22 24 44 13 56 8 hvcurveto
          -58 -14 -21 -46 -25 hhcurveto
          -43 781 -104 callsubr
          417 hlineto
          -8 -26 -4 -31 -29 callsubr
          -29 18 -31 31 -24 hvcurveto
          -2 -10 -1 -13 -16 vvcurveto
          -36 -5 -53 -9 -50 vhcurveto
          -91 -13 -65 -22 -42 vvcurveto
          -46 48 -63 40 50 32 71 80 19 vhcurveto
          53 6 58 3 39 6 3 1 rcurveline
          -18 -88 -13 -85 -17 229 callsubr
          14 75 31 103 3 37 rrcurveto
          28 20 16 27 31 59 callgsubr
          236 -107 callgsubr
        </CharString>
        <CharString name="dvNY_CA">
          563 234 callgsubr
          923 hlineto
          -10 -51 -11 -54 -12 -56 rrcurveto
          -159 -53 -129 -76 -99 -48 callgsubr
          60 56 0 -1 52 hvcurveto
          -36 -22 -31 -30 -20 -31 -28 -6 -48 -14 -33 -5 -38 -6 -32 -3 -23 -4 rrcurveto
          7 25 4 26 24 -27 callgsubr
          105 76 72 84 36 vhcurveto
          6 hlineto
          48 85 12 16 57 hvcurveto
          -1 -6 -1 -7 -6 vvcurveto
          -61 38 -39 82 346 callgsubr
          vhcurveto
          332 callgsubr
          -98 -18 -17 callgsubr
        </CharString>
        <CharString name="dvN_DA_MatraU">
          336 738 141 callgsubr
          -468 37 -72 callgsubr
          -202 10 callgsubr
          693 -44 callsubr
          -47 -56 -39 -52 -47 hvcurveto
          11 164 callgsubr
          53 44 -2 34 hhcurveto
          -42 -55 -30 -62 -40 vvcurveto
          213 callgsubr
          vhcurveto
          -96 callgsubr
        </CharString>
        <CharString name="dvN_DA_MatraUU">
          336 738 199 -34 callgsubr
          -213 416 -72 callgsubr
          -202 10 callgsubr
          693 -44 callsubr
          -47 -56 -39 -52 -47 hvcurveto
          11 164 callgsubr
          53 44 -2 34 hhcurveto
          -42 -55 -30 -62 -40 vvcurveto
          213 callgsubr
          vhcurveto
          -96 callsubr
        </CharString>
        <CharString name="dvO.aInitial">
          615 1103 183 callgsubr
          -349 hlineto
          -60 callsubr
        </CharString>
        <CharString name="dvOcandra.aInitial">
          615 -44 callgsubr
          188 -100 callgsubr
          63 219 7 callgsubr
        </CharString>
        <CharString name="dvOshort.aInitial">
          354 1102 636 -6 callgsubr
          -354 hlineto
          -95 callgsubr
          181 -100 callgsubr
          endchar
        </CharString>
        <CharString name="dvSHA_MatraVocalicR">
          270 325 532 rmoveto
          63 53 41 53 42 21 -22 -33 -55 -36 -54 -55 -44 vhcurveto
          -47 28 -31 36 40 vvcurveto
          335 104 -104 callsubr
          52 hlineto
          -13 -71 -17 -75 -17 -80 -73 1 -79 16 -64 27 rrcurveto
          56 49 37 62 66 vvcurveto
          69 -47 34 -65 -92 -62 -70 -77 -58 34 -46 50 -36 vhcurveto
          -36 -61 -75 -23 -74 -22 -25 6 -15 hhcurveto
          -12 -5 -4 -10 -24 39 -16 41 87 93 31 49 74 hvcurveto
          74 -38 95 -21 80 -5 -22 -102 -25 -100 -9 -46 rrcurveto
          -82 -16 -118 -100 -76 vvcurveto
          -62 63 -34 257 callsubr
          -67 -36 19 31 54 106 88 70 hvcurveto
          156 callgsubr
          19 34 184 133 31 hvcurveto
          -103 callgsubr
          125 -107 callgsubr
        </CharString>
        <CharString name="dvSH_VA.aSimp">
          401 315 454 -94 callgsubr
          507 -216 -69 callsubr
          -45 514 rmoveto
          -37 -10 -9 -15 -15 10 -9 37 hvcurveto
          354 130 callgsubr
        </CharString>
        <CharString name="dvS_DA_MatraU">
          395 778 152 callsubr
          -43 -6 -62 -16 -109 137 callsubr
          442 15 callgsubr
          19 -244 83 callgsubr
          -689 437 -99 callgsubr
          82 1 102 7 72 15 rrcurveto
          -28 -44 -18 -44 -32 vvcurveto
          213 callgsubr
          vhcurveto
          -96 callgsubr
        </CharString>
        <CharString name="dvS_DA_MatraUU">
          395 778 152 callsubr
          -43 -6 -62 -16 -109 137 callsubr
          442 15 callgsubr
          19 -244 -34 callgsubr
          -434 816 -99 callgsubr
          82 1 102 7 72 15 rrcurveto
          -28 -44 -18 -44 -32 vvcurveto
          213 callgsubr
          vhcurveto
          -96 callsubr
        </CharString>
        <CharString name="dvTTH_TTHA">
          60 473 313 212 callsubr
          -130 -432 212 callsubr
          -335 755 -104 callsubr
          430 hlineto
          -26 -40 -15 -50 -2 -43 rrcurveto
          1 -4 -4 0 -4 hhcurveto
          258 callgsubr
          27 28 4 7 28 hvcurveto
          -1 -18 -5 -23 -14 -30 -7 -15 -7 -12 -5 -9 rrcurveto
          -8 hlineto
          258 callgsubr
          138 165 102 89 51 -39 57 -48 24 hvcurveto
          24 38 20 59 3 39 rrcurveto
          93 36 77 67 61 288 callgsubr
          106 -107 callgsubr
        </CharString>
        <CharString name="dvTT_GA">
          -2 68 -105 rmoveto
          -29 -22 37 22 23 14 12 50 18 22 -3 -5 23 hvcurveto
          -57 -22 -24 -29 -30 hhcurveto
          -37 741 -104 callsubr
          392 hlineto
          -15 -37 -11 -57 -39 vvcurveto
          -12 vlineto
          15 -20 -23 11 -19 hhcurveto
          -87 -140 -148 -100 -41 24 -31 49 -16 hvcurveto
          -5 -27 -5 -37 -10 -36 -2 -8 rcurveline
          6 -27 -26 4 -31 338 callgsubr
          46 -67 61 106 42 192 81 10 hvcurveto
          -1 14 15 -1 16 hhcurveto
          28 26 2 5 22 hvcurveto
          -43 -85 -39 -158 -83 104 callgsubr
          186 callsubr
          endchar
        </CharString>
        <CharString name="dvT_KH_NA">
          598 892 36 callgsubr
          -305 -387 rmoveto
          -33 -16 -28 -39 -29 -43 20 30 32 49 30 61 19 vhcurveto
          13 -22 4 -27 -21 vvcurveto
          -206 693 rmoveto
          -3 hlineto
          -3 310 callgsubr
          3 hlineto
          3 hlineto
          12 278 callsubr
          -86 -55 -108 -15 hvcurveto
          34 -13 -113 26 -110 34 callgsubr
          41 34 -4 -4 28 vhcurveto
          4 -28 39 -22 40 -1 rrcurveto
          114 callsubr
          86 -107 callgsubr
        </CharString>
        <CharString name="dvT_S_NA">
          639 1079 165 callgsubr
          -715 583 -104 callsubr
          440 hlineto
          -10 -9 -5 -8 -6 vvcurveto
          -13 22 -16 11 13 4 12 11 14 vhcurveto
          9 12 16 9 25 hhcurveto
          47 26 -26 -62 -99 -91 -97 -121 -31 -19 32 7 -26 hvcurveto
          16 -37 -60 8 -57 hhcurveto
          -114 -85 -35 -104 314 callgsubr
          hvcurveto
          158 callgsubr
          11 -30 26 -56 30 -55 rrcurveto
          51 callgsubr
        </CharString>
        <CharString name="e">
          -82 267 446 40 callgsubr
        </CharString>
        <CharString name="eacute">
          -82 211 278 -29 callgsubr
          173 236 rmoveto
          181 callgsubr
          hvcurveto
          -62 callsubr
          vhcurveto
          endchar
        </CharString>
        <CharString name="ecaron">
          -82 211 278 -29 callgsubr
          191 216 -53 callsubr
          endchar
        </CharString>
        <CharString name="ecircumflex">
          -82 211 278 -29 callgsubr
          124 178 -39 callsubr
          endchar
        </CharString>
        <CharString name="edieresis">
          -82 271 587 rmoveto
          253 callsubr
          -10 callsubr
          hvcurveto
          -60 -309 -29 callgsubr
          113 191 292 callgsubr
        </CharString>
        <CharString name="edotaccent">
          -82 335 577 rmoveto
          8 10 9 5 26 -29 76 -21 -18 -21 -29 -20 -27 47 -40 24 hvcurveto
          -68 -131 40 callgsubr
        </CharString>
        <CharString name="egrave">
          -82 262 618 rmoveto
          -3 callgsubr
          276 callsubr
          hvcurveto
          5 -172 40 callgsubr
        </CharString>
        <CharString name="eight">
          97 430 235 rmoveto
          -85 -116 -72 -79 -42 -28 30 30 53 87 70 96 75 vhcurveto
          47 -40 35 -36 -25 vvcurveto
          177 379 rmoveto
          62 -51 44 -86 -102 -138 -37 -27 -15 33 -22 18 vhcurveto
          33 82 43 84 hhcurveto
          52 13 -23 -20 -49 -95 -77 -101 -82 hvcurveto
          -68 56 -79 58 -61 54 rrcurveto
          13 -15 -9 9 -5 hhcurveto
          -8 -4 -15 -17 -42 110 -79 93 -74 hvcurveto
          -103 -85 -97 -86 -64 vvcurveto
          -64 75 -50 58 106 152 97 105 42 -42 50 -58 53 vhcurveto
          108 84 105 87 71 vvcurveto
          endchar
        </CharString>
        <CharString name="ellipsis">
          86 224 callgsubr
          181 hmoveto
          -28 48 -50 29 9 11 10 5 27 -34 86 -22 -20 -21 -30 -20 vhcurveto
          181 hmoveto
          -28 48 -50 29 10 10 10 5 27 -34 330 callsubr
          -20 vhcurveto
          endchar
        </CharString>
        <CharString name="emacron">
          -82 211 278 -29 callgsubr
          -8 156 callsubr
        </CharString>
        <CharString name="emdash">
          378 795 357 rmoveto
          -437 -279 -38 -31 -16 16 -19 16 hvcurveto
          43 5 107 22 109 9 rrcurveto
          266 21 224 -6 30 vvcurveto
          13 -21 10 -44 vhcurveto
          endchar
        </CharString>
        <CharString name="endash">
          92 554 341 rmoveto
          13 -17 8 -37 -155 -266 -53 -26 1 vhcurveto
          -16 18 -14 16 24 112 27 14 97 vhcurveto
          102 14 106 14 -1 19 rrcurveto
          endchar
        </CharString>
        <CharString name="eogonek">
          -82 267 446 rmoveto
          170 callsubr
          -30 -40 5 9 -37 hvcurveto
          83 37 64 71 62 hhcurveto
          64 -334 rmoveto
          -1 hlineto
          205 callgsubr
          32 50 30 6 32 10 32 hvcurveto
          -11 44 45 -8 47 hhcurveto
          171 callgsubr
          -120 -126 -187 -142 -95 76 -61 90 13 15 2 3 14 hvcurveto
          -14 -22 -10 -24 -19 vvcurveto
          68 callgsubr
          hvcurveto
          55 99 31 44 vvcurveto
          14 -11 4 -11 vhcurveto
          endchar
        </CharString>
        <CharString name="equal">
          98 584 466 rmoveto
          15 -24 8 -36 -44 -398 -30 -29 -1 vhcurveto
          -12 13 -24 15 25 153 16 16 128 vhcurveto
          144 18 25 6 16 vvcurveto
          -25 -194 rmoveto
          13 -22 9 -34 -43 -405 -35 -27 -11 13 -24 14 -1 vhcurveto
          28 136 13 12 89 hvcurveto
          128 17 96 14 20 vvcurveto
          endchar
        </CharString>
        <CharString name="eth">
          252 callgsubr
          312 563 rmoveto
          8 -8 5 -13 -13 -23 -11 -23 -54 vhcurveto
          55 -33 -44 36 -51 hhcurveto
          289 callsubr
          12 -10 11 -14 11 -17 rrcurveto
          -63 -25 -44 -17 -20 vvcurveto
          -9 10 -6 10 13 46 16 20 48 vhcurveto
          14 -33 10 -41 4 -48 262 callgsubr
          65 -13 64 -23 54 hvcurveto
          50 23 42 25 12 vvcurveto
          endchar
        </CharString>
        <CharString name="exclam">
          -197 258 766 rmoveto
          15 -42 22 -16 -6 -2 -8 -16 vhcurveto
          -263 -64 -233 -16 vvcurveto
          -17 12 -16 13 31 74 412 120 vhcurveto
          -114 -757 rmoveto
          27 -34 86 -22 -18 -22 -30 -20 -28 48 -49 29 9 10 9 5 vhcurveto
          endchar
        </CharString>
        <CharString name="exclamdown">
          -195 79 -13 rmoveto
          -15 42 -22 16 6 2 8 16 vhcurveto
          263 64 233 16 vvcurveto
          17 -12 16 -13 -31 -74 -412 -120 vhcurveto
          114 757 rmoveto
          -27 34 -86 22 18 22 30 20 28 -48 49 -29 -9 -10 -9 -5 vhcurveto
          endchar
        </CharString>
        <CharString name="f">
          -167 214 417 rmoveto
          99 19 23 4 17 vvcurveto
          13 -21 9 -32 -14 -22 -1 -4 -29 vhcurveto
          20 84 rlineto
          98 24 17 70 53 60 -6 -101 32 hhcurveto
          7 9 7 34 47 -32 67 -76 -71 -44 -54 -134 -28 hvcurveto
          -9 -45 -10 -43 -10 -41 -22 -5 -25 -5 -28 -7 rrcurveto
          -23 -6 -14 -7 -10 vvcurveto
          -13 21 -17 16 13 18 3 6 30 vhcurveto
          -49 -201 -42 -132 -19 vvcurveto
          -17 17 -20 12 26 55 219 183 44 vhcurveto
          endchar
        </CharString>
        <CharString name="fi">
          23 268 558 rmoveto
          98 24 17 70 53 60 45 -118 35 hhcurveto
          7 6 11 21 48 -83 92 -76 -71 -46 -53 -135 -26 hvcurveto
          -8 -44 -9 -42 -10 -41 -29 -5 -28 -6 -24 -6 rrcurveto
          -21 -5 -12 -7 -9 vvcurveto
          -13 20 -18 17 10 23 4 6 31 vhcurveto
          -47 -195 -47 -142 -18 vvcurveto
          -20 18 -18 11 26 55 220 184 45 vhcurveto
          15 3 16 2 16 3 64 10 71 12 29 1 rrcurveto
          -29 -118 -76 -251 -25 vvcurveto
          -19 9 -18 16 10 12 14 42 12 vhcurveto
          47 164 57 181 35 vvcurveto
          31 -21 15 -35 -15 -91 -9 -14 -93 vhcurveto
          endchar
        </CharString>
        <CharString name="five">
          42 598 680 rmoveto
          21 -53 2 -74 -70 -81 -12 -11 -29 vhcurveto
          -31 -9 -84 -118 -57 -120 218 -40 -102 vvcurveto
          -71 -110 -84 -71 vhcurveto
          -68 -73 99 -9 hhcurveto
          -8 -4 -9 -10 -46 76 -87 93 113 122 114 106 hvcurveto
          100 -215 71 75 vvcurveto
          29 53 102 30 6 vhcurveto
          50 11 225 19 21 vvcurveto
          endchar
        </CharString>
        <CharString name="fl">
          47 266 580 rmoveto
          93 21 15 53 38 43 -10 -55 27 hhcurveto
          8 7 5 30 38 -27 36 -46 -63 -48 -44 -114 -20 hvcurveto
          -9 -53 -11 -52 -10 -50 -21 -4 -22 -4 -23 -4 rrcurveto
          -26 -5 -16 -7 -11 vvcurveto
          -11 20 -19 17 11 20 2 4 26 vhcurveto
          -45 -192 -48 -147 -17 vvcurveto
          -21 18 -18 12 10 11 24 40 14 vhcurveto
          28 80 34 137 28 124 81 17 97 28 42 39 rrcurveto
          -22 -193 -76 -227 -24 vvcurveto
          -21 16 -20 15 33 116 507 197 31 -31 28 -14 -12 -1 -18 -42 -190 -75 -25 -155 -27 vhcurveto
          endchar
        </CharString>
        <CharString name="florin">
          -118 176 383 rmoveto
          -393 -86 -15 -34 -33 -31 -16 37 -11 hhcurveto
          -8 -6 -9 -15 -33 36 -35 30 78 36 35 419 88 hvcurveto
          12 56 rlineto
          1 hlineto
          103 19 23 6 17 vvcurveto
          13 -20 8 -32 -14 -23 -2 -2 -25 vhcurveto
          202 45 24 50 44 61 -6 -97 32 hhcurveto
          7 8 7 34 47 -31 67 -76 -85 -33 -58 -262 -60 hvcurveto
          -59 -10 -55 -15 -16 vvcurveto
          -13 21 -20 16 14 18 4 6 31 vhcurveto
          endchar
        </CharString>
        <CharString name="four">
          43 454 507 rmoveto
          -11 -6 -10 -23 -60 -5 -55 -7 -48 hvcurveto
          -16 -47 -91 -35 -64 hhcurveto
          -46 -29 20 56 hvcurveto
          135 225 181 33 vvcurveto
          17 -13 5 -18 -37 -219 -238 -138 -83 65 -42 70 61 82 27 27 52 vhcurveto
          -25 -129 -40 -80 -33 vvcurveto
          -18 5 -8 9 43 90 322 143 26 -32 24 -12 vhcurveto
          endchar
        </CharString>
        <CharString name="fraction">
          182 callgsubr
        </CharString>
        <CharString name="g">
          -40 138 76 177 callsubr
          -106 -89 -78 hhcurveto
          284 213 rmoveto
          13 -4 14 -6 8 vhcurveto
          155 callsubr
          endchar
        </CharString>
        <CharString name="gbreve">
          -40 138 76 177 callsubr
          -106 -89 -78 hhcurveto
          274 248 rmoveto
          155 callsubr
          13 -4 14 -6 8 vhcurveto
          81 358 116 callsubr
        </CharString>
        <CharString name="germandbls">
          66 366 371 rmoveto
          25 140 14 122 vvcurveto
          85 -73 86 -75 -103 -71 -69 -112 -21 vhcurveto
          -59 -311 -44 -99 -54 vvcurveto
          -20 15 -21 15 25 48 181 312 62 vhcurveto
          82 17 51 52 56 hhcurveto
          41 55 -49 -66 hvcurveto
          -86 -142 -20 -44 -72 147 -42 -85 vvcurveto
          -63 -75 -44 -61 vhcurveto
          -20 -21 2 -13 hhcurveto
          -14 -8 -2 -13 -21 27 -20 52 87 106 49 112 hvcurveto
          106 -144 63 22 vvcurveto
          endchar
        </CharString>
        <CharString name="grave">
          -97 786 rmoveto
          276 callsubr
          vhcurveto
          -3 callgsubr
          hvcurveto
          endchar
        </CharString>
        <CharString name="greater">
          20 156 508 rmoveto
          -12 -10 -2 -8 -10 22 -32 26 -7 hvcurveto
          59 -17 159 -76 -35 -20 -318 -133 -34 vvcurveto
          -7 5 -5 16 26 52 14 58 113 vhcurveto
          86 43 93 39 34 vvcurveto
          14 -13 26 -14 14 vhcurveto
          -64 61 -145 82 -81 1 rrcurveto
          endchar
        </CharString>
        <CharString name="greaterequal">
          24 162 552 rmoveto
          -12 -10 -2 -8 -10 19 -31 24 -5 hvcurveto
          59 -14 170 -50 -35 -30 -324 -102 -33 vvcurveto
          -7 7 -4 16 35 67 22 35 84 vhcurveto
          86 35 96 45 27 vvcurveto
          16 -10 23 -15 14 vhcurveto
          -57 51 -145 62 -90 1 rrcurveto
          -102 -461 rmoveto
          -10 17 -7 23 70 279 83 23 15 -14 16 -12 -17 -49 -20 -33 -105 vhcurveto
          -114 -36 -78 -14 -17 vvcurveto
          endchar
        </CharString>
        <CharString name="guillemotleft">
          271 409 495 rmoveto
          -57 -207 -86 -46 -59 hvcurveto
          -14 -11 -22 -29 -19 vvcurveto
          -45 276 -119 47 21 9 4 12 vhcurveto
          27 -282 351 callgsubr
          20 6 18 3 15 vvcurveto
          9 -12 15 -28 vhcurveto
          310 -21 rmoveto
          -58 -226 -66 -45 -59 hvcurveto
          -15 -11 -22 -28 -18 vvcurveto
          -47 274 -101 63 20 9 4 11 vhcurveto
          28 -295 78 31 vvcurveto
          31 166 45 115 31 vhcurveto
          20 6 48 9 17 vvcurveto
          9 -12 16 -28 vhcurveto
          endchar
        </CharString>
        <CharString name="guillemotright">
          322 160 474 rmoveto
          -14 -19 -22 -9 -9 21 -7 24 -6 hvcurveto
          66 -16 148 -48 -34 -32 -305 -102 -30 vvcurveto
          -7 7 -4 15 64 288 120 48 74 -231 83 -64 1 vhcurveto
          287 21 rmoveto
          -14 -17 -21 -9 -9 20 -7 24 -7 hvcurveto
          66 -18 144 -71 -34 -22 -303 -120 -29 vvcurveto
          -6 5 -4 16 63 232 108 37 41 vhcurveto
          7 321 callsubr
        </CharString>
        <CharString name="guilsinglleft">
          50 423 495 rmoveto
          -57 -208 -86 -46 -59 hvcurveto
          -14 -11 -21 -29 -19 vvcurveto
          -45 275 -119 47 21 9 4 12 vhcurveto
          27 -281 351 callgsubr
          19 6 19 3 15 vvcurveto
          9 -13 15 -27 vhcurveto
          endchar
        </CharString>
        <CharString name="guilsinglright">
          73 202 495 rmoveto
          -14 -18 -21 -9 -9 21 -7 24 -7 hvcurveto
          65 -18 145 -71 -34 -22 -304 -120 -29 vvcurveto
          -6 6 -4 16 63 232 108 37 40 vhcurveto
          8 321 callsubr
        </CharString>
        <CharString name="h">
          11 168 782 rmoveto
          -17 -3 -8 -29 -44 -2 -112 -40 -203 hvcurveto
          -33 -169 -47 -129 -28 vvcurveto
          -20 23 -23 13 10 45 83 86 57 vhcurveto
          144 96 61 100 47 hhcurveto
          14 25 -21 -32 -32 -12 -51 -17 -56 hvcurveto
          -28 -94 -35 -72 -35 vvcurveto
          -13 5 -7 11 32 35 96 116 37 vhcurveto
          19 60 12 53 41 vvcurveto
          57 -58 62 -29 -60 -73 -81 -285 -163 vhcurveto
          91 257 26 247 74 vvcurveto
          32 -24 36 -18 vhcurveto
          endchar
        </CharString>
        <CharString name="hungarumlaut">
          39 863 2 callgsubr
          endchar
        </CharString>
        <CharString name="hyphen">
          -91 232 callsubr
        </CharString>
        <CharString name="i">
          -285 163 502 rmoveto
          -24 -15 -99 -139 -35 hvcurveto
          -22 -89 -36 -101 -27 vvcurveto
          -18 11 -12 13 10 15 14 42 14 vhcurveto
          72 227 30 132 30 vvcurveto
          18 -19 22 -14 vhcurveto
          103 103 352 callgsubr
          42 -42 28 8 9 8 9 vhcurveto
          endchar
        </CharString>
        <CharString name="iacute">
          -285 242 668 rmoveto
          -62 callsubr
          181 callgsubr
          vhcurveto
          -46 -206 24 callsubr
          endchar
        </CharString>
        <CharString name="icircumflex">
          -285 270 188 callsubr
          -74 -218 24 callsubr
          endchar
        </CharString>
        <CharString name="idieresis">
          -285 172 604 rmoveto
          28 -30 61 -19 336 callsubr
          vhcurveto
          136 hmoveto
          28 -30 61 -19 336 callsubr
          vhcurveto
          -112 -142 24 callsubr
          endchar
        </CharString>
        <CharString name="igrave">
          200 callgsubr
          -123 228 rmoveto
          276 callsubr
          vhcurveto
          -3 callgsubr
          hvcurveto
          endchar
        </CharString>
        <CharString name="imacron">
          200 callgsubr
          9 131 rmoveto
          63 callgsubr
          277 callgsubr
          vhcurveto
          endchar
        </CharString>
        <CharString name="infinity">
          206 503 149 rmoveto
          -54 -38 41 56 -34 hvcurveto
          79 91 86 80 41 hhcurveto
          23 18 -20 -34 -93 -59 -109 -74 hvcurveto
          -366 7 rmoveto
          -35 -13 22 22 39 46 153 78 70 12 -94 -36 23 hvcurveto
          -58 -69 -66 -48 -46 hhcurveto
          460 312 rmoveto
          -51 -97 -92 -85 -97 hvcurveto
          61 -7 -40 101 -93 hhcurveto
          -109 -76 -169 -85 -63 58 -38 54 52 75 55 63 76 hvcurveto
          -69 39 52 -55 82 hhcurveto
          87 95 118 140 70 -50 48 -50 hvcurveto
          endchar
        </CharString>
        <CharString name="integral">
          -63 467 708 rmoveto
          33 -36 35 -30 -85 -23 -33 -397 -87 vhcurveto
          -359 -79 -14 -31 -32 -29 -15 37 -12 hhcurveto
          -8 -6 -9 -15 -33 36 -35 30 86 23 37 395 86 hvcurveto
          360 79 16 29 29 31 14 -38 12 hhcurveto
          8 6 9 15 hvcurveto
          endchar
        </CharString>
        <CharString name="iogonek">
          -285 78 -92 rmoveto
          -16 -14 -16 -28 hhcurveto
          -28 -15 8 15 46 70 30 22 34 hvcurveto
          8 8 9 15 8 25 rrcurveto
          72 227 30 132 30 vvcurveto
          18 -19 22 -14 -17 -7 -26 -168 -39 vhcurveto
          -17 -74 -44 -138 -7 -39 rrcurveto
          -46 -22 -65 -77 -50 311 callgsubr
        </CharString>
        <CharString name="itfLogo">
          1137 147 hmoveto
          227 callgsubr
          236 -634 rmoveto
          227 callgsubr
          236 -634 rmoveto
          227 callgsubr
          -410 vmoveto
          196 185 -196 hlineto
          endchar
        </CharString>
        <CharString name="itfStar">
          161 663 452 rmoveto
          -28 -200 -6 -2 -34 hvcurveto
          -66 246 -8 -27 -53 -188 -8 -31 rlinecurve
          -261 8 25 -15 168 -108 28 -17 rlinecurve
          -96 -247 24 20 152 128 29 20 rlinecurve
          204 -168 -11 28 -71 189 -12 30 rlinecurve
          endchar
        </CharString>
        <CharString name="j">
          -260 271 605 352 callgsubr
          43 -42 28 7 9 8 9 vhcurveto
          -127 -139 rmoveto
          -459 -118 -7 -197 -80 hhcurveto
          -28 -23 19 24 -20 hvcurveto
          24 -21 -17 26 -11 hhcurveto
          -8 -11 -21 -10 -33 70 -78 70 68 34 51 91 23 hvcurveto
          110 444 22 84 32 vvcurveto
          20 -20 19 -14 -6 -6 -12 -24 -7 vhcurveto
          endchar
        </CharString>
        <CharString name="k">
          -55 266 195 105 callgsubr
        </CharString>
        <CharString name="l">
          -278 108 136 45 callsubr
        </CharString>
        <CharString name="lacute">
          -277 267 915 rmoveto
          -62 callsubr
          181 callgsubr
          vhcurveto
          -161 -779 45 callsubr
        </CharString>
        <CharString name="lcaron">
          -92 264 573 rmoveto
          29 97 52 77 41 -34 24 -32 288 callsubr
          vhcurveto
          -158 -437 45 callsubr
        </CharString>
        <CharString name="less">
          63 521 508 rmoveto
          -63 -242 -99 -48 -61 hvcurveto
          -15 -12 -21 -31 -19 vvcurveto
          -48 291 -126 63 21 10 4 11 vhcurveto
          29 -307 105 33 vvcurveto
          35 228 82 97 32 vhcurveto
          19 6 19 3 15 vvcurveto
          9 -10 19 -29 vhcurveto
          endchar
        </CharString>
        <CharString name="lessequal">
          34 468 552 rmoveto
          -64 -235 -68 -47 -62 hvcurveto
          -15 -12 -21 -29 -19 vvcurveto
          -48 291 -98 62 22 10 4 12 vhcurveto
          29 -310 79 29 vvcurveto
          34 220 52 104 30 vhcurveto
          19 5 18 5 15 vvcurveto
          8 -10 19 -29 vhcurveto
          -33 -454 rmoveto
          17 -94 14 -108 29 vhcurveto
          29 -107 -48 24 -16 hhcurveto
          -12 -15 -16 -15 -23 235 -76 125 22 18 6 11 hvcurveto
          endchar
        </CharString>
        <CharString name="logicalnot">
          -15 -5 472 rmoveto
          -10 -5 -4 -12 -22 45 -24 56 hvcurveto
          318 hlineto
          28 22 -9 -21 hvcurveto
          -108 -117 -145 -28 vvcurveto
          -9 7 -4 8 43 124 204 83 41 -15 32 -29 10 vhcurveto
          10 -30 -77 0 -119 -147 -83 6 -19 hhcurveto
          endchar
        </CharString>
        <CharString name="lozenge">
          -89 275 562 rmoveto
          -26 -121 -176 -59 -22 52 -116 27 -69 hvcurveto
          -13 5 33 -4 11 hhcurveto
          27 120 173 74 12 -11 15 -21 50 hvcurveto
          -28 70 -5 28 -14 20 rrcurveto
          13 -9 -29 4 -11 hhcurveto
          83 -216 rmoveto
          -23 -65 -40 -74 -55 -57 -15 41 -34 87 -17 40 17 52 38 74 58 57 16 -41 28 -70 27 -44 rrcurveto
          endchar
        </CharString>
        <CharString name="lslash">
          -160 231 392 324 callsubr
          -48 -11 -15 -54 vhcurveto
          19 102 10 92 78 vvcurveto
          31 -34 31 -11 -12 -1 -6 -19 -103 -16 -117 -21 -109 vhcurveto
          -70 -22 -63 -24 -13 vvcurveto
          -15 30 -13 19 9 31 11 12 31 vhcurveto
          -33 -156 -37 -127 -23 vvcurveto
          -16 19 -25 13 11 15 45 74 20 vhcurveto
          24 89 20 85 17 81 rrcurveto
          endchar
        </CharString>
        <CharString name="m">
          272 667 502 rmoveto
          -55 -58 -54 -188 -105 hvcurveto
          14 48 7 43 33 vvcurveto
          59 -57 59 -28 -65 -68 -91 -279 -159 vhcurveto
          42 120 30 128 65 vvcurveto
          30 -25 28 -17 -29 29 -97 -165 -48 vhcurveto
          -26 -91 -23 -68 -24 vvcurveto
          -16 22 -25 14 11 47 87 83 56 vhcurveto
          154 102 53 94 44 hhcurveto
          15 25 -22 -34 hvcurveto
          -151 -91 -139 -42 vvcurveto
          -13 16 -17 10 22 57 129 39 26 vhcurveto
          154 100 55 96 44 hhcurveto
          14 12 -20 -49 hvcurveto
          -158 -79 -115 -56 vvcurveto
          -13 5 -7 11 49 71 241 112 87 -40 45 -30 vhcurveto
          endchar
        </CharString>
        <CharString name="macron">
          35 593 rmoveto
          63 callgsubr
          277 callgsubr
          vhcurveto
          endchar
        </CharString>
        <CharString name="minus">
          89 105 287 rmoveto
          201 281 35 34 13 -18 6 -24 hvcurveto
          -58 -138 -26 -168 -55 -39 333 callsubr
          endchar
        </CharString>
        <CharString name="multiply">
          6 305 325 rmoveto
          73 69 129 108 13 vvcurveto
          12 -22 14 -17 -31 -61 -67 -108 -106 vhcurveto
          -48 63 -41 58 24 vvcurveto
          19 -35 11 -22 -14 -3 -6 -10 -23 56 -90 66 -87 vhcurveto
          -96 -92 -80 -48 -18 vvcurveto
          -12 22 -16 16 20 76 73 71 74 vhcurveto
          -78 62 63 -66 29 hhcurveto
          10 11 5 8 11 -67 79 -66 82 hvcurveto
          endchar
        </CharString>
        <CharString name="n">
          10 386 502 -43 callgsubr
        </CharString>
        <CharString name="nacute">
          10 314 567 146 callsubr
          72 -65 -43 callgsubr
        </CharString>
        <CharString name="ncaron">
          10 302 557 121 callgsubr
          84 -55 -43 callgsubr
        </CharString>
        <CharString name="nine">
          -33 195 342 rmoveto
          -36 -32 21 41 78 110 168 99 34 16 -21 -31 hvcurveto
          -23 -12 -24 -19 vvcurveto
          -9 7 -6 11 -1 vhcurveto
          -59 -39 -63 -115 -95 hhcurveto
          236 211 rmoveto
          6 15 3 18 18 vvcurveto
          55 -39 51 -64 -128 -138 -186 -113 -71 51 -53 70 58 65 46 55 48 vhcurveto
          -38 -117 -40 -146 -62 vvcurveto
          -32 9 -22 19 24 1 144 168 55 vhcurveto
          34 104 29 54 35 vvcurveto
          19 -5 19 -20 1 vhcurveto
          endchar
        </CharString>
        <CharString name="notequal">
          87 415 426 rmoveto
          143 23 26 1 16 vvcurveto
          15 -28 8 -32 -13 -43 -3 -4 -55 vhcurveto
          10 23 11 24 12 25 rrcurveto
          11 24 5 20 13 vvcurveto
          14 -6 5 -11 -17 -35 -54 -100 -47 vhcurveto
          -123 -11 -141 -18 -1 -17 rrcurveto
          -12 13 -24 15 17 104 10 10 88 vhcurveto
          -6 -16 -7 -15 -7 -17 -14 -34 -13 -30 -12 -28 rrcurveto
          -105 -12 -99 -15 -13 vvcurveto
          -11 13 -24 14 -1 vhcurveto
          17 67 5 6 65 hvcurveto
          -29 -68 -19 -44 -19 vvcurveto
          -10 7 -11 13 16 30 61 98 45 vhcurveto
          15 2 14 2 12 2 202 31 22 1 1 17 rrcurveto
          14 -23 7 -34 2 vhcurveto
          -16 -78 -6 -8 -87 hvcurveto
          19 43 21 48 23 51 rrcurveto
          endchar
        </CharString>
        <CharString name="ntilde">
          10 197 570 rmoveto
          41 callsubr
          235 callsubr
          hvcurveto
          189 -68 -43 callgsubr
        </CharString>
        <CharString name="numbersign">
          78 280 476 rmoveto
          59 8 48 6 40 5 -17 -84 -23 -94 -21 -82 -50 -4 -57 -5 -51 -7 24 92 22 88 16 76 rrcurveto
          -79 -319 rmoveto
          28 4 133 17 rlineto
          -20 -79 -15 -58 -11 vvcurveto
          -17 14 -22 13 11 15 27 72 19 vhcurveto
          25 97 rlineto
          111 15 23 7 13 vvcurveto
          13 -13 9 -32 -14 -27 -1 -2 -34 vhcurveto
          25 96 23 92 15 76 rrcurveto
          97 14 21 7 11 vvcurveto
          13 -14 10 -31 -13 -22 -1 -1 -27 vhcurveto
          8 42 4 35 24 vvcurveto
          31 -35 28 -12 -12 0 -7 -27 -31 -6 -46 -10 -54 vhcurveto
          -49 -3 -56 -6 -51 -6 rrcurveto
          9 52 6 42 27 vvcurveto
          31 -35 28 -11 -13 0 -7 -27 -34 -9 -56 -13 -66 vhcurveto
          -61 -10 -45 -13 -14 vvcurveto
          -12 16 -21 13 12 20 3 5 32 vhcurveto
          -18 -85 -23 -93 -19 -78 rrcurveto
          -55 -10 -39 -12 -13 vvcurveto
          -12 18 -21 11 12 15 2 4 22 vhcurveto
          -15 -62 -11 -45 -8 vvcurveto
          -26 19 -16 9 13 12 36 65 18 vhcurveto
          endchar
        </CharString>
        <CharString name="o">
          144 callsubr
          endchar
        </CharString>
        <CharString name="oacute">
          -59 360 668 rmoveto
          -62 callsubr
          181 callgsubr
          vhcurveto
          50 -331 -51 callgsubr
          endchar
        </CharString>
        <CharString name="ocircumflex">
          -59 388 188 callsubr
          22 -343 -51 callgsubr
          endchar
        </CharString>
        <CharString name="odieresis">
          -59 290 604 rmoveto
          28 -30 61 -19 336 callsubr
          vhcurveto
          136 hmoveto
          28 -30 61 -19 336 callsubr
          vhcurveto
          -16 -267 -51 callgsubr
          endchar
        </CharString>
        <CharString name="oe">
          395 570 502 rmoveto
          -60 -61 -46 -64 -46 hvcurveto
          61 -16 -40 49 -58 hhcurveto
          -131 -113 -177 -150 -88 42 -70 68 69 63 41 60 46 hvcurveto
          -63 23 63 -38 71 hhcurveto
          286 callgsubr
          -6 6 -12 hvcurveto
          205 callgsubr
          30 56 30 7 32 11 27 hvcurveto
          -11 43 44 -7 47 hhcurveto
          171 callgsubr
          hvcurveto
          -276 -45 rmoveto
          36 -17 21 -48 -51 vvcurveto
          -109 -80 -152 -115 -13 vhcurveto
          -39 14 -12 39 40 vvcurveto
          122 72 153 117 22 vhcurveto
          282 -11 rmoveto
          170 callsubr
          -30 -40 4 10 -38 hvcurveto
          83 38 64 71 62 hhcurveto
          endchar
        </CharString>
        <CharString name="ogonek">
          46 13 rmoveto
          14 -11 4 -11 -43 -90 -96 -59 68 callgsubr
          hvcurveto
          55 99 31 44 vvcurveto
          endchar
        </CharString>
        <CharString name="ograve">
          144 callsubr
          -104 233 rmoveto
          276 callsubr
          vhcurveto
          -3 callgsubr
          hvcurveto
          endchar
        </CharString>
        <CharString name="ohungarumlaut">
          -59 326 767 2 callgsubr
          -57 -424 -51 callgsubr
          endchar
        </CharString>
        <CharString name="omacron">
          -59 322 593 rmoveto
          63 callgsubr
          277 callgsubr
          vhcurveto
          88 -256 -51 callgsubr
          endchar
        </CharString>
        <CharString name="one">
          -190 209 343 rmoveto
          29 114 19 148 47 vvcurveto
          25 -18 35 -23 -9 -8 -8 -23 -2 vhcurveto
          -36 -367 -81 -197 -67 vvcurveto
          -21 13 -25 12 27 31 161 178 46 vhcurveto
          endchar
        </CharString>
        <CharString name="onehalf">
          237 135 286 rmoveto
          16 -1 14 105 17 111 13 74 7 68 2 54 rrcurveto
          15 -28 23 -14 -6 -7 -5 -15 vhcurveto
          -163 -49 -199 -29 vvcurveto
          -21 24 -16 11 -1 vhcurveto
          406 452 108 callgsubr
          67 -679 rmoveto
          -28 -114 -21 -8 -59 hvcurveto
          135 90 104 91 115 vvcurveto
          60 -46 51 -65 -51 -70 -51 -26 -15 25 -9 10 vhcurveto
          16 30 49 46 hhcurveto
          31 18 -26 -37 -145 -236 -103 -1 -43 hvcurveto
          -27 32 -20 25 47 186 31 29 15 -18 0 -17 vhcurveto
          endchar
        </CharString>
        <CharString name="onequarter">
          250 160 286 rmoveto
          17 -1 13 105 18 111 12 74 8 68 1 54 rrcurveto
          15 -27 23 -15 -5 -8 -5 -15 -158 -46 -182 -3 -51 vhcurveto
          -21 25 -16 10 -1 vhcurveto
          406 452 108 callgsubr
          64 -408 rmoveto
          -10 342 callgsubr
          -48 310 callsubr
          -15 14 -12 -26 -153 -190 -82 -54 35 -35 54 34 45 13 15 35 vhcurveto
          -17 -79 -25 -51 -21 vvcurveto
          -13 8 -14 12 32 62 211 94 19 -26 25 -10 vhcurveto
          endchar
        </CharString>
        <CharString name="onesuperior">
          -361 168 691 rmoveto
          13 -25 22 -11 -8 -3 -8 -13 vhcurveto
          -120 -38 -160 -25 vvcurveto
          -20 16 -15 9 18 11 77 81 12 vhcurveto
          10 67 9 59 42 vvcurveto
          endchar
        </CharString>
        <CharString name="ordfeminine">
          -71 342 690 rmoveto
          -106 -35 -65 -85 -63 hhcurveto
          -31 -15 20 30 80 74 124 78 35 22 -40 -20 hvcurveto
          -28 -168 rmoveto
          -40 14 -37 16 14 2 20 29 vhcurveto
          125 24 10 49 vvcurveto
          4 vlineto
          2 8 2 9 8 vvcurveto
          27 -39 68 -66 -115 -88 -165 -89 -51 42 -52 57 47 52 38 52 36 vhcurveto
          endchar
        </CharString>
        <CharString name="ordmasculine">
          -59 385 646 rmoveto
          78 -38 81 -75 -105 -72 -109 -92 -73 40 -79 65 114 71 112 82 vhcurveto
          -236 -51 rmoveto
          72 34 72 90 22 vhcurveto
          42 -21 15 -40 -50 vvcurveto
          -79 -41 -62 -93 -13 vhcurveto
          -26 17 -21 38 44 vvcurveto
          endchar
        </CharString>
        <CharString name="oslash">
          -52 361 344 rmoveto
          -101 -83 -170 -121 -8 vhcurveto
          -16 5 -12 9 -9 13 43 51 71 86 124 143 rrcurveto
          2 -9 1 -10 -9 vvcurveto
          -259 -186 rmoveto
          122 80 160 117 17 vhcurveto
          14 -5 13 -11 10 -13 -29 -34 -35 -45 -46 -55 -47 -56 -43 -51 -34 -41 rrcurveto
          4 0 4 4 vvcurveto
          317 283 rmoveto
          29 33 6 8 8 vvcurveto
          9 -7 5 -8 -22 -20 -13 -23 -25 vhcurveto
          21 -19 -26 13 -30 hhcurveto
          -136 -116 -178 -149 -30 6 -28 9 -24 hvcurveto
          -21 -29 -13 -20 -8 vvcurveto
          -10 4 -9 16 9 8 6 28 23 vhcurveto
          -21 19 25 -13 28 hhcurveto
          139 121 169 151 30 -6 29 -10 25 hvcurveto
          endchar
        </CharString>
        <CharString name="otilde">
          144 callsubr
          -10 238 rmoveto
          235 callsubr
          41 callsubr
          endchar
        </CharString>
        <CharString name="p">
          -65 101 187 rmoveto
          0 vlineto
          139 56 120 120 55 hhcurveto
          31 13 -45 -56 -150 -169 -119 -102 -12 -10 1 2 -9 hvcurveto
          -11 -50 rmoveto
          -7 12 16 -4 23 hhcurveto
          122 203 166 159 81 -32 83 -65 -67 -73 -58 -104 -63 hvcurveto
          12 51 5 26 15 vvcurveto
          30 -31 37 -17 -15 -2 -9 -21 vhcurveto
          -155 -135 -478 -36 vvcurveto
          -19 18 -24 14 21 31 171 72 17 vhcurveto
          endchar
        </CharString>
        <CharString name="paragraph">
          -28 63 462 rmoveto
          -42 38 -50 52 31 30 14 21 28 vhcurveto
          -21 -114 -64 -222 -19 vvcurveto
          -16 21 -17 11 10 18 43 75 20 vhcurveto
          60 227 42 196 1 151 rrcurveto
          4 0 3 -1 3 vhcurveto
          47 8 27 4 16 5 rrcurveto
          -16 -293 -112 -358 -36 vvcurveto
          -16 21 -16 11 9 18 43 75 20 vhcurveto
          60 226 43 199 1 151 rrcurveto
          29 -26 28 -13 4 vhcurveto
          4 -9 -14 2 -16 hhcurveto
          -36 -106 -13 -19 -36 hvcurveto
          -93 -49 -72 -146 -89 vvcurveto
          endchar
        </CharString>
        <CharString name="parenleft">
          -22 146 262 rmoveto
          366 391 163 40 vvcurveto
          17 -20 20 -17 -51 -365 -228 -369 -263 231 -106 92 19 8 8 11 vhcurveto
          46 -288 24 271 vvcurveto
          endchar
        </CharString>
        <CharString name="parenright">
          -21 -12 -78 rmoveto
          53 370 242 383 186 -123 111 -68 -20 -22 -5 -21 hvcurveto
          -44 165 -25 -221 -346 -371 -209 -37 vvcurveto
          -10 8 -4 8 vhcurveto
          endchar
        </CharString>
        <CharString name="partialdiff">
          252 callgsubr
          73 633 rmoveto
          289 callsubr
          39 -34 36 -71 7 -99 262 callgsubr
          157 -77 156 -106 hvcurveto
          endchar
        </CharString>
        <CharString name="percent">
          324 32 callgsubr
          endchar
        </CharString>
        <CharString name="period">
          -274 224 callgsubr
          endchar
        </CharString>
        <CharString name="periodcentered">
          -274 68 328 233 callsubr
          endchar
        </CharString>
        <CharString name="perthousand">
          626 32 callgsubr
          253 -327 rmoveto
          -34 -16 37 35 101 73 99 43 28 23 -42 -65 -82 -73 -83 -44 hvcurveto
          70 327 rmoveto
          -79 -99 -112 -152 -61 47 -59 52 82 102 110 120 93 -49 61 -56 hvcurveto
          endchar
        </CharString>
        <CharString name="pi">
          123 530 489 rmoveto
          102 3 22 7 18 vvcurveto
          32 -85 0 -58 -143 -301 -11 -37 -12 21 -21 15 12 37 2 3 50 vhcurveto
          -13 0 -14 -17 -293 -108 -58 -32 vvcurveto
          -20 16 -9 15 59 79 210 193 18 0 20 -3 18 vhcurveto
          64 4 75 4 67 3 rrcurveto
          -26 -64 -20 -115 -81 vvcurveto
          -132 36 -78 45 17 15 10 13 vhcurveto
          31 -55 13 143 vvcurveto
          157 39 48 7 57 vhcurveto
          endchar
        </CharString>
        <CharString name="plus">
          89 591 356 rmoveto
          13 -17 6 -25 -38 -71 -11 -8 -93 vhcurveto
          17 78 12 46 25 vvcurveto
          21 -36 36 -13 -8 -7 -7 -21 -2 vhcurveto
          -9 -73 -7 -60 -7 -49 rrcurveto
          -2 -32 -33 -1 -36 -55 -39 2 -11 hhcurveto
          -15 -11 -5 -13 -21 27 -25 27 53 59 2 5 58 hvcurveto
          -17 -118 -9 -37 -23 vvcurveto
          -24 14 -23 13 19 8 81 148 28 vhcurveto
          138 13 118 23 22 vvcurveto
          endchar
        </CharString>
        <CharString name="plusminus">
          89 494 145 rmoveto
          -63 -143 -19 -195 hhcurveto
          -11 -3 -7 -6 -13 20 -29 21 64 351 16 46 8 -11 4 -30 hvcurveto
          40 336 rmoveto
          -54 -48 -10 -7 -76 hvcurveto
          15 70 10 46 16 vvcurveto
          19 -35 33 -14 -8 -7 -7 -20 -32 -9 -63 -10 -66 vhcurveto
          -1 -27 -31 -1 -35 -50 -35 2 -10 hhcurveto
          -13 -12 -6 -13 -19 26 -26 26 48 52 2 4 52 hvcurveto
          -12 -74 -12 -66 -13 vvcurveto
          -29 15 -20 13 19 7 78 129 25 vhcurveto
          124 12 106 21 21 vvcurveto
          13 -15 7 -25 vhcurveto
          endchar
        </CharString>
        <CharString name="product">
          -12 325 714 rmoveto
          -112 -79 -10 -31 hvcurveto
          -119 -106 -444 -49 vvcurveto
          -21 21 -22 12 24 79 426 199 29 vhcurveto
          81 13 92 6 77 2 rrcurveto
          -7 -143 -99 -423 -37 vvcurveto
          -21 20 -22 13 37 96 620 8 65 -73 3 -105 vhcurveto
          endchar
        </CharString>
        <CharString name="q">
          -61 379 -98 rmoveto
          -21 -44 -19 -47 -67 hvcurveto
          98 282 60 138 40 vvcurveto
          12 -17 15 -19 -10 -4 -2 -12 -3 vhcurveto
          -148 -40 -119 -85 -76 hhcurveto
          -26 -24 26 26 100 145 216 93 hvcurveto
          41 17 -46 28 hhcurveto
          9 4 7 9 29 -50 59 -56 -126 -162 -239 -131 -54 58 -61 50 50 72 39 57 51 hvcurveto
          -86 -234 -18 -44 -25 vvcurveto
          -18 14 -31 17 15 56 50 39 72 vhcurveto
          24 13 13 11 11 vvcurveto
          10 -10 7 -9 vhcurveto
          endchar
        </CharString>
        <CharString name="question">
          -42 456 631 225 callgsubr
          -114 -120 vvcurveto
          -24 7 -23 13 12 7 14 55 22 vhcurveto
          42 105 175 109 113 vvcurveto
          -343 -559 rmoveto
          -28 48 -49 29 9 10 9 5 27 -34 86 -22 -19 -21 -30 -20 vhcurveto
          endchar
        </CharString>
        <CharString name="questiondown">
          -140 -1 65 rmoveto
          -94 72 -56 82 81 71 65 70 20 -24 34 -12 -12 -19 -6 -10 vhcurveto
          -13 8 -1 -20 vvcurveto
          -47 -46 -33 -47 -47 -44 35 53 vhcurveto
          118 215 114 120 vvcurveto
          24 -7 23 -13 -12 -7 -14 -55 -22 vhcurveto
          -42 -105 -175 -109 -113 vvcurveto
          343 559 rmoveto
          28 -48 49 -29 -9 -10 -9 -5 -27 34 -86 22 19 21 30 20 vhcurveto
          endchar
        </CharString>
        <CharString name="quotedbl">
          -262 96 792 rmoveto
          13 -26 312 callgsubr
          13 20 20 177 49 vhcurveto
          147 hmoveto
          13 -25 312 callgsubr
          12 21 19 177 49 vhcurveto
          endchar
        </CharString>
        <CharString name="quotedblbase">
          89 15 -150 110 callsubr
        </CharString>
        <CharString name="quotedblleft">
          -112 228 825 rmoveto
          -33 -106 -83 -92 -50 30 -34 36 22 11 12 19 hvcurveto
          27 -23 4 46 63 80 50 24 vvcurveto
          9 -5 5 -12 vhcurveto
          188 -9 rmoveto
          -52 -83 -85 -81 -50 30 -34 36 21 11 13 17 hvcurveto
          30 -23 7 41 60 77 42 26 vvcurveto
          9 -5 5 -12 vhcurveto
          endchar
        </CharString>
        <CharString name="quotedblright">
          98 404 566 rmoveto
          33 106 83 92 50 -30 34 -36 -22 -11 -12 -19 hvcurveto
          -27 23 -4 -46 -63 -80 -50 -24 vvcurveto
          -9 5 -5 12 vhcurveto
          -188 9 rmoveto
          52 83 85 81 50 -30 34 -36 -21 -11 -13 -17 hvcurveto
          -30 23 -7 -41 -60 -77 -42 -26 vvcurveto
          -9 5 -5 12 vhcurveto
          endchar
        </CharString>
        <CharString name="quoteleft">
          -264 267 825 rmoveto
          -33 -116 -83 -92 -54 42 -30 40 22 21 15 21 hvcurveto
          35 -59 -18 55 73 101 38 28 vvcurveto
          9 -5 3 -13 vhcurveto
          endchar
        </CharString>
        <CharString name="quoteright">
          -264 130 566 rmoveto
          32 116 82 93 54 -41 30 -40 -22 -21 -15 -21 hvcurveto
          -35 59 18 -55 -73 -101 -39 -27 vvcurveto
          -9 5 -3 13 vhcurveto
          endchar
        </CharString>
        <CharString name="quotesinglbase">
          -249 15 -150 110 callsubr
        </CharString>
        <CharString name="quotesingle">
          -179 220 792 rmoveto
          13 -27 21 -11 -8 -3 -7 -13 vhcurveto
          -95 -20 -89 -22 vvcurveto
          -15 14 -19 13 21 21 177 49 vhcurveto
          endchar
        </CharString>
        <CharString name="r">
          -197 328 498 3 callsubr
          endchar
        </CharString>
        <CharString name="racute">
          -197 328 498 3 callsubr
          29 240 rmoveto
          181 callgsubr
          hvcurveto
          -62 callsubr
          vhcurveto
          endchar
        </CharString>
        <CharString name="radical">
          -64 304 -28 rmoveto
          -45 108 -4 105 -13 104 rrcurveto
          24 -3 -28 18 -17 hhcurveto
          -57 -1 -58 -90 -36 vvcurveto
          -9 6 -6 7 25 24 59 25 42 vhcurveto
          8 -109 35 -145 29 -74 rrcurveto
          -20 8 22 -22 18 hhcurveto
          40 43 104 194 82 hvcurveto
          79 187 113 200 32 vvcurveto
          12 -17 12 -12 -49 -174 -441 -231 -104 vhcurveto
          endchar
        </CharString>
        <CharString name="rcaron">
          -197 328 498 3 callsubr
          47 220 -53 callsubr
          endchar
        </CharString>
        <CharString name="registered">
          256 357 366 rmoveto
          16 60 7 36 16 2 0 2 1 vvcurveto
          5 14 18 5 20 hhcurveto
          32 20 -8 -18 -50 -84 -29 -43 -22 hvcurveto
          171 98 rmoveto
          51 -51 22 -55 -38 -58 -16 -19 -6 5 -10 6 -6 vhcurveto
          -8 -72 -54 -157 -32 vvcurveto
          -13 15 -15 9 14 14 68 60 17 vhcurveto
          -50 31 93 -78 30 hhcurveto
          11 7 7 7 14 -31 21 -27 23 hvcurveto
          -31 26 -45 42 8 3 146 31 91 vvcurveto
          -200 -362 rmoveto
          -103 -75 66 121 209 183 119 144 96 77 -84 -119 -201 -126 -111 -196 hvcurveto
          123 558 rmoveto
          312 callsubr
          311 callsubr
          hvcurveto
          endchar
        </CharString>
        <CharString name="ring">
          52 731 128 callgsubr
          endchar
        </CharString>
        <CharString name="s">
          -107 387 412 23 callgsubr
          endchar
        </CharString>
        <CharString name="sacute">
          -107 313 668 rmoveto
          -62 callsubr
          181 callgsubr
          vhcurveto
          74 -256 23 callgsubr
          endchar
        </CharString>
        <CharString name="scaron">
          -107 408 112 callgsubr
          -21 -306 23 callgsubr
          endchar
        </CharString>
        <CharString name="section">
          -82 192 192 rmoveto
          -41 38 -40 34 38 vvcurveto
          78 76 42 52 23 vhcurveto
          40 -46 40 -46 -49 vvcurveto
          -45 -56 -64 -71 -3 vhcurveto
          131 537 rmoveto
          -80 -86 -72 -67 -38 22 -35 28 -34 hvcurveto
          -67 -26 -91 -71 -82 -105 169 -68 -84 vvcurveto
          -58 -32 -24 -57 -34 -21 20 21 -13 vhcurveto
          19 -12 -6 20 -13 hhcurveto
          -9 -15 -24 -18 -32 60 -64 68 91 58 63 71 44 -23 37 -29 31 hvcurveto
          87 19 63 75 56 130 -163 75 82 vvcurveto
          37 50 43 44 vhcurveto
          48 -8 -81 32 hhcurveto
          10 7 9 19 53 -33 59 -45 hvcurveto
          endchar
        </CharString>
        <CharString name="semicolon">
          -205 131 446 rmoveto
          -28 48 -55 29 10 9 9 7 28 -33 92 -25 -17 -21 -32 -21 vhcurveto
          -121 -628 110 callsubr
        </CharString>
        <CharString name="seven">
          -56 448 693 rmoveto
          11 -17 -61 3 -33 hhcurveto
          -59 -172 -25 -7 -20 32 -34 19 hvcurveto
          51 102 27 62 hhcurveto
          29 14 -12 -11 hvcurveto
          -53 -308 -449 -64 vvcurveto
          -14 11 -25 10 21 72 153 154 92 vhcurveto
          57 96 108 157 43 vvcurveto
          24 -11 34 -19 12 vhcurveto
          endchar
        </CharString>
        <CharString name="six">
          53 207 76 rmoveto
          -45 -36 25 57 73 23 70 34 64 hvcurveto
          144 -16 88 -59 -57 vvcurveto
          -80 -122 -77 -86 vhcurveto
          -1 328 rmoveto
          96 154 148 110 18 vvcurveto
          10 -23 12 -18 -42 -301 -293 -247 -89 58 -58 78 129 148 108 109 65 -99 86 -174 15 vhcurveto
          endchar
        </CharString>
        <CharString name="slash">
          -119 56 -75 rmoveto
          13 14 34 329 137 hvcurveto
          65 156 122 210 53 vvcurveto
          21 -26 35 -10 -10 -1 -7 -22 -10 vhcurveto
          -242 -538 -82 -198 -37 vvcurveto
          -11 21 -25 9 vhcurveto
          endchar
        </CharString>
        <CharString name="space">
          -101 endchar
        </CharString>
        <CharString name="sterling">
          106 198 70 rmoveto
          -30 -40 46 24 25 18 13 24 25 25 -22 -28 29 hvcurveto
          -48 -24 -15 -10 -12 hhcurveto
          351 586 rmoveto
          -70 -62 -29 -244 -77 hvcurveto
          1 -28 -33 1 -31 hhcurveto
          -14 -18 -22 -16 -12 51 -4 57 -1 hvcurveto
          -20 -62 -17 -48 -14 -37 rrcurveto
          27 -31 -35 21 -43 hhcurveto
          -52 -45 -34 -54 -59 80 -67 49 37 26 13 58 31 hvcurveto
          -38 41 48 -35 60 hhcurveto
          68 87 74 33 16 -10 12 -19 hvcurveto
          -33 -19 -81 -85 hhcurveto
          -40 -35 36 37 -37 hvcurveto
          19 46 23 61 27 82 rrcurveto
          77 3 89 10 26 vvcurveto
          11 -14 2 -134 vhcurveto
          183 63 41 33 38 hhcurveto
          28 18 -16 -32 hvcurveto
          -15 -6 -8 -12 vvcurveto
          -8 6 -5 7 13 36 28 29 53 -37 43 -61 vhcurveto
          endchar
        </CharString>
        <CharString name="summation">
          322 406 386 rmoveto
          -1 hlineto
          -17 -100 -12 -73 hhcurveto
          -51 -40 4 18 52 232 197 78 hvcurveto
          32 3 -35 17 hhcurveto
          8 8 12 10 27 -25 41 -39 -107 -267 -223 -88 -55 90 -8 92 hvcurveto
          8 hlineto
          -109 -64 -118 -101 -65 vvcurveto
          -45 56 -36 48 168 203 33 44 14 -9 6 -19 -33 -86 -43 -1 -225 vhcurveto
          -24 -20 9 26 21 44 47 106 81 hvcurveto
          82 62 113 43 15 vvcurveto
          11 -12 3 -12 vhcurveto
          endchar
        </CharString>
        <CharString name="t">
          -159 206 427 12 callsubr
          endchar
        </CharString>
        <CharString name="tcaron">
          -127 218 427 12 callsubr
          152 306 rmoveto
          -18 -18 -12 -19 -28 42 18 4 -41 hvcurveto
          -3 -45 -82 -33 -24 vvcurveto
          -7 6 -3 9 29 97 52 77 42 -34 23 -32 vhcurveto
          endchar
        </CharString>
        <CharString name="thorn">
          15 192 150 rmoveto
          -22 -19 13 6 -12 hvcurveto
          9 37 8 32 6 23 11 43 10 44 8 42 rrcurveto
          32 56 47 13 29 hhcurveto
          60 48 -53 -67 -83 -128 -82 -111 hvcurveto
          133 348 rmoveto
          -23 -50 -10 -25 -47 hvcurveto
          16 90 8 72 21 vvcurveto
          33 -24 34 -17 -15 -3 -8 -22 vhcurveto
          -176 -169 -599 -65 346 callsubr
          10 46 181 144 37 vhcurveto
          -22 16 36 -10 24 hhcurveto
          118 168 92 134 89 -86 90 -79 hvcurveto
          endchar
        </CharString>
        <CharString name="three">
          73 290 359 rmoveto
          95 34 158 85 94 vvcurveto
          68 -59 66 -86 -70 -135 -53 -32 -11 28 -24 11 vhcurveto
          14 84 64 75 hhcurveto
          66 8 -42 -23 -131 -266 -58 -13 -43 hvcurveto
          -2 -2 -1 -4 -5 -27 261 0 -81 -162 -391 -6 -21 vvcurveto
          -19 27 -8 69 162 210 94 119 76 -111 44 -134 8 vhcurveto
          endchar
        </CharString>
        <CharString name="threequarters">
          318 396 476 rmoveto
          46 -59 30 -74 10 vhcurveto
          65 29 72 54 48 vvcurveto
          46 -42 46 -56 -54 -84 -35 -26 -13 18 -16 14 vhcurveto
          25 35 41 50 hhcurveto
          36 4 -21 -13 -79 -165 -34 -12 -33 hvcurveto
          -1 -3 -1 -3 -4 -27 166 7 -48 -100 -250 4 -25 vvcurveto
          -17 24 -6 45 104 140 62 80 vhcurveto
          266 262 108 callgsubr
          63 -408 rmoveto
          -9 342 callgsubr
          -49 310 callsubr
          -14 14 -13 -25 -154 -190 -82 -54 36 -35 54 34 45 13 16 35 vhcurveto
          -18 -79 -25 -52 -21 vvcurveto
          -13 8 -14 12 31 63 211 94 19 -25 25 -11 vhcurveto
          endchar
        </CharString>
        <CharString name="threesuperior">
          -194 128 540 rmoveto
          -1 vlineto
          -24 128 0 -34 -68 -194 1 -27 vvcurveto
          -14 20 -5 36 81 111 48 66 36 -42 23 -54 9 vhcurveto
          46 22 53 37 41 vvcurveto
          38 -33 37 -46 -41 -68 -27 -23 -12 16 -14 11 vhcurveto
          20 28 32 38 hhcurveto
          26 3 -14 -9 hvcurveto
          -64 -139 -19 -35 vvcurveto
          endchar
        </CharString>
        <CharString name="tilde">
          -3 695 rmoveto
          235 callsubr
          41 callsubr
          endchar
        </CharString>
        <CharString name="trademark">
          229 215 644 rmoveto
          -144 -17 -1 -8 -11 11 -18 14 16 34 2 1 27 hvcurveto
          -8 -63 -43 -121 -27 vvcurveto
          -9 14 -10 6 13 15 57 51 16 vhcurveto
          19 61 10 42 1 19 rrcurveto
          -1 31 19 -2 17 hhcurveto
          20 13 2 7 15 -29 14 -55 hvcurveto
          388 -1 rmoveto
          -17 -42 -52 -98 -90 hvcurveto
          -29 57 -22 47 -3 20 rrcurveto
          14 -2 -15 13 -9 hhcurveto
          -10 -6 -3 -10 hvcurveto
          -48 -54 -150 -30 vvcurveto
          -9 18 -15 6 7 7 33 51 16 vhcurveto
          12 37 9 24 7 24 16 -37 14 -29 11 -17 rrcurveto
          -9 5 11 -6 9 hhcurveto
          21 33 40 79 72 hvcurveto
          -18 -56 -18 -83 -26 vvcurveto
          -16 14 -9 6 14 5 51 55 17 vhcurveto
          21 68 18 51 17 vvcurveto
          10 -24 12 -10 vhcurveto
          endchar
        </CharString>
        <CharString name="two">
          69 447 122 rmoveto
          -48 -232 -44 -4 -60 hvcurveto
          221 154 166 153 168 vvcurveto
          91 -65 74 -96 -76 -101 -77 -32 -18 26 -10 14 vhcurveto
          17 51 76 78 hhcurveto
          58 31 -49 -61 hvcurveto
          -231 -372 -164 -61 vvcurveto
          -37 43 -27 35 66 288 50 35 14 -15 0 -29 vhcurveto
          endchar
        </CharString>
        <CharString name="twosuperior">
          -218 132 640 rmoveto
          13 19 39 39 hhcurveto
          24 13 -19 -28 hvcurveto
          -109 -185 -82 -35 vvcurveto
          -23 27 -16 19 36 147 24 25 13 -11 2 -18 -19 -70 -13 -7 -53 vhcurveto
          100 69 74 69 86 vvcurveto
          50 -37 39 -51 -49 -48 -41 -20 -12 22 -11 8 vhcurveto
          endchar
        </CharString>
        <CharString name="u">
          -32 408 502 34 callsubr
        </CharString>
        <CharString name="uacute">
          -32 408 502 -65 callsubr
          29 236 rmoveto
          181 callgsubr
          hvcurveto
          -62 callsubr
          vhcurveto
          endchar
        </CharString>
        <CharString name="ucircumflex">
          -32 408 502 -65 callsubr
          -20 178 -39 callsubr
          endchar
        </CharString>
        <CharString name="udieresis">
          -32 410 587 rmoveto
          253 callsubr
          -10 callsubr
          hvcurveto
          -136 hmoveto
          253 callsubr
          -10 callsubr
          hvcurveto
          134 -85 34 callsubr
        </CharString>
        <CharString name="ugrave">
          -32 265 618 rmoveto
          -3 callgsubr
          276 callsubr
          hvcurveto
          143 -116 34 callsubr
        </CharString>
        <CharString name="uhungarumlaut">
          -32 258 566 rmoveto
          21 14 29 55 33 hvcurveto
          21 35 18 27 13 vvcurveto
          22 -18 20 -21 -21 -8 -31 -58 -23 vhcurveto
          -20 -52 -14 -22 -16 vvcurveto
          -12 7 -10 11 vhcurveto
          150 -64 -65 callsubr
          59 259 rmoveto
          -16 -15 -35 -64 -34 hvcurveto
          -25 -47 -9 -13 -16 vvcurveto
          -11 7 -8 10 24 17 33 40 29 vhcurveto
          30 42 19 18 19 vvcurveto
          21 -17 21 -20 vhcurveto
          endchar
        </CharString>
        <CharString name="umacron">
          -32 408 502 -65 callsubr
          -152 156 callsubr
        </CharString>
        <CharString name="underscore">
          91 533 25 rmoveto
          12 -16 10 -31 4 vhcurveto
          7 -54 -65 2 -60 hhcurveto
          -116 -136 -12 -20 -16 14 -19 15 -1 hvcurveto
          44 1 96 10 110 1 rrcurveto
          100 1 99 1 19 vvcurveto
          endchar
        </CharString>
        <CharString name="uni00A0">
          endchar
        </CharString>
        <CharString name="uni00AD">
          89 232 callsubr
        </CharString>
</ttFont>
